<?xml version="1.0" encoding="UTF-8"?>
<svg xmlns="http://www.w3.org/2000/svg" id="Layer_2" viewBox="0 0 385.7323 85.8163" width="1024px" height="227.81574475355px"><g id="Components"><g id="_75eeb007-225f-42cb-987a-25ab6e262c4b_7"><path d="M9.2393,25.6996v13.6284h23.4839v8.2383H9.2393v22.252H0V17.4608h33.7241v8.2388H9.2393Z" style="fill:#fff;"/><path d="M48.355,26.3925h-8.7773v-8.9316h8.7773v8.9316ZM48.355,69.8183h-8.7773v-36.6499h8.7773v36.6499Z" style="fill:#fff;"/><path d="M67.1421,33.1684v5.3896c.6929-1.8481,3.6187-6.314,10.7026-6.314.4619,0,.6157,0,1.3857.0771v8.9316c-.8472-.0771-1.6938-.1538-2.4639-.1538-4.6968,0-7.3145,1.6938-8.6235,5.0044-.6929,1.8481-1.001,4.0039-1.001,7.2378v16.4771h-8.7773v-36.6499h8.7773Z" style="fill:#fff;"/><path d="M116.6523,61.5028c-1.6172,2.5405-6.5449,9.2393-17.2476,9.2393-10.8564,0-18.248-7.6992-18.248-19.5566,0-11.3184,7.7769-18.8643,18.0171-18.8643,11.7031,0,17.3242,8.0845,17.3242,19.3262,0,.6157-.0771,1.6167-.0771,2.2329h-26.7178c.6162,5.0044,3.6958,9.3164,10.1636,9.3164,6.6216,0,9.5474-4.4658,10.7026-6.314l6.083,4.6201ZM89.9341,47.3354h17.8633c-.231-4.7734-3.6958-8.0073-8.6235-8.0073-5.0049,0-9.0088,3.6187-9.2397,8.0073Z" style="fill:#fff;"/><path d="M144.4492,40.0209h-8.7773v29.7974h-8.7773v-29.7974h-6.4678v-6.8525h6.4678v-4.312c0-3.2339.3848-5.1587,1.0771-6.8525,1.54-3.542,4.9277-5.0815,10.7031-5.0815,2.541,0,4.4658.231,5.7744.3848v7.0835c-1.001-.0767-1.6943-.1538-3.1572-.1538-2.54,0-4.0029.3081-4.8506,1.4629-.5391.77-.7695,1.9248-.7695,3.8496v3.6191h8.7773v6.8525ZM158.5391,26.3925h-8.7773v-8.9316h8.7773v8.9316ZM158.5391,69.8183h-8.7773v-36.5732h8.7773v36.5732Z" style="fill:#fff;"/><path d="M191.2637,43.5629c-2.54-2.4639-6.082-4.1582-10.3174-4.1582-3.4648,0-6.0049,1.2319-6.0049,3.6191,0,2.6177,2.54,3.1567,7.6992,4.2349l4.3887,1.001c5.5439,1.3086,10.5488,3.3877,10.5488,10.0864,0,8.3921-7.623,12.396-16.0156,12.396-8.7773,0-14.7061-4.3115-16.9385-7.4683l5.9287-5.2358c2.0781,2.772,5.6201,5.4668,11.2412,5.4668,4.3887,0,6.9297-1.54,6.9297-4.1582,0-2.5405-2.0791-3.0024-5.6211-3.7725l-5.4668-1.1553c-6.3906-1.3857-11.3955-4.0806-11.3955-10.7793,0-8.0073,7.7764-11.3955,14.7832-11.3955,7.3145,0,12.9355,3.2339,15.3223,5.8521l-5.082,5.4668Z" style="fill:#fff;"/><path d="M237.7715,69.8183h-8.7773v-18.5562c0-2.7715-.0771-5.1587-.6162-7.0063-.7695-2.6182-2.6943-4.2349-6.4678-4.2349-5.4668,0-8.084,4.2349-8.084,10.1636v19.6338h-8.7773V17.4608h8.7773v20.4043c1.6934-3.2339,5.8516-5.6211,11.3955-5.6211,4.1572,0,7.6221,1.2324,10.0859,4.543,1.6943,2.3867,2.4639,5.1587,2.4639,12.2422v20.7891Z" style="fill:#fff;"/><path d="M300.6511,22.5854c0-1.213-.834-2.047-2.047-2.047-1.289,0-2.047.834-2.047,2.047,0,1.289.834,2.047,2.047,2.047,1.289,0,2.047-.834,2.047-2.047" style="fill:#e6413e;"/><path d="M300.6511,18.4917c0-1.213-.834-2.047-2.047-2.047-1.289,0-2.047.834-2.047,2.047,0,1.289.834,2.047,2.047,2.047,1.289,0,2.047-.834,2.047-2.047" style="fill:#e6413e;"/><path d="M296.5574,22.5854c0-1.213-.834-2.047-2.047-2.047-1.289,0-2.047.834-2.047,2.047,0,1.289.834,2.047,2.047,2.047,1.289,0,2.047-.834,2.047-2.047" style="fill:#e6413e;"/><path d="M296.5574,18.4917c0-1.213-.834-2.047-2.047-2.047-1.289,0-2.047.834-2.047,2.047,0,1.289.834,2.047,2.047,2.047,1.289,0,2.047-.834,2.047-2.047" style="fill:#e6413e;"/><path d="M300.6511,30.773c0-1.213-.834-2.047-2.047-2.047-1.289,0-2.047.834-2.047,2.047,0,1.289.834,2.047,2.047,2.047,1.289,0,2.047-.834,2.047-2.047" style="fill:#e6413e;"/><path d="M300.6511,26.6792c0-1.213-.834-2.047-2.047-2.047-1.289,0-2.047.834-2.047,2.047,0,1.289.834,2.047,2.047,2.047,1.289,0,2.047-.834,2.047-2.047" style="fill:#e6413e;"/><path d="M296.5574,30.773c0-1.213-.834-2.047-2.047-2.047-1.289,0-2.047.834-2.047,2.047,0,1.289.834,2.047,2.047,2.047,1.289,0,2.047-.834,2.047-2.047" style="fill:#e6413e;"/><path d="M296.5574,26.6792c0-1.213-.834-2.047-2.047-2.047-1.289,0-2.047.834-2.047,2.047,0,1.289.834,2.047,2.047,2.047,1.289,0,2.047-.834,2.047-2.047" style="fill:#e6413e;"/><path d="M300.6511,38.8848c0-1.213-.834-2.047-2.047-2.047-1.289,0-2.047.834-2.047,2.047,0,1.289.834,2.047,2.047,2.047,1.289,0,2.047-.834,2.047-2.047" style="fill:#e6413e;"/><path d="M300.6511,34.829c0-1.213-.834-2.047-2.047-2.047-1.289,0-2.047.834-2.047,2.047,0,1.289.834,2.047,2.047,2.047,1.289,0,2.047-.834,2.047-2.047" style="fill:#e6413e;"/><path d="M296.5574,38.8848c0-1.213-.834-2.047-2.047-2.047-1.289,0-2.047.834-2.047,2.047,0,1.289.834,2.047,2.047,2.047,1.289,0,2.047-.834,2.047-2.047" style="fill:#e6413e;"/><path d="M296.5574,34.829c0-1.213-.834-2.047-2.047-2.047-1.289,0-2.047.834-2.047,2.047,0,1.289.834,2.047,2.047,2.047,1.289,0,2.047-.834,2.047-2.047" style="fill:#e6413e;"/><path d="M300.6511,47.042c0-1.213-.834-2.047-2.047-2.047-1.289,0-2.047.834-2.047,2.047,0,1.289.834,2.047,2.047,2.047,1.289,0,2.047-.834,2.047-2.047" style="fill:#e6413e;"/><path d="M300.6511,42.9785c0-1.213-.834-2.047-2.047-2.047-1.289,0-2.047.834-2.047,2.047,0,1.289.834,2.047,2.047,2.047,1.289,0,2.047-.834,2.047-2.047" style="fill:#e6413e;"/><path d="M296.5574,47.042c0-1.213-.834-2.047-2.047-2.047-1.289,0-2.047.834-2.047,2.047,0,1.289.834,2.047,2.047,2.047,1.289,0,2.047-.834,2.047-2.047" style="fill:#e6413e;"/><path d="M296.5574,42.9785c0-1.213-.834-2.047-2.047-2.047-1.289,0-2.047.834-2.047,2.047,0,1.289.834,2.047,2.047,2.047,1.289,0,2.047-.834,2.047-2.047" style="fill:#e6413e;"/><path d="M300.6511,55.2296c0-1.213-.834-2.047-2.047-2.047-1.289,0-2.047.834-2.047,2.047,0,1.289.834,2.047,2.047,2.047,1.289,0,2.047-.834,2.047-2.047" style="fill:#e6413e;"/><path d="M300.6511,51.1359c0-1.213-.834-2.047-2.047-2.047-1.289,0-2.047.834-2.047,2.047,0,1.289.834,2.047,2.047,2.047,1.289,0,2.047-.834,2.047-2.047" style="fill:#e6413e;"/><path d="M296.5574,55.2296c0-1.213-.834-2.047-2.047-2.047-1.289,0-2.047.834-2.047,2.047,0,1.289.834,2.047,2.047,2.047,1.289,0,2.047-.834,2.047-2.047" style="fill:#e6413e;"/><path d="M296.5574,51.1359c0-1.213-.834-2.047-2.047-2.047-1.289,0-2.047.834-2.047,2.047,0,1.289.834,2.047,2.047,2.047,1.289,0,2.047-.834,2.047-2.047" style="fill:#e6413e;"/><path d="M300.6511,71.4986c0-1.213-.834-2.047-2.047-2.047-1.289,0-2.047.834-2.047,2.047,0,1.289.834,2.047,2.047,2.047,1.289,0,2.047-.834,2.047-2.047" style="fill:#e6413e;"/><path d="M300.6511,67.4048c0-1.213-.834-2.047-2.047-2.047-1.289,0-2.047.834-2.047,2.047,0,1.289.834,2.047,2.047,2.047,1.289,0,2.047-.834,2.047-2.047" style="fill:#e6413e;"/><path d="M296.5574,71.4986c0-1.213-.834-2.047-2.047-2.047-1.289,0-2.047.834-2.047,2.047,0,1.289.834,2.047,2.047,2.047,1.289,0,2.047-.834,2.047-2.047" style="fill:#e6413e;"/><path d="M296.5574,67.4048c0-1.213-.834-2.047-2.047-2.047-1.289,0-2.047.834-2.047,2.047,0,1.289.834,2.047,2.047,2.047,1.289,0,2.047-.834,2.047-2.047" style="fill:#e6413e;"/><path d="M300.6511,75.5924c0-1.213-.834-2.047-2.047-2.047-1.289,0-2.047.834-2.047,2.047,0,1.289.834,2.047,2.047,2.047,1.289,0,2.047-.834,2.047-2.047" style="fill:#e6413e;"/><path d="M296.5574,75.5924c0-1.213-.834-2.047-2.047-2.047-1.289,0-2.047.834-2.047,2.047,0,1.289.834,2.047,2.047,2.047,1.289,0,2.047-.834,2.047-2.047" style="fill:#e6413e;"/><path d="M292.5532,22.5854c0-1.213-.834-2.047-2.047-2.047-1.289,0-2.047.834-2.047,2.047,0,1.289.834,2.047,2.047,2.047,1.289,0,2.047-.834,2.047-2.047" style="fill:#e6413e;"/><path d="M292.5532,18.4917c0-1.213-.834-2.047-2.047-2.047-1.289,0-2.047.834-2.047,2.047,0,1.289.834,2.047,2.047,2.047,1.289,0,2.047-.834,2.047-2.047" style="fill:#e6413e;"/><path d="M292.5532,30.773c0-1.213-.834-2.047-2.047-2.047-1.289,0-2.047.834-2.047,2.047,0,1.289.834,2.047,2.047,2.047,1.289,0,2.047-.834,2.047-2.047" style="fill:#e6413e;"/><path d="M292.5532,26.6792c0-1.213-.834-2.047-2.047-2.047-1.289,0-2.047.834-2.047,2.047,0,1.289.834,2.047,2.047,2.047,1.289,0,2.047-.834,2.047-2.047" style="fill:#e6413e;"/><path d="M292.5532,38.8848c0-1.213-.834-2.047-2.047-2.047-1.289,0-2.047.834-2.047,2.047,0,1.289.834,2.047,2.047,2.047,1.289,0,2.047-.834,2.047-2.047" style="fill:#e6413e;"/><path d="M292.5532,34.829c0-1.213-.834-2.047-2.047-2.047-1.289,0-2.047.834-2.047,2.047,0,1.289.834,2.047,2.047,2.047,1.289,0,2.047-.834,2.047-2.047" style="fill:#e6413e;"/><path d="M292.5532,47.042c0-1.213-.834-2.047-2.047-2.047-1.289,0-2.047.834-2.047,2.047,0,1.289.834,2.047,2.047,2.047,1.289,0,2.047-.834,2.047-2.047" style="fill:#e6413e;"/><path d="M292.5532,42.9785c0-1.213-.834-2.047-2.047-2.047-1.289,0-2.047.834-2.047,2.047,0,1.289.834,2.047,2.047,2.047,1.289,0,2.047-.834,2.047-2.047" style="fill:#e6413e;"/><path d="M292.5532,51.1359c0-1.213-.834-2.047-2.047-2.047-1.289,0-2.047.834-2.047,2.047,0,1.289.834,2.047,2.047,2.047,1.289,0,2.047-.834,2.047-2.047" style="fill:#e6413e;"/><path d="M292.5532,71.4986c0-1.213-.834-2.047-2.047-2.047-1.289,0-2.047.834-2.047,2.047,0,1.289.834,2.047,2.047,2.047,1.289,0,2.047-.834,2.047-2.047" style="fill:#e6413e;"/><path d="M292.5532,67.4048c0-1.213-.834-2.047-2.047-2.047-1.289,0-2.047.834-2.047,2.047,0,1.289.834,2.047,2.047,2.047,1.289,0,2.047-.834,2.047-2.047" style="fill:#e6413e;"/><path d="M292.5532,75.5924c0-1.213-.834-2.047-2.047-2.047-1.289,0-2.047.834-2.047,2.047,0,1.289.834,2.047,2.047,2.047,1.289,0,2.047-.834,2.047-2.047" style="fill:#e6413e;"/><path d="M288.5486,22.5854c0-1.213-.834-2.047-2.047-2.047-1.288,0-2.047.834-2.047,2.047,0,1.289.834,2.047,2.047,2.047,1.289,0,2.047-.834,2.047-2.047" style="fill:#e6413e;"/><path d="M288.5486,18.4917c0-1.213-.834-2.047-2.047-2.047-1.288,0-2.047.834-2.047,2.047,0,1.289.834,2.047,2.047,2.047,1.289,0,2.047-.834,2.047-2.047" style="fill:#e6413e;"/><path d="M288.5486,30.773c0-1.213-.834-2.047-2.047-2.047-1.288,0-2.047.834-2.047,2.047,0,1.289.834,2.047,2.047,2.047,1.289,0,2.047-.834,2.047-2.047" style="fill:#e6413e;"/><path d="M288.5486,26.6792c0-1.213-.834-2.047-2.047-2.047-1.288,0-2.047.834-2.047,2.047,0,1.289.834,2.047,2.047,2.047,1.289,0,2.047-.834,2.047-2.047" style="fill:#e6413e;"/><path d="M288.5486,38.8848c0-1.213-.834-2.047-2.047-2.047-1.288,0-2.047.834-2.047,2.047,0,1.289.834,2.047,2.047,2.047,1.289,0,2.047-.834,2.047-2.047" style="fill:#e6413e;"/><path d="M288.5486,34.829c0-1.213-.834-2.047-2.047-2.047-1.288,0-2.047.834-2.047,2.047,0,1.289.834,2.047,2.047,2.047,1.289,0,2.047-.834,2.047-2.047" style="fill:#e6413e;"/><path d="M288.5486,42.9785c0-1.213-.834-2.047-2.047-2.047-1.288,0-2.047.834-2.047,2.047,0,1.289.834,2.047,2.047,2.047,1.289,0,2.047-.834,2.047-2.047" style="fill:#e6413e;"/><path d="M288.5486,71.4986c0-1.213-.834-2.047-2.047-2.047-1.288,0-2.047.834-2.047,2.047,0,1.289.834,2.047,2.047,2.047,1.289,0,2.047-.834,2.047-2.047" style="fill:#e6413e;"/><path d="M288.5486,67.4048c0-1.213-.834-2.047-2.047-2.047-1.288,0-2.047.834-2.047,2.047,0,1.289.834,2.047,2.047,2.047,1.289,0,2.047-.834,2.047-2.047" style="fill:#e6413e;"/><path d="M288.5486,75.5924c0-1.213-.834-2.047-2.047-2.047-1.288,0-2.047.834-2.047,2.047,0,1.289.834,2.047,2.047,2.047,1.289,0,2.047-.834,2.047-2.047" style="fill:#e6413e;"/><path d="M284.5442,22.5854c0-1.213-.834-2.047-2.047-2.047-1.289,0-2.047.834-2.047,2.047,0,1.289.834,2.047,2.047,2.047,1.289,0,2.047-.834,2.047-2.047" style="fill:#e6413e;"/><path d="M284.5442,18.4917c0-1.213-.834-2.047-2.047-2.047-1.289,0-2.047.834-2.047,2.047,0,1.289.834,2.047,2.047,2.047,1.289,0,2.047-.834,2.047-2.047" style="fill:#e6413e;"/><path d="M284.5442,30.773c0-1.213-.834-2.047-2.047-2.047-1.289,0-2.047.834-2.047,2.047,0,1.289.834,2.047,2.047,2.047,1.289,0,2.047-.834,2.047-2.047" style="fill:#e6413e;"/><path d="M284.5442,26.6792c0-1.213-.834-2.047-2.047-2.047-1.289,0-2.047.834-2.047,2.047,0,1.289.834,2.047,2.047,2.047,1.289,0,2.047-.834,2.047-2.047" style="fill:#e6413e;"/><path d="M284.5442,38.8848c0-1.213-.834-2.047-2.047-2.047-1.289,0-2.047.834-2.047,2.047,0,1.289.834,2.047,2.047,2.047,1.289,0,2.047-.834,2.047-2.047" style="fill:#e6413e;"/><path d="M284.5442,34.829c0-1.213-.834-2.047-2.047-2.047-1.289,0-2.047.834-2.047,2.047,0,1.289.834,2.047,2.047,2.047,1.289,0,2.047-.834,2.047-2.047" style="fill:#e6413e;"/><path d="M284.5442,71.4986c0-1.213-.834-2.047-2.047-2.047-1.289,0-2.047.834-2.047,2.047,0,1.289.834,2.047,2.047,2.047,1.289,0,2.047-.834,2.047-2.047" style="fill:#e6413e;"/><path d="M284.5442,67.4048c0-1.213-.834-2.047-2.047-2.047-1.289,0-2.047.834-2.047,2.047,0,1.289.834,2.047,2.047,2.047,1.289,0,2.047-.834,2.047-2.047" style="fill:#e6413e;"/><path d="M284.5442,75.5924c0-1.213-.834-2.047-2.047-2.047-1.289,0-2.047.834-2.047,2.047,0,1.289.834,2.047,2.047,2.047,1.289,0,2.047-.834,2.047-2.047" style="fill:#e6413e;"/><path d="M280.5395,22.5854c0-1.213-.834-2.047-2.047-2.047-1.289,0-2.047.834-2.047,2.047,0,1.289.834,2.047,2.047,2.047,1.289,0,2.047-.834,2.047-2.047" style="fill:#e6413e;"/><path d="M280.5395,30.773c0-1.213-.834-2.047-2.047-2.047-1.289,0-2.047.834-2.047,2.047,0,1.289.834,2.047,2.047,2.047,1.289,0,2.047-.834,2.047-2.047" style="fill:#e6413e;"/><path d="M280.5395,26.6792c0-1.213-.834-2.047-2.047-2.047-1.289,0-2.047.834-2.047,2.047,0,1.289.834,2.047,2.047,2.047,1.289,0,2.047-.834,2.047-2.047" style="fill:#e6413e;"/><path d="M280.5395,38.8848c0-1.213-.834-2.047-2.047-2.047-1.289,0-2.047.834-2.047,2.047,0,1.289.834,2.047,2.047,2.047,1.289,0,2.047-.834,2.047-2.047" style="fill:#e6413e;"/><path d="M280.5395,34.829c0-1.213-.834-2.047-2.047-2.047-1.289,0-2.047.834-2.047,2.047,0,1.289.834,2.047,2.047,2.047,1.289,0,2.047-.834,2.047-2.047" style="fill:#e6413e;"/><path d="M280.5395,47.042c0-1.213-.834-2.047-2.047-2.047-1.289,0-2.047.834-2.047,2.047,0,1.289.834,2.047,2.047,2.047,1.289,0,2.047-.834,2.047-2.047" style="fill:#e6413e;"/><path d="M280.5395,42.9785c0-1.213-.834-2.047-2.047-2.047-1.289,0-2.047.834-2.047,2.047,0,1.289.834,2.047,2.047,2.047,1.289,0,2.047-.834,2.047-2.047" style="fill:#e6413e;"/><path d="M280.5395,63.3109c0-1.213-.834-2.047-2.047-2.047-1.289,0-2.047.834-2.047,2.047,0,1.289.834,2.047,2.047,2.047,1.289,0,2.047-.834,2.047-2.047" style="fill:#e6413e;"/><path d="M280.5395,59.2549c0-1.213-.834-2.047-2.047-2.047-1.289,0-2.047.834-2.047,2.047,0,1.289.834,2.047,2.047,2.047,1.289,0,2.047-.834,2.047-2.047" style="fill:#e6413e;"/><path d="M280.5395,71.4986c0-1.213-.834-2.047-2.047-2.047-1.289,0-2.047.834-2.047,2.047,0,1.289.834,2.047,2.047,2.047,1.289,0,2.047-.834,2.047-2.047" style="fill:#e6413e;"/><path d="M280.5395,67.4048c0-1.213-.834-2.047-2.047-2.047-1.289,0-2.047.834-2.047,2.047,0,1.289.834,2.047,2.047,2.047,1.289,0,2.047-.834,2.047-2.047" style="fill:#e6413e;"/><path d="M280.5395,75.5924c0-1.213-.834-2.047-2.047-2.047-1.289,0-2.047.834-2.047,2.047,0,1.289.834,2.047,2.047,2.047,1.289,0,2.047-.834,2.047-2.047" style="fill:#e6413e;"/><path d="M292.5532,79.6862c0-1.213-.834-2.047-2.047-2.047-1.289,0-2.047.834-2.047,2.047,0,1.289.834,2.047,2.047,2.047,1.289,0,2.047-.834,2.047-2.047" style="fill:#e6413e;"/><path d="M288.5486,79.6862c0-1.213-.834-2.047-2.047-2.047-1.288,0-2.047.834-2.047,2.047,0,1.289.834,2.047,2.047,2.047,1.289,0,2.047-.834,2.047-2.047" style="fill:#e6413e;"/><path d="M284.5442,79.6862c0-1.213-.834-2.047-2.047-2.047-1.289,0-2.047.834-2.047,2.047,0,1.289.834,2.047,2.047,2.047,1.289,0,2.047-.834,2.047-2.047" style="fill:#e6413e;"/><path d="M280.5395,79.6862c0-1.213-.834-2.047-2.047-2.047-1.289,0-2.047.834-2.047,2.047,0,1.289.834,2.047,2.047,2.047,1.289,0,2.047-.834,2.047-2.047" style="fill:#e6413e;"/><path d="M288.5486,83.7693c0-1.213-.834-2.047-2.047-2.047-1.288,0-2.047.834-2.047,2.047,0,1.289.834,2.047,2.047,2.047,1.289,0,2.047-.834,2.047-2.047" style="fill:#e6413e;"/><path d="M284.5442,83.7693c0-1.213-.834-2.047-2.047-2.047-1.289,0-2.047.834-2.047,2.047,0,1.289.834,2.047,2.047,2.047,1.289,0,2.047-.834,2.047-2.047" style="fill:#e6413e;"/><path d="M276.5351,22.5854c0-1.213-.834-2.047-2.047-2.047-1.289,0-2.047.834-2.047,2.047,0,1.289.834,2.047,2.047,2.047,1.289,0,2.047-.834,2.047-2.047" style="fill:#e6413e;"/><path d="M276.5351,30.773c0-1.213-.834-2.047-2.047-2.047-1.289,0-2.047.834-2.047,2.047,0,1.289.834,2.047,2.047,2.047,1.289,0,2.047-.834,2.047-2.047" style="fill:#e6413e;"/><path d="M276.5351,26.6792c0-1.213-.834-2.047-2.047-2.047-1.289,0-2.047.834-2.047,2.047,0,1.289.834,2.047,2.047,2.047,1.289,0,2.047-.834,2.047-2.047" style="fill:#e6413e;"/><path d="M276.5351,38.8848c0-1.213-.834-2.047-2.047-2.047-1.289,0-2.047.834-2.047,2.047,0,1.289.834,2.047,2.047,2.047,1.289,0,2.047-.834,2.047-2.047" style="fill:#e6413e;"/><path d="M276.5351,34.829c0-1.213-.834-2.047-2.047-2.047-1.289,0-2.047.834-2.047,2.047,0,1.289.834,2.047,2.047,2.047,1.289,0,2.047-.834,2.047-2.047" style="fill:#e6413e;"/><path d="M276.5351,47.042c0-1.213-.834-2.047-2.047-2.047-1.289,0-2.047.834-2.047,2.047,0,1.289.834,2.047,2.047,2.047,1.289,0,2.047-.834,2.047-2.047" style="fill:#e6413e;"/><path d="M276.5351,42.9785c0-1.213-.834-2.047-2.047-2.047-1.289,0-2.047.834-2.047,2.047,0,1.289.834,2.047,2.047,2.047,1.289,0,2.047-.834,2.047-2.047" style="fill:#e6413e;"/><path d="M276.5351,51.1359c0-1.213-.834-2.047-2.047-2.047-1.289,0-2.047.834-2.047,2.047,0,1.289.834,2.047,2.047,2.047,1.289,0,2.047-.834,2.047-2.047" style="fill:#e6413e;"/><path d="M276.5351,63.3109c0-1.213-.834-2.047-2.047-2.047-1.289,0-2.047.834-2.047,2.047,0,1.289.834,2.047,2.047,2.047,1.289,0,2.047-.834,2.047-2.047" style="fill:#e6413e;"/><path d="M276.5351,59.2549c0-1.213-.834-2.047-2.047-2.047-1.289,0-2.047.834-2.047,2.047,0,1.289.834,2.047,2.047,2.047,1.289,0,2.047-.834,2.047-2.047" style="fill:#e6413e;"/><path d="M276.5351,71.4986c0-1.213-.834-2.047-2.047-2.047-1.289,0-2.047.834-2.047,2.047,0,1.289.834,2.047,2.047,2.047,1.289,0,2.047-.834,2.047-2.047" style="fill:#e6413e;"/><path d="M276.5351,67.4048c0-1.213-.834-2.047-2.047-2.047-1.289,0-2.047.834-2.047,2.047,0,1.289.834,2.047,2.047,2.047,1.289,0,2.047-.834,2.047-2.047" style="fill:#e6413e;"/><path d="M272.5307,30.773c0-1.213-.834-2.047-2.047-2.047-1.289,0-2.047.834-2.047,2.047,0,1.289.834,2.047,2.047,2.047,1.289,0,2.047-.834,2.047-2.047" style="fill:#e6413e;"/><path d="M272.5307,38.8848c0-1.213-.834-2.047-2.047-2.047-1.289,0-2.047.834-2.047,2.047,0,1.289.834,2.047,2.047,2.047,1.289,0,2.047-.834,2.047-2.047" style="fill:#e6413e;"/><path d="M272.5307,34.829c0-1.213-.834-2.047-2.047-2.047-1.289,0-2.047.834-2.047,2.047,0,1.289.834,2.047,2.047,2.047,1.289,0,2.047-.834,2.047-2.047" style="fill:#e6413e;"/><path d="M272.5307,47.042c0-1.213-.834-2.047-2.047-2.047-1.289,0-2.047.834-2.047,2.047,0,1.289.834,2.047,2.047,2.047,1.289,0,2.047-.834,2.047-2.047" style="fill:#e6413e;"/><path d="M272.5307,42.9785c0-1.213-.834-2.047-2.047-2.047-1.289,0-2.047.834-2.047,2.047,0,1.289.834,2.047,2.047,2.047,1.289,0,2.047-.834,2.047-2.047" style="fill:#e6413e;"/><path d="M272.5307,55.2296c0-1.213-.834-2.047-2.047-2.047-1.289,0-2.047.834-2.047,2.047,0,1.289.834,2.047,2.047,2.047,1.289,0,2.047-.834,2.047-2.047" style="fill:#e6413e;"/><path d="M272.5307,51.1359c0-1.213-.834-2.047-2.047-2.047-1.289,0-2.047.834-2.047,2.047,0,1.289.834,2.047,2.047,2.047,1.289,0,2.047-.834,2.047-2.047" style="fill:#e6413e;"/><path d="M272.5307,63.3109c0-1.213-.834-2.047-2.047-2.047-1.289,0-2.047.834-2.047,2.047,0,1.289.834,2.047,2.047,2.047,1.289,0,2.047-.834,2.047-2.047" style="fill:#e6413e;"/><path d="M272.5307,59.2549c0-1.213-.834-2.047-2.047-2.047-1.289,0-2.047.834-2.047,2.047,0,1.289.834,2.047,2.047,2.047,1.289,0,2.047-.834,2.047-2.047" style="fill:#e6413e;"/><path d="M272.5307,71.4986c0-1.213-.834-2.047-2.047-2.047-1.289,0-2.047.834-2.047,2.047,0,1.289.834,2.047,2.047,2.047,1.289,0,2.047-.834,2.047-2.047" style="fill:#e6413e;"/><path d="M272.5307,67.4048c0-1.213-.834-2.047-2.047-2.047-1.289,0-2.047.834-2.047,2.047,0,1.289.834,2.047,2.047,2.047,1.289,0,2.047-.834,2.047-2.047" style="fill:#e6413e;"/><path d="M268.5266,47.042c0-1.213-.834-2.047-2.047-2.047-1.289,0-2.047.834-2.047,2.047,0,1.289.834,2.047,2.047,2.047,1.289,0,2.047-.834,2.047-2.047" style="fill:#e6413e;"/><path d="M268.5266,42.9785c0-1.213-.834-2.047-2.047-2.047-1.289,0-2.047.834-2.047,2.047,0,1.289.834,2.047,2.047,2.047,1.289,0,2.047-.834,2.047-2.047" style="fill:#e6413e;"/><path d="M268.5266,55.2296c0-1.213-.834-2.047-2.047-2.047-1.289,0-2.047.834-2.047,2.047,0,1.289.834,2.047,2.047,2.047,1.289,0,2.047-.834,2.047-2.047" style="fill:#e6413e;"/><path d="M268.5266,51.1359c0-1.213-.834-2.047-2.047-2.047-1.289,0-2.047.834-2.047,2.047,0,1.289.834,2.047,2.047,2.047,1.289,0,2.047-.834,2.047-2.047" style="fill:#e6413e;"/><path d="M268.5266,63.3109c0-1.213-.834-2.047-2.047-2.047-1.289,0-2.047.834-2.047,2.047,0,1.289.834,2.047,2.047,2.047,1.289,0,2.047-.834,2.047-2.047" style="fill:#e6413e;"/><path d="M268.5266,59.2549c0-1.213-.834-2.047-2.047-2.047-1.289,0-2.047.834-2.047,2.047,0,1.289.834,2.047,2.047,2.047,1.289,0,2.047-.834,2.047-2.047" style="fill:#e6413e;"/><path d="M268.5266,71.4986c0-1.213-.834-2.047-2.047-2.047-1.289,0-2.047.834-2.047,2.047,0,1.289.834,2.047,2.047,2.047,1.289,0,2.047-.834,2.047-2.047" style="fill:#e6413e;"/><path d="M268.5266,67.4048c0-1.213-.834-2.047-2.047-2.047-1.289,0-2.047.834-2.047,2.047,0,1.289.834,2.047,2.047,2.047,1.289,0,2.047-.834,2.047-2.047" style="fill:#e6413e;"/><path d="M264.5222,47.042c0-1.213-.834-2.047-2.047-2.047-1.289,0-2.047.834-2.047,2.047,0,1.289.834,2.047,2.047,2.047,1.289,0,2.047-.834,2.047-2.047" style="fill:#e6413e;"/><path d="M264.5222,42.9785c0-1.213-.834-2.047-2.047-2.047-1.289,0-2.047.834-2.047,2.047,0,1.289.834,2.047,2.047,2.047,1.289,0,2.047-.834,2.047-2.047" style="fill:#e6413e;"/><path d="M264.5222,55.2296c0-1.213-.834-2.047-2.047-2.047-1.289,0-2.047.834-2.047,2.047,0,1.289.834,2.047,2.047,2.047,1.289,0,2.047-.834,2.047-2.047" style="fill:#e6413e;"/><path d="M264.5222,51.1359c0-1.213-.834-2.047-2.047-2.047-1.289,0-2.047.834-2.047,2.047,0,1.289.834,2.047,2.047,2.047,1.289,0,2.047-.834,2.047-2.047" style="fill:#e6413e;"/><path d="M264.5222,63.3109c0-1.213-.834-2.047-2.047-2.047-1.289,0-2.047.834-2.047,2.047,0,1.289.834,2.047,2.047,2.047,1.289,0,2.047-.834,2.047-2.047" style="fill:#e6413e;"/><path d="M264.5222,59.2549c0-1.213-.834-2.047-2.047-2.047-1.289,0-2.047.834-2.047,2.047,0,1.289.834,2.047,2.047,2.047,1.289,0,2.047-.834,2.047-2.047" style="fill:#e6413e;"/><path d="M308.6404,22.5854c0-1.213-.834-2.047-2.047-2.047-1.289,0-2.047.834-2.047,2.047,0,1.289.834,2.047,2.047,2.047,1.289,0,2.047-.834,2.047-2.047" style="fill:#e6413e;"/><path d="M308.6404,18.4917c0-1.213-.834-2.047-2.047-2.047-1.289,0-2.047.834-2.047,2.047,0,1.289.834,2.047,2.047,2.047,1.289,0,2.047-.834,2.047-2.047" style="fill:#e6413e;"/><path d="M304.5464,22.5854c0-1.213-.834-2.047-2.047-2.047-1.289,0-2.047.834-2.047,2.047,0,1.289.834,2.047,2.047,2.047,1.289,0,2.047-.834,2.047-2.047" style="fill:#e6413e;"/><path d="M304.5464,18.4917c0-1.213-.834-2.047-2.047-2.047-1.289,0-2.047.834-2.047,2.047,0,1.289.834,2.047,2.047,2.047,1.289,0,2.047-.834,2.047-2.047" style="fill:#e6413e;"/><path d="M300.6511,14.398c0-1.213-.834-2.047-2.047-2.047-1.289,0-2.047.834-2.047,2.047,0,1.289.834,2.047,2.047,2.047,1.289,0,2.047-.834,2.047-2.047" style="fill:#e6413e;"/><path d="M296.5574,14.398c0-1.213-.834-2.047-2.047-2.047-1.289,0-2.047.834-2.047,2.047,0,1.289.834,2.047,2.047,2.047,1.289,0,2.047-.834,2.047-2.047" style="fill:#e6413e;"/><path d="M308.6404,26.6792c0-1.213-.834-2.047-2.047-2.047-1.289,0-2.047.834-2.047,2.047,0,1.289.834,2.047,2.047,2.047,1.289,0,2.047-.834,2.047-2.047" style="fill:#e6413e;"/><path d="M304.5464,26.6792c0-1.213-.834-2.047-2.047-2.047-1.289,0-2.047.834-2.047,2.047,0,1.289.834,2.047,2.047,2.047,1.289,0,2.047-.834,2.047-2.047" style="fill:#e6413e;"/><path d="M308.6404,47.042c0-1.213-.834-2.047-2.047-2.047-1.289,0-2.047.834-2.047,2.047,0,1.289.834,2.047,2.047,2.047,1.289,0,2.047-.834,2.047-2.047" style="fill:#e6413e;"/><path d="M308.6404,42.9785c0-1.213-.834-2.047-2.047-2.047-1.289,0-2.047.834-2.047,2.047,0,1.289.834,2.047,2.047,2.047,1.289,0,2.047-.834,2.047-2.047" style="fill:#e6413e;"/><path d="M304.5464,47.042c0-1.213-.834-2.047-2.047-2.047-1.289,0-2.047.834-2.047,2.047,0,1.289.834,2.047,2.047,2.047,1.289,0,2.047-.834,2.047-2.047" style="fill:#e6413e;"/><path d="M304.5464,42.9785c0-1.213-.834-2.047-2.047-2.047-1.289,0-2.047.834-2.047,2.047,0,1.289.834,2.047,2.047,2.047,1.289,0,2.047-.834,2.047-2.047" style="fill:#e6413e;"/><path d="M308.6404,55.2296c0-1.213-.834-2.047-2.047-2.047-1.289,0-2.047.834-2.047,2.047,0,1.289.834,2.047,2.047,2.047,1.289,0,2.047-.834,2.047-2.047" style="fill:#e6413e;"/><path d="M308.6404,51.1359c0-1.213-.834-2.047-2.047-2.047-1.289,0-2.047.834-2.047,2.047,0,1.289.834,2.047,2.047,2.047,1.289,0,2.047-.834,2.047-2.047" style="fill:#e6413e;"/><path d="M304.5464,55.2296c0-1.213-.834-2.047-2.047-2.047-1.289,0-2.047.834-2.047,2.047,0,1.289.834,2.047,2.047,2.047,1.289,0,2.047-.834,2.047-2.047" style="fill:#e6413e;"/><path d="M304.5464,51.1359c0-1.213-.834-2.047-2.047-2.047-1.289,0-2.047.834-2.047,2.047,0,1.289.834,2.047,2.047,2.047,1.289,0,2.047-.834,2.047-2.047" style="fill:#e6413e;"/><path d="M308.6404,63.3109c0-1.213-.834-2.047-2.047-2.047-1.289,0-2.047.834-2.047,2.047,0,1.289.834,2.047,2.047,2.047,1.289,0,2.047-.834,2.047-2.047" style="fill:#e6413e;"/><path d="M308.6404,59.2549c0-1.213-.834-2.047-2.047-2.047-1.289,0-2.047.834-2.047,2.047,0,1.289.834,2.047,2.047,2.047,1.289,0,2.047-.834,2.047-2.047" style="fill:#e6413e;"/><path d="M304.5464,63.3109c0-1.213-.834-2.047-2.047-2.047-1.289,0-2.047.834-2.047,2.047,0,1.289.834,2.047,2.047,2.047,1.289,0,2.047-.834,2.047-2.047" style="fill:#e6413e;"/><path d="M304.5464,59.2549c0-1.213-.834-2.047-2.047-2.047-1.289,0-2.047.834-2.047,2.047,0,1.289.834,2.047,2.047,2.047,1.289,0,2.047-.834,2.047-2.047" style="fill:#e6413e;"/><path d="M308.6404,71.4986c0-1.213-.834-2.047-2.047-2.047-1.289,0-2.047.834-2.047,2.047,0,1.289.834,2.047,2.047,2.047,1.289,0,2.047-.834,2.047-2.047" style="fill:#e6413e;"/><path d="M308.6404,67.4048c0-1.213-.834-2.047-2.047-2.047-1.289,0-2.047.834-2.047,2.047,0,1.289.834,2.047,2.047,2.047,1.289,0,2.047-.834,2.047-2.047" style="fill:#e6413e;"/><path d="M304.5464,71.4986c0-1.213-.834-2.047-2.047-2.047-1.289,0-2.047.834-2.047,2.047,0,1.289.834,2.047,2.047,2.047,1.289,0,2.047-.834,2.047-2.047" style="fill:#e6413e;"/><path d="M304.5464,67.4048c0-1.213-.834-2.047-2.047-2.047-1.289,0-2.047.834-2.047,2.047,0,1.289.834,2.047,2.047,2.047,1.289,0,2.047-.834,2.047-2.047" style="fill:#e6413e;"/><path d="M308.6404,75.5924c0-1.213-.834-2.047-2.047-2.047-1.289,0-2.047.834-2.047,2.047,0,1.289.834,2.047,2.047,2.047,1.289,0,2.047-.834,2.047-2.047" style="fill:#e6413e;"/><path d="M304.5464,75.5924c0-1.213-.834-2.047-2.047-2.047-1.289,0-2.047.834-2.047,2.047,0,1.289.834,2.047,2.047,2.047,1.289,0,2.047-.834,2.047-2.047" style="fill:#e6413e;"/><path d="M312.5359,55.2296c0-1.213-.834-2.047-2.047-2.047-1.289,0-2.047.834-2.047,2.047,0,1.289.834,2.047,2.047,2.047,1.288,0,2.047-.834,2.047-2.047" style="fill:#e6413e;"/><path d="M312.5359,51.1359c0-1.213-.834-2.047-2.047-2.047-1.289,0-2.047.834-2.047,2.047,0,1.289.834,2.047,2.047,2.047,1.288,0,2.047-.834,2.047-2.047" style="fill:#e6413e;"/><path d="M312.5359,63.3109c0-1.213-.834-2.047-2.047-2.047-1.289,0-2.047.834-2.047,2.047,0,1.289.834,2.047,2.047,2.047,1.288,0,2.047-.834,2.047-2.047" style="fill:#e6413e;"/><path d="M312.5359,59.2549c0-1.213-.834-2.047-2.047-2.047-1.289,0-2.047.834-2.047,2.047,0,1.289.834,2.047,2.047,2.047,1.288,0,2.047-.834,2.047-2.047" style="fill:#e6413e;"/><path d="M300.6511,10.3043c0-1.213-.834-2.047-2.047-2.047-1.289,0-2.047.834-2.047,2.047,0,1.289.834,2.047,2.047,2.047,1.289,0,2.047-.834,2.047-2.047" style="fill:#e6413e;"/><path d="M296.5574,10.3043c0-1.213-.834-2.047-2.047-2.047-1.289,0-2.047.834-2.047,2.047,0,1.289.834,2.047,2.047,2.047,1.289,0,2.047-.834,2.047-2.047" style="fill:#e6413e;"/><path d="M272.5307,14.3979c0-1.213-.834-2.047-2.047-2.047-1.289,0-2.047.834-2.047,2.047,0,1.289.834,2.047,2.047,2.047,1.289,0,2.047-.834,2.047-2.047" style="fill:#e6413e;"/><path d="M272.5307,10.3041c0-1.213-.834-2.047-2.047-2.047-1.289,0-2.047.834-2.047,2.047,0,1.289.834,2.047,2.047,2.047,1.289,0,2.047-.834,2.047-2.047" style="fill:#e6413e;"/><path d="M268.5266,14.3979c0-1.213-.834-2.047-2.047-2.047-1.289,0-2.047.834-2.047,2.047,0,1.289.834,2.047,2.047,2.047,1.289,0,2.047-.834,2.047-2.047" style="fill:#e6413e;"/><path d="M268.5266,10.3041c0-1.213-.834-2.047-2.047-2.047-1.289,0-2.047.834-2.047,2.047,0,1.289.834,2.047,2.047,2.047,1.289,0,2.047-.834,2.047-2.047" style="fill:#e6413e;"/><path d="M308.6404,6.3014c0-1.213-.834-2.047-2.047-2.047-1.289,0-2.047.834-2.047,2.047,0,1.289.834,2.047,2.047,2.047,1.289,0,2.047-.834,2.047-2.047" style="fill:#e6413e;"/><path d="M308.6404,2.2079c0-1.213-.834-2.047-2.047-2.047-1.289,0-2.047.834-2.047,2.047,0,1.289.834,2.047,2.047,2.047,1.289,0,2.047-.834,2.047-2.047" style="fill:#e6413e;"/><path d="M304.5464,6.3014c0-1.213-.834-2.047-2.047-2.047-1.289,0-2.047.834-2.047,2.047,0,1.289.834,2.047,2.047,2.047,1.289,0,2.047-.834,2.047-2.047" style="fill:#e6413e;"/><path d="M304.5464,2.2079c0-1.213-.834-2.047-2.047-2.047-1.289,0-2.047.834-2.047,2.047,0,1.289.834,2.047,2.047,2.047,1.289,0,2.047-.834,2.047-2.047" style="fill:#e6413e;"/><path d="M381.6393,51.1359c0,1.289.834,2.047,2.047,2.047,1.288,0,2.046-.834,2.046-2.047s-.833-2.047-2.046-2.047c-1.289,0-2.047.834-2.047,2.047" style="fill:#e6413e;"/><path d="M385.7323,34.829c0-1.213-.834-2.047-2.047-2.047-1.288,0-2.046.834-2.046,2.047,0,1.289.833,2.047,2.046,2.047,1.289,0,2.047-.834,2.047-2.047" style="fill:#e6413e;"/><path d="M385.7323,59.2549c0-1.213-.834-2.047-2.047-2.047-1.288,0-2.046.834-2.046,2.047,0,1.289.833,2.047,2.046,2.047,1.289,0,2.047-.834,2.047-2.047" style="fill:#e6413e;"/><path d="M385.7323,63.3109c0-1.213-.834-2.047-2.047-2.047-1.288,0-2.046.834-2.046,2.047,0,1.289.833,2.047,2.046,2.047,1.289,0,2.047-.834,2.047-2.047" style="fill:#e6413e;"/><path d="M381.6393,26.6792c0,1.289.834,2.047,2.047,2.047,1.288,0,2.046-.834,2.046-2.047s-.833-2.047-2.046-2.047c-1.289,0-2.047.834-2.047,2.047" style="fill:#e6413e;"/><path d="M383.6103,32.782c1.289,0,2.122-.758,2.122-1.971v-.076c0-1.213-.758-1.971-1.971-1.971-1.288,0-2.122.758-2.122,1.971s.758,2.047,1.971,2.047" style="fill:#e6413e;"/><path d="M383.7613,53.2206c-1.289,0-2.122.758-2.122,1.971s.757,2.047,1.971,2.047c1.288,0,2.122-.758,2.122-1.971v-.076c0-1.213-.758-1.971-1.971-1.971" style="fill:#e6413e;"/><path d="M385.7323,22.5854c0-1.213-.834-2.047-2.047-2.047-1.288,0-2.046.834-2.046,2.047,0,1.289.833,2.047,2.046,2.047,1.289,0,2.047-.834,2.047-2.047" style="fill:#e6413e;"/><path d="M377.5451,51.1359c0,1.289.833,2.047,2.047,2.047,1.288,0,2.047-.834,2.047-2.047s-.834-2.047-2.047-2.047c-1.289,0-2.047.834-2.047,2.047" style="fill:#e6413e;"/><path d="M381.6391,34.829c0-1.213-.834-2.047-2.047-2.047-1.289,0-2.047.834-2.047,2.047,0,1.289.834,2.047,2.047,2.047,1.288,0,2.047-.834,2.047-2.047" style="fill:#e6413e;"/><path d="M377.5451,42.9785c0,1.289.833,2.047,2.047,2.047,1.288,0,2.047-.834,2.047-2.047s-.834-2.047-2.047-2.047c-1.289,0-2.047.834-2.047,2.047" style="fill:#e6413e;"/><path d="M377.5451,47.042c0,1.289.833,2.047,2.047,2.047,1.288,0,2.047-.834,2.047-2.047s-.834-2.047-2.047-2.047c-1.289,0-2.047.834-2.047,2.047" style="fill:#e6413e;"/><path d="M379.5921,36.8378c-1.289,0-2.047.834-2.047,2.047,0,1.289.834,2.047,2.047,2.047,1.289,0,2.047-.834,2.047-2.047s-.834-2.047-2.047-2.047" style="fill:#e6413e;"/><path d="M381.6391,59.2549c0-1.213-.834-2.047-2.047-2.047-1.289,0-2.047.834-2.047,2.047,0,1.289.834,2.047,2.047,2.047,1.288,0,2.047-.834,2.047-2.047" style="fill:#e6413e;"/><path d="M377.5451,26.6792c0,1.289.833,2.047,2.047,2.047,1.288,0,2.047-.834,2.047-2.047s-.834-2.047-2.047-2.047c-1.289,0-2.047.834-2.047,2.047" style="fill:#e6413e;"/><path d="M379.5161,32.782c1.289,0,2.123-.758,2.123-1.971v-.076c0-1.213-.759-1.971-1.971-1.971-1.289,0-2.123.758-2.123,1.971s.758,2.047,1.971,2.047" style="fill:#e6413e;"/><path d="M379.6681,53.2206c-1.289,0-2.123.758-2.123,1.971s.758,2.047,1.971,2.047c1.289,0,2.123-.758,2.123-1.971v-.076c0-1.213-.758-1.971-1.971-1.971" style="fill:#e6413e;"/><path d="M373.4509,71.4986c0-1.213-.834-2.047-2.047-2.047-1.289,0-2.047.834-2.047,2.047,0,1.289.834,2.047,2.047,2.047,1.289,0,2.047-.834,2.047-2.047" style="fill:#e6413e;"/><path d="M373.4509,67.4048c0-1.213-.834-2.047-2.047-2.047-1.289,0-2.047.834-2.047,2.047,0,1.289.834,2.047,2.047,2.047,1.289,0,2.047-.834,2.047-2.047" style="fill:#e6413e;"/><path d="M373.4509,75.5924c0-1.213-.834-2.047-2.047-2.047-1.289,0-2.047.834-2.047,2.047,0,1.289.834,2.047,2.047,2.047,1.289,0,2.047-.834,2.047-2.047" style="fill:#e6413e;"/><path d="M373.4509,79.6862c0-1.213-.834-2.047-2.047-2.047-1.289,0-2.047.834-2.047,2.047,0,1.289.834,2.047,2.047,2.047,1.289,0,2.047-.834,2.047-2.047" style="fill:#e6413e;"/><path d="M373.4509,83.7693c0-1.213-.834-2.047-2.047-2.047-1.289,0-2.047.834-2.047,2.047,0,1.289.834,2.047,2.047,2.047,1.289,0,2.047-.834,2.047-2.047" style="fill:#e6413e;"/><path d="M373.4509,14.398c0-1.213-.834-2.047-2.047-2.047-1.289,0-2.047.834-2.047,2.047,0,1.289.834,2.047,2.047,2.047,1.289,0,2.047-.834,2.047-2.047" style="fill:#e6413e;"/><path d="M373.4509,18.4917c0-1.213-.834-2.047-2.047-2.047-1.289,0-2.047.834-2.047,2.047,0,1.289.834,2.047,2.047,2.047,1.289,0,2.047-.834,2.047-2.047" style="fill:#e6413e;"/><path d="M373.4509,10.3043c0-1.213-.834-2.047-2.047-2.047-1.289,0-2.047.834-2.047,2.047,0,1.289.834,2.047,2.047,2.047,1.289,0,2.047-.834,2.047-2.047" style="fill:#e6413e;"/><path d="M373.4509,6.2106c0-1.213-.834-2.047-2.047-2.047-1.289,0-2.047.834-2.047,2.047,0,1.289.834,2.047,2.047,2.047,1.289,0,2.047-.834,2.047-2.047" style="fill:#e6413e;"/><path d="M373.4509,2.047c0-1.213-.834-2.047-2.047-2.047-1.289,0-2.047.834-2.047,2.047,0,1.289.834,2.047,2.047,2.047,1.289,0,2.047-.834,2.047-2.047" style="fill:#e6413e;"/><path d="M369.3574,63.3109c0-1.213-.834-2.047-2.047-2.047-1.289,0-2.047.834-2.047,2.047,0,1.289.834,2.047,2.047,2.047,1.289,0,2.047-.834,2.047-2.047" style="fill:#e6413e;"/><path d="M369.3574,67.4048c0-1.213-.834-2.047-2.047-2.047-1.289,0-2.047.834-2.047,2.047,0,1.289.834,2.047,2.047,2.047,1.289,0,2.047-.834,2.047-2.047" style="fill:#e6413e;"/><path d="M369.3574,71.4986c0-1.213-.834-2.047-2.047-2.047-1.289,0-2.047.834-2.047,2.047,0,1.289.834,2.047,2.047,2.047,1.289,0,2.047-.834,2.047-2.047" style="fill:#e6413e;"/><path d="M369.3574,75.5924c0-1.213-.834-2.047-2.047-2.047-1.289,0-2.047.834-2.047,2.047,0,1.289.834,2.047,2.047,2.047,1.289,0,2.047-.834,2.047-2.047" style="fill:#e6413e;"/><path d="M369.3574,79.6862c0-1.213-.834-2.047-2.047-2.047-1.289,0-2.047.834-2.047,2.047,0,1.289.834,2.047,2.047,2.047,1.289,0,2.047-.834,2.047-2.047" style="fill:#e6413e;"/><path d="M367.3864,57.2459c-1.289,0-2.123.758-2.123,1.971s.758,2.047,1.971,2.047c1.289,0,2.123-.758,2.123-1.971v-.076c0-1.213-.758-1.971-1.971-1.971" style="fill:#e6413e;"/><path d="M369.3574,26.6792c0-1.213-.834-2.047-2.047-2.047-1.289,0-2.047.834-2.047,2.047,0,1.289.834,2.047,2.047,2.047,1.289,0,2.047-.834,2.047-2.047" style="fill:#e6413e;"/><path d="M369.3574,30.773c0-1.213-.834-2.047-2.047-2.047-1.289,0-2.047.834-2.047,2.047,0,1.289.834,2.047,2.047,2.047,1.289,0,2.047-.834,2.047-2.047" style="fill:#e6413e;"/><path d="M369.3574,34.829c0-1.213-.834-2.047-2.047-2.047-1.289,0-2.047.834-2.047,2.047,0,1.289.834,2.047,2.047,2.047,1.289,0,2.047-.834,2.047-2.047" style="fill:#e6413e;"/><path d="M369.3574,38.8848c0-1.213-.834-2.047-2.047-2.047-1.289,0-2.047.834-2.047,2.047,0,1.289.834,2.047,2.047,2.047,1.289,0,2.047-.834,2.047-2.047" style="fill:#e6413e;"/><path d="M369.3574,22.5854c0-1.213-.834-2.047-2.047-2.047-1.289,0-2.047.834-2.047,2.047,0,1.289.834,2.047,2.047,2.047,1.289,0,2.047-.834,2.047-2.047" style="fill:#e6413e;"/><path d="M369.3574,18.4917c0-1.213-.834-2.047-2.047-2.047-1.289,0-2.047.834-2.047,2.047,0,1.289.834,2.047,2.047,2.047,1.289,0,2.047-.834,2.047-2.047" style="fill:#e6413e;"/><path d="M369.3574,14.398c0-1.213-.834-2.047-2.047-2.047-1.289,0-2.047.834-2.047,2.047,0,1.289.834,2.047,2.047,2.047,1.289,0,2.047-.834,2.047-2.047" style="fill:#e6413e;"/><path d="M369.3574,10.3043c0-1.213-.834-2.047-2.047-2.047-1.289,0-2.047.834-2.047,2.047,0,1.289.834,2.047,2.047,2.047,1.289,0,2.047-.834,2.047-2.047" style="fill:#e6413e;"/><path d="M369.3574,6.2106c0-1.213-.834-2.047-2.047-2.047-1.289,0-2.047.834-2.047,2.047,0,1.289.834,2.047,2.047,2.047,1.289,0,2.047-.834,2.047-2.047" style="fill:#e6413e;"/><path d="M361.1695,55.2296c0,1.289.834,2.047,2.047,2.047,1.289,0,2.047-.834,2.047-2.047s-.834-2.047-2.047-2.047c-1.289,0-2.047.834-2.047,2.047" style="fill:#e6413e;"/><path d="M365.2634,38.8848c0-1.213-.833-2.047-2.047-2.047-1.288,0-2.047.834-2.047,2.047,0,1.289.834,2.047,2.047,2.047,1.289,0,2.047-.834,2.047-2.047" style="fill:#e6413e;"/><path d="M361.1695,47.042c0,1.289.834,2.047,2.047,2.047,1.289,0,2.047-.834,2.047-2.047s-.834-2.047-2.047-2.047c-1.289,0-2.047.834-2.047,2.047" style="fill:#e6413e;"/><path d="M361.1695,51.1359c0,1.289.834,2.047,2.047,2.047,1.289,0,2.047-.834,2.047-2.047s-.834-2.047-2.047-2.047c-1.289,0-2.047.834-2.047,2.047" style="fill:#e6413e;"/><path d="M363.2164,40.9315c-1.289,0-2.047.834-2.047,2.047,0,1.289.834,2.047,2.047,2.047,1.289,0,2.047-.834,2.047-2.047s-.834-2.047-2.047-2.047" style="fill:#e6413e;"/><path d="M365.2634,63.3109c0-1.213-.833-2.047-2.047-2.047-1.288,0-2.047.834-2.047,2.047,0,1.289.834,2.047,2.047,2.047,1.289,0,2.047-.834,2.047-2.047" style="fill:#e6413e;"/><path d="M365.2634,67.4048c0-1.213-.833-2.047-2.047-2.047-1.288,0-2.047.834-2.047,2.047,0,1.289.834,2.047,2.047,2.047,1.289,0,2.047-.834,2.047-2.047" style="fill:#e6413e;"/><path d="M365.2634,71.4986c0-1.213-.833-2.047-2.047-2.047-1.288,0-2.047.834-2.047,2.047,0,1.289.834,2.047,2.047,2.047,1.289,0,2.047-.834,2.047-2.047" style="fill:#e6413e;"/><path d="M365.2634,75.5924c0-1.213-.833-2.047-2.047-2.047-1.288,0-2.047.834-2.047,2.047,0,1.289.834,2.047,2.047,2.047,1.289,0,2.047-.834,2.047-2.047" style="fill:#e6413e;"/><path d="M361.1695,30.773c0,1.289.834,2.047,2.047,2.047,1.289,0,2.047-.834,2.047-2.047s-.834-2.047-2.047-2.047c-1.289,0-2.047.834-2.047,2.047" style="fill:#e6413e;"/><path d="M363.1405,36.838c1.289,0,2.123-.758,2.123-1.971v-.076c0-1.213-.758-1.971-1.971-1.971-1.289,0-2.123.758-2.123,1.971s.758,2.047,1.971,2.047" style="fill:#e6413e;"/><path d="M363.2924,57.2459c-1.289,0-2.123.758-2.123,1.971s.758,2.047,1.971,2.047c1.289,0,2.123-.758,2.123-1.971v-.076c0-1.213-.758-1.971-1.971-1.971" style="fill:#e6413e;"/><path d="M365.2634,26.6792c0-1.213-.833-2.047-2.047-2.047-1.288,0-2.047.834-2.047,2.047,0,1.289.834,2.047,2.047,2.047,1.289,0,2.047-.834,2.047-2.047" style="fill:#e6413e;"/><path d="M365.2634,22.5854c0-1.213-.833-2.047-2.047-2.047-1.288,0-2.047.834-2.047,2.047,0,1.289.834,2.047,2.047,2.047,1.289,0,2.047-.834,2.047-2.047" style="fill:#e6413e;"/><path d="M365.2634,18.4917c0-1.213-.833-2.047-2.047-2.047-1.288,0-2.047.834-2.047,2.047,0,1.289.834,2.047,2.047,2.047,1.289,0,2.047-.834,2.047-2.047" style="fill:#e6413e;"/><path d="M365.2634,14.398c0-1.213-.833-2.047-2.047-2.047-1.288,0-2.047.834-2.047,2.047,0,1.289.834,2.047,2.047,2.047,1.289,0,2.047-.834,2.047-2.047" style="fill:#e6413e;"/><path d="M365.2634,10.3043c0-1.213-.833-2.047-2.047-2.047-1.288,0-2.047.834-2.047,2.047,0,1.289.834,2.047,2.047,2.047,1.289,0,2.047-.834,2.047-2.047" style="fill:#e6413e;"/><path d="M357.0759,55.2296c0,1.289.834,2.047,2.047,2.047,1.288,0,2.047-.834,2.047-2.047s-.834-2.047-2.047-2.047c-1.289,0-2.047.834-2.047,2.047" style="fill:#e6413e;"/><path d="M361.1699,38.8848c0-1.213-.834-2.047-2.047-2.047-1.289,0-2.047.834-2.047,2.047,0,1.289.834,2.047,2.047,2.047,1.289,0,2.047-.834,2.047-2.047" style="fill:#e6413e;"/><path d="M357.0759,47.042c0,1.289.834,2.047,2.047,2.047,1.288,0,2.047-.834,2.047-2.047s-.834-2.047-2.047-2.047c-1.289,0-2.047.834-2.047,2.047" style="fill:#e6413e;"/><path d="M357.0759,51.1359c0,1.289.834,2.047,2.047,2.047,1.288,0,2.047-.834,2.047-2.047s-.834-2.047-2.047-2.047c-1.289,0-2.047.834-2.047,2.047" style="fill:#e6413e;"/><path d="M361.1699,63.3109c0-1.213-.834-2.047-2.047-2.047-1.289,0-2.047.834-2.047,2.047,0,1.289.834,2.047,2.047,2.047,1.289,0,2.047-.834,2.047-2.047" style="fill:#e6413e;"/><path d="M361.1699,67.4048c0-1.213-.834-2.047-2.047-2.047-1.289,0-2.047.834-2.047,2.047,0,1.289.834,2.047,2.047,2.047,1.289,0,2.047-.834,2.047-2.047" style="fill:#e6413e;"/><path d="M361.1699,71.4986c0-1.213-.834-2.047-2.047-2.047-1.289,0-2.047.834-2.047,2.047,0,1.289.834,2.047,2.047,2.047,1.289,0,2.047-.834,2.047-2.047" style="fill:#e6413e;"/><path d="M357.0759,30.773c0,1.289.834,2.047,2.047,2.047,1.288,0,2.047-.834,2.047-2.047s-.834-2.047-2.047-2.047c-1.289,0-2.047.834-2.047,2.047" style="fill:#e6413e;"/><path d="M359.047,36.838c1.289,0,2.123-.758,2.123-1.971v-.076c0-1.213-.758-1.971-1.971-1.971-1.289,0-2.123.758-2.123,1.971s.758,2.047,1.971,2.047" style="fill:#e6413e;"/><path d="M359.1989,57.2459c-1.289,0-2.123.758-2.123,1.971s.758,2.047,1.971,2.047c1.289,0,2.123-.758,2.123-1.971v-.076c0-1.213-.758-1.971-1.971-1.971" style="fill:#e6413e;"/><path d="M361.1699,26.6792c0-1.213-.834-2.047-2.047-2.047-1.289,0-2.047.834-2.047,2.047,0,1.289.834,2.047,2.047,2.047,1.289,0,2.047-.834,2.047-2.047" style="fill:#e6413e;"/><path d="M361.1699,22.5854c0-1.213-.834-2.047-2.047-2.047-1.289,0-2.047.834-2.047,2.047,0,1.289.834,2.047,2.047,2.047,1.289,0,2.047-.834,2.047-2.047" style="fill:#e6413e;"/><path d="M361.1699,18.4917c0-1.213-.834-2.047-2.047-2.047-1.289,0-2.047.834-2.047,2.047,0,1.289.834,2.047,2.047,2.047,1.289,0,2.047-.834,2.047-2.047" style="fill:#e6413e;"/><path d="M361.1699,14.398c0-1.213-.834-2.047-2.047-2.047-1.289,0-2.047.834-2.047,2.047,0,1.289.834,2.047,2.047,2.047,1.289,0,2.047-.834,2.047-2.047" style="fill:#e6413e;"/><path d="M361.1699,10.3043c0-1.213-.834-2.047-2.047-2.047-1.289,0-2.047.834-2.047,2.047,0,1.289.834,2.047,2.047,2.047,1.289,0,2.047-.834,2.047-2.047" style="fill:#e6413e;"/><path d="M352.9824,55.2296c0,1.289.834,2.047,2.047,2.047,1.288,0,2.047-.834,2.047-2.047s-.834-2.047-2.047-2.047c-1.289,0-2.047.834-2.047,2.047" style="fill:#e6413e;"/><path d="M352.9824,51.1359c0,1.289.834,2.047,2.047,2.047,1.288,0,2.047-.834,2.047-2.047s-.834-2.047-2.047-2.047c-1.289,0-2.047.834-2.047,2.047" style="fill:#e6413e;"/><path d="M357.0764,63.3109c0-1.213-.834-2.047-2.047-2.047-1.289,0-2.047.834-2.047,2.047,0,1.289.834,2.047,2.047,2.047,1.289,0,2.047-.834,2.047-2.047" style="fill:#e6413e;"/><path d="M357.0764,67.4048c0-1.213-.834-2.047-2.047-2.047-1.289,0-2.047.834-2.047,2.047,0,1.289.834,2.047,2.047,2.047,1.289,0,2.047-.834,2.047-2.047" style="fill:#e6413e;"/><path d="M352.9824,30.773c0,1.289.834,2.047,2.047,2.047,1.288,0,2.047-.834,2.047-2.047s-.834-2.047-2.047-2.047c-1.289,0-2.047.834-2.047,2.047" style="fill:#e6413e;"/><path d="M354.9534,36.838c1.289,0,2.123-.758,2.123-1.971v-.076c0-1.213-.758-1.971-1.971-1.971-1.289,0-2.123.758-2.123,1.971s.758,2.047,1.971,2.047" style="fill:#e6413e;"/><path d="M355.1054,57.2459c-1.289,0-2.123.758-2.123,1.971s.758,2.047,1.971,2.047c1.289,0,2.123-.758,2.123-1.971v-.076c0-1.213-.758-1.971-1.971-1.971" style="fill:#e6413e;"/><path d="M357.0764,26.6792c0-1.213-.834-2.047-2.047-2.047-1.289,0-2.047.834-2.047,2.047,0,1.289.834,2.047,2.047,2.047,1.289,0,2.047-.834,2.047-2.047" style="fill:#e6413e;"/><path d="M357.0764,22.5854c0-1.213-.834-2.047-2.047-2.047-1.289,0-2.047.834-2.047,2.047,0,1.289.834,2.047,2.047,2.047,1.289,0,2.047-.834,2.047-2.047" style="fill:#e6413e;"/><path d="M357.0764,18.4917c0-1.213-.834-2.047-2.047-2.047-1.289,0-2.047.834-2.047,2.047,0,1.289.834,2.047,2.047,2.047,1.289,0,2.047-.834,2.047-2.047" style="fill:#e6413e;"/><path d="M357.0764,14.398c0-1.213-.834-2.047-2.047-2.047-1.289,0-2.047.834-2.047,2.047,0,1.289.834,2.047,2.047,2.047,1.289,0,2.047-.834,2.047-2.047" style="fill:#e6413e;"/><path d="M352.9831,63.3109c0-1.213-.833-2.047-2.047-2.047-1.288,0-2.047.834-2.047,2.047,0,1.289.834,2.047,2.047,2.047,1.289,0,2.047-.834,2.047-2.047" style="fill:#e6413e;"/><path d="M348.8891,30.773c0,1.289.834,2.047,2.046,2.047,1.289,0,2.048-.834,2.048-2.047s-.834-2.047-2.048-2.047c-1.288,0-2.046.834-2.046,2.047" style="fill:#e6413e;"/><path d="M351.0121,57.2459c-1.289,0-2.123.758-2.123,1.971s.758,2.047,1.971,2.047c1.289,0,2.123-.758,2.123-1.971v-.076c0-1.213-.758-1.971-1.971-1.971" style="fill:#e6413e;"/><path d="M351.0121,53.2206c-1.289,0-2.123.758-2.123,1.971s.758,2.047,1.971,2.047c1.289,0,2.123-.758,2.123-1.971v-.076c0-1.213-.758-1.971-1.971-1.971" style="fill:#e6413e;"/><path d="M352.9831,26.6792c0-1.213-.833-2.047-2.047-2.047-1.288,0-2.047.834-2.047,2.047,0,1.289.834,2.047,2.047,2.047,1.289,0,2.047-.834,2.047-2.047" style="fill:#e6413e;"/><path d="M352.9831,22.5854c0-1.213-.833-2.047-2.047-2.047-1.288,0-2.047.834-2.047,2.047,0,1.289.834,2.047,2.047,2.047,1.289,0,2.047-.834,2.047-2.047" style="fill:#e6413e;"/><path d="M344.7954,55.2296c0,1.289.834,2.047,2.047,2.047,1.288,0,2.047-.834,2.047-2.047s-.834-2.047-2.047-2.047c-1.289,0-2.047.834-2.047,2.047" style="fill:#e6413e;"/><path d="M344.7954,30.773c0,1.289.834,2.047,2.047,2.047,1.288,0,2.047-.834,2.047-2.047s-.834-2.047-2.047-2.047c-1.289,0-2.047.834-2.047,2.047" style="fill:#e6413e;"/><path d="M346.9184,57.2459c-1.289,0-2.123.758-2.123,1.971s.758,2.047,1.971,2.047c1.289,0,2.123-.758,2.123-1.971v-.076c0-1.213-.758-1.971-1.971-1.971" style="fill:#e6413e;"/><path d="M348.8894,26.6792c0-1.213-.834-2.047-2.047-2.047-1.289,0-2.047.834-2.047,2.047,0,1.289.834,2.047,2.047,2.047,1.289,0,2.047-.834,2.047-2.047" style="fill:#e6413e;"/><path d="M348.8894,22.5854c0-1.213-.834-2.047-2.047-2.047-1.289,0-2.047.834-2.047,2.047,0,1.289.834,2.047,2.047,2.047,1.289,0,2.047-.834,2.047-2.047" style="fill:#e6413e;"/><path d="M344.7959,26.6792c0-1.213-.834-2.047-2.047-2.047-1.289,0-2.047.834-2.047,2.047,0,1.289.834,2.047,2.047,2.047,1.289,0,2.047-.834,2.047-2.047" style="fill:#e6413e;"/><path d="M352.9831,18.4917c0-1.213-.834-2.047-2.047-2.047-1.289,0-2.047.834-2.047,2.047,0,1.289.834,2.047,2.047,2.047,1.289,0,2.047-.834,2.047-2.047" style="fill:#e6413e;"/><path d="M340.7019,55.2296c0,1.289.834,2.047,2.047,2.047,1.288,0,2.047-.834,2.047-2.047s-.834-2.047-2.047-2.047c-1.289,0-2.047.834-2.047,2.047" style="fill:#e6413e;"/><path d="M361.1699,75.5924c0-1.213-.834-2.047-2.047-2.047-1.289,0-2.047.834-2.047,2.047,0,1.289.834,2.047,2.047,2.047,1.289,0,2.047-.834,2.047-2.047" style="fill:#e6413e;"/><path d="M357.0764,71.4986c0-1.213-.834-2.047-2.047-2.047-1.289,0-2.047.834-2.047,2.047,0,1.289.834,2.047,2.047,2.047,1.289,0,2.047-.834,2.047-2.047" style="fill:#e6413e;"/><path d="M352.9831,67.4048c0-1.213-.833-2.047-2.047-2.047-1.288,0-2.047.834-2.047,2.047,0,1.289.834,2.047,2.047,2.047,1.289,0,2.047-.834,2.047-2.047" style="fill:#e6413e;"/><path d="M346.9184,61.3019c-1.289,0-2.123.758-2.123,1.971s.758,2.047,1.971,2.047c1.289,0,2.123-.758,2.123-1.971v-.076c0-1.213-.758-1.971-1.971-1.971" style="fill:#e6413e;"/><path d="M340.7019,59.2549c0,1.289.834,2.047,2.047,2.047,1.288,0,2.047-.834,2.047-2.047s-.834-2.047-2.047-2.047c-1.289,0-2.047.834-2.047,2.047" style="fill:#e6413e;"/><path d="M340.7019,51.1359c0,1.289.834,2.047,2.047,2.047,1.288,0,2.047-.834,2.047-2.047s-.834-2.047-2.047-2.047c-1.289,0-2.047.834-2.047,2.047" style="fill:#e6413e;"/><path d="M340.7019,30.773c0,1.289.834,2.047,2.047,2.047,1.288,0,2.047-.834,2.047-2.047s-.834-2.047-2.047-2.047c-1.289,0-2.047.834-2.047,2.047" style="fill:#e6413e;"/><path d="M342.6729,36.838c1.289,0,2.123-.758,2.123-1.971v-.076c0-1.213-.759-1.971-1.971-1.971-1.289,0-2.123.758-2.123,1.971s.758,2.047,1.971,2.047" style="fill:#e6413e;"/><path d="M340.7019,38.8848c0-1.213-.834-2.047-2.047-2.047-1.289,0-2.047.834-2.047,2.047,0,1.289.834,2.047,2.047,2.047,1.289,0,2.047-.834,2.047-2.047" style="fill:#e6413e;"/><path d="M336.6079,47.042c0,1.289.834,2.047,2.047,2.047,1.289,0,2.047-.834,2.047-2.047s-.834-2.047-2.047-2.047c-1.289,0-2.047.834-2.047,2.047" style="fill:#e6413e;"/><path d="M336.6079,51.1359c0,1.289.834,2.047,2.047,2.047,1.289,0,2.047-.834,2.047-2.047s-.834-2.047-2.047-2.047c-1.289,0-2.047.834-2.047,2.047" style="fill:#e6413e;"/><path d="M338.5789,36.838c1.289,0,2.123-.758,2.123-1.971v-.076c0-1.213-.758-1.971-1.971-1.971-1.289,0-2.123.758-2.123,1.971s.758,2.047,1.971,2.047" style="fill:#e6413e;"/><path d="M336.6081,38.8848c0-1.213-.834-2.047-2.047-2.047-1.289,0-2.047.834-2.047,2.047,0,1.289.834,2.047,2.047,2.047,1.289,0,2.047-.834,2.047-2.047" style="fill:#e6413e;"/><path d="M332.5141,47.042c0,1.289.834,2.047,2.047,2.047,1.288,0,2.047-.834,2.047-2.047s-.834-2.047-2.047-2.047c-1.289,0-2.047.834-2.047,2.047" style="fill:#e6413e;"/><path d="M334.5611,40.9315c-1.289,0-2.047.834-2.047,2.047,0,1.289.834,2.047,2.047,2.047,1.289,0,2.047-.834,2.047-2.047s-.834-2.047-2.047-2.047" style="fill:#e6413e;"/><path d="M338.6549,40.9315c-1.289,0-2.047.834-2.047,2.047,0,1.289.834,2.047,2.047,2.047,1.289,0,2.047-.834,2.047-2.047s-.834-2.047-2.047-2.047" style="fill:#e6413e;"/><path d="M350.9361,38.862c-1.289,0-2.047.834-2.047,2.047,0,1.289.834,2.047,2.047,2.047,1.289,0,2.047-.834,2.047-2.047s-.834-2.047-2.047-2.047" style="fill:#e6413e;"/><path d="M346.8424,42.9179c-1.289,0-2.047.834-2.047,2.047,0,1.289.834,2.047,2.047,2.047,1.289,0,2.047-.834,2.047-2.047s-.834-2.047-2.047-2.047" style="fill:#e6413e;"/><path d="M350.9361,42.9179c-1.289,0-2.047.834-2.047,2.047,0,1.289.834,2.047,2.047,2.047,1.289,0,2.047-.834,2.047-2.047s-.834-2.047-2.047-2.047" style="fill:#e6413e;"/><path d="M346.8424,38.8431c-1.289,0-2.047.834-2.047,2.047,0,1.289.834,2.047,2.047,2.047,1.289,0,2.047-.834,2.047-2.047s-.834-2.047-2.047-2.047" style="fill:#e6413e;"/><path d="M330.4675,40.9315c-1.289,0-2.046.834-2.046,2.047,0,1.289.833,2.047,2.046,2.047,1.289,0,2.047-.834,2.047-2.047s-.834-2.047-2.047-2.047" style="fill:#e6413e;"/><path d="M373.4513,51.1359c0,1.289.834,2.047,2.047,2.047,1.288,0,2.047-.834,2.047-2.047s-.834-2.047-2.047-2.047c-1.289,0-2.047.834-2.047,2.047" style="fill:#e6413e;"/><path d="M377.5454,34.829c0-1.213-.834-2.047-2.047-2.047-1.289,0-2.047.834-2.047,2.047,0,1.289.834,2.047,2.047,2.047,1.289,0,2.047-.834,2.047-2.047" style="fill:#e6413e;"/><path d="M373.4513,42.9785c0,1.289.834,2.047,2.047,2.047,1.288,0,2.047-.834,2.047-2.047s-.834-2.047-2.047-2.047c-1.289,0-2.047.834-2.047,2.047" style="fill:#e6413e;"/><path d="M373.4513,47.042c0,1.289.834,2.047,2.047,2.047,1.288,0,2.047-.834,2.047-2.047s-.834-2.047-2.047-2.047c-1.289,0-2.047.834-2.047,2.047" style="fill:#e6413e;"/><path d="M375.4984,36.8378c-1.289,0-2.047.834-2.047,2.047,0,1.289.834,2.047,2.047,2.047,1.289,0,2.047-.834,2.047-2.047s-.834-2.047-2.047-2.047" style="fill:#e6413e;"/><path d="M369.3569,42.9785c0,1.289.834,2.047,2.047,2.047,1.288,0,2.047-.834,2.047-2.047s-.834-2.047-2.047-2.047c-1.289,0-2.047.834-2.047,2.047" style="fill:#e6413e;"/><path d="M369.3569,47.042c0,1.289.834,2.047,2.047,2.047,1.288,0,2.047-.834,2.047-2.047s-.834-2.047-2.047-2.047c-1.289,0-2.047.834-2.047,2.047" style="fill:#e6413e;"/><path d="M371.4039,36.8378c-1.289,0-2.047.834-2.047,2.047,0,1.289.834,2.047,2.047,2.047,1.289,0,2.047-.834,2.047-2.047s-.834-2.047-2.047-2.047" style="fill:#e6413e;"/><path d="M365.2634,42.9785c0,1.289.834,2.047,2.047,2.047,1.288,0,2.047-.834,2.047-2.047s-.834-2.047-2.047-2.047c-1.289,0-2.047.834-2.047,2.047" style="fill:#e6413e;"/><path d="M365.2634,47.042c0,1.289.834,2.047,2.047,2.047,1.288,0,2.047-.834,2.047-2.047s-.834-2.047-2.047-2.047c-1.289,0-2.047.834-2.047,2.047" style="fill:#e6413e;"/><path d="M365.2634,51.1359c0,1.289.834,2.047,2.047,2.047,1.288,0,2.047-.834,2.047-2.047s-.834-2.047-2.047-2.047c-1.289,0-2.047.834-2.047,2.047" style="fill:#e6413e;"/><path d="M365.2634,55.2296c0,1.289.834,2.047,2.047,2.047,1.288,0,2.047-.834,2.047-2.047s-.834-2.047-2.047-2.047c-1.289,0-2.047.834-2.047,2.047" style="fill:#e6413e;"/></g></g></svg>
