<?xml version="1.0" encoding="UTF-8" ?>
<!DOCTYPE svg PUBLIC "-//W3C//DTD SVG 1.1//EN" "http://www.w3.org/Graphics/SVG/1.1/DTD/svg11.dtd">
<svg width="1200pt" height="895pt" viewBox="0 0 1200 895" version="1.1" xmlns="http://www.w3.org/2000/svg">
<g id="#ffffffff">
</g>
<g id="#d13c36ff">
<path fill="#d13c36" opacity="1.00" d=" M 412.54 40.86 C 419.10 39.42 426.31 42.27 429.91 47.98 C 433.95 54.10 433.45 63.00 428.45 68.44 C 424.81 72.31 419.36 74.61 414.03 73.90 C 406.91 73.11 400.41 67.30 399.70 60.03 C 398.24 51.59 404.05 42.54 412.54 40.86 Z" />
<path fill="#d13c36" opacity="1.00" d=" M 446.45 40.73 C 450.00 40.27 453.78 40.47 456.99 42.23 C 464.87 46.06 468.68 56.75 464.46 64.55 C 460.42 73.23 448.51 76.72 440.51 71.37 C 433.83 67.34 431.05 58.35 433.92 51.16 C 435.85 45.79 440.77 41.58 446.45 40.73 Z" />
<path fill="#d13c36" opacity="1.00" d=" M 479.59 40.88 C 489.71 38.49 500.60 47.53 499.66 57.96 C 500.03 68.14 488.72 76.32 479.10 73.52 C 471.69 71.95 465.95 64.63 466.48 57.02 C 466.33 49.47 472.18 42.30 479.59 40.88 Z" />
<path fill="#d13c36" opacity="1.00" d=" M 513.48 40.73 C 517.04 40.21 520.80 40.50 524.04 42.16 C 531.06 45.57 534.88 54.35 532.66 61.81 C 530.81 69.04 523.44 74.36 515.99 73.83 C 506.21 74.11 498.01 63.92 500.06 54.43 C 501.20 47.71 506.66 41.79 513.48 40.73 Z" />
<path fill="#d13c36" opacity="1.00" d=" M 546.47 40.85 C 555.39 38.74 565.11 45.06 566.61 54.13 C 568.62 62.97 562.04 72.53 553.06 73.73 C 543.50 75.87 533.52 67.65 533.53 57.93 C 532.78 50.02 538.79 42.45 546.47 40.85 Z" />
<path fill="#d13c36" opacity="1.00" d=" M 580.46 40.81 C 589.68 38.78 599.31 45.79 600.41 55.09 C 601.24 61.29 598.22 67.70 593.05 71.17 C 588.89 74.26 583.26 74.38 578.40 73.26 C 570.61 70.81 565.76 62.11 567.35 54.16 C 568.43 47.56 573.83 41.93 580.46 40.81 Z" />
<path fill="#d13c36" opacity="1.00" d=" M 613.48 40.90 C 618.43 39.96 623.96 40.83 627.92 44.10 C 633.90 48.82 635.98 57.81 632.40 64.59 C 628.60 72.49 618.31 76.20 610.36 72.47 C 601.79 68.92 598.39 57.63 602.46 49.56 C 604.61 45.22 608.72 41.90 613.48 40.90 Z" />
<path fill="#d13c36" opacity="1.00" d=" M 647.52 40.90 C 657.76 38.31 668.38 47.60 667.50 58.02 C 667.63 67.07 658.94 74.68 650.04 73.90 C 641.58 73.97 634.33 66.26 634.32 57.91 C 633.75 50.01 639.83 42.45 647.52 40.90 Z" />
<path fill="#d13c36" opacity="1.00" d=" M 713.69 75.16 C 724.43 72.07 735.66 82.09 734.31 93.06 C 733.84 103.67 721.59 111.13 711.90 107.13 C 702.29 103.87 698.37 90.95 703.71 82.57 C 706.01 79.04 709.50 76.10 713.69 75.16 Z" />
<path fill="#d13c36" opacity="1.00" d=" M 343.42 75.63 C 353.34 71.61 365.39 79.47 365.74 90.12 C 366.84 99.92 357.69 108.93 348.01 108.33 C 341.50 107.62 335.24 103.29 333.33 96.87 C 330.38 88.50 335.05 78.58 343.42 75.63 Z" />
<path fill="#d13c36" opacity="1.00" d=" M 376.57 75.83 C 385.32 72.16 396.23 77.69 398.55 86.85 C 401.32 95.43 395.59 105.38 386.93 107.58 C 380.12 109.59 371.90 106.79 368.45 100.42 C 363.21 91.89 366.91 79.27 376.57 75.83 Z" />
<path fill="#d13c36" opacity="1.00" d=" M 412.11 74.95 C 422.06 72.22 432.56 80.87 432.63 90.98 C 433.34 101.16 422.94 110.18 412.96 107.96 C 404.41 106.56 398.08 97.65 399.50 89.10 C 400.27 82.38 405.49 76.46 412.11 74.95 Z" />
<path fill="#d13c36" opacity="1.00" d=" M 444.40 75.44 C 454.31 71.60 466.59 80.29 465.89 91.01 C 466.53 98.51 461.17 105.76 453.91 107.57 C 446.37 109.93 437.58 105.79 434.40 98.59 C 430.21 89.89 434.99 78.19 444.40 75.44 Z" />
<path fill="#d13c36" opacity="1.00" d=" M 602.71 83.36 C 606.53 76.01 616.43 72.40 624.00 75.97 C 631.41 78.94 636.11 88.01 633.27 95.67 C 633.59 95.56 634.23 95.34 634.55 95.24 C 634.35 91.87 634.01 88.33 635.33 85.13 C 637.65 79.21 643.60 74.95 649.94 74.57 C 658.67 73.81 667.34 81.28 667.54 90.10 C 668.46 98.64 661.65 107.27 653.05 108.07 C 645.42 109.32 637.16 104.34 635.30 96.72 C 634.45 96.83 633.62 96.94 632.80 97.06 C 630.87 106.32 619.22 110.60 611.02 106.93 C 602.06 103.48 598.02 91.67 602.71 83.36 Z" />
<path fill="#d13c36" opacity="1.00" d=" M 680.23 75.23 C 688.75 72.74 698.59 78.38 700.54 87.07 C 703.28 96.14 696.54 106.84 687.07 108.02 C 679.01 109.49 670.43 104.18 668.46 96.16 C 665.49 87.46 671.37 77.35 680.23 75.23 Z" />
<path fill="#d13c36" opacity="1.00" d=" M 276.52 109.86 C 282.30 108.40 289.13 109.09 293.49 113.54 C 299.84 119.37 300.24 130.07 294.65 136.55 C 288.60 144.35 275.45 144.32 269.36 136.56 C 261.79 128.30 265.80 113.21 276.52 109.86 Z" />
<path fill="#d13c36" opacity="1.00" d=" M 310.41 109.72 C 315.28 108.74 320.91 108.70 325.03 111.87 C 331.52 116.39 334.31 125.75 330.54 132.87 C 326.87 141.68 314.86 145.04 306.96 139.88 C 299.74 135.69 296.70 125.75 300.40 118.26 C 302.42 114.26 306.13 111.06 310.41 109.72 Z" />
<path fill="#d13c36" opacity="1.00" d=" M 347.17 109.13 C 356.80 107.57 366.45 116.11 365.55 125.95 C 366.04 134.89 357.83 142.65 349.00 142.27 C 340.26 142.50 332.31 134.76 332.45 125.99 C 331.84 117.65 338.79 109.58 347.17 109.13 Z" />
<path fill="#d13c36" opacity="1.00" d=" M 713.42 109.54 C 723.98 105.90 735.92 115.98 734.27 126.99 C 733.78 137.21 722.77 144.80 713.03 141.64 C 702.71 139.28 698.29 126.08 703.28 117.29 C 705.57 113.60 709.09 110.48 713.42 109.54 Z" />
<path fill="#d13c36" opacity="1.00" d=" M 746.46 109.71 C 751.56 108.66 757.42 109.02 761.54 112.57 C 768.75 118.12 769.82 129.90 763.72 136.66 C 757.60 144.31 744.46 144.43 738.46 136.57 C 731.05 128.03 735.21 112.49 746.46 109.71 Z" />
<path fill="#d13c36" opacity="1.00" d=" M 244.47 143.72 C 250.18 142.32 256.71 143.89 260.62 148.41 C 267.80 156.00 265.69 170.48 255.88 174.84 C 246.99 179.57 234.48 174.01 232.30 164.13 C 229.92 155.49 235.68 145.67 244.47 143.72 Z" />
<path fill="#d13c36" opacity="1.00" d=" M 780.44 143.69 C 790.22 140.88 801.10 148.82 801.24 159.01 C 802.13 168.88 792.71 177.47 783.04 176.59 C 777.38 175.75 771.78 172.34 769.53 166.90 C 765.50 157.94 770.42 145.76 780.44 143.69 Z" />
<path fill="#d13c36" opacity="1.00" d=" M 275.34 144.47 C 285.02 139.85 297.82 147.22 298.44 157.96 C 299.34 165.54 294.51 173.48 287.11 175.66 C 279.57 178.32 270.13 174.73 266.98 167.21 C 262.74 158.97 266.51 147.77 275.34 144.47 Z" />
<path fill="#d13c36" opacity="1.00" d=" M 744.36 144.49 C 750.94 141.71 759.53 143.17 763.99 149.04 C 769.96 156.02 768.69 167.96 761.11 173.27 C 754.91 177.83 745.50 177.57 739.89 172.18 C 734.09 166.99 732.74 157.58 736.91 151.00 C 738.59 148.08 741.31 145.88 744.36 144.49 Z" />
<path fill="#d13c36" opacity="1.00" d=" M 210.45 177.76 C 217.15 175.98 224.90 178.58 228.61 184.56 C 234.23 192.36 231.26 204.37 222.73 208.73 C 214.06 213.73 201.80 208.63 199.02 199.08 C 195.90 190.34 201.39 179.92 210.45 177.76 Z" />
<path fill="#d13c36" opacity="1.00" d=" M 246.36 177.28 C 257.10 175.48 267.39 186.47 264.81 197.05 C 263.46 205.25 255.25 211.64 246.93 210.47 C 237.52 209.90 230.21 200.30 231.99 191.07 C 232.90 183.86 239.25 178.09 246.36 177.28 Z" />
<path fill="#d13c36" opacity="1.00" d=" M 813.46 177.81 C 823.29 174.74 834.91 182.41 834.84 192.93 C 836.10 204.09 823.49 213.67 813.08 209.77 C 806.36 207.73 801.29 201.04 801.54 193.96 C 801.38 186.73 806.32 179.58 813.46 177.81 Z" />
<path fill="#d13c36" opacity="1.00" d=" M 778.28 178.27 C 787.68 174.21 799.73 180.85 800.88 191.13 C 802.91 200.66 794.82 210.84 784.97 210.51 C 776.40 211.04 768.10 203.68 768.19 194.97 C 767.42 187.94 771.74 180.89 778.28 178.27 Z" />
<path fill="#d13c36" opacity="1.00" d=" M 816.31 211.31 C 823.40 210.52 831.00 214.62 833.56 221.43 C 836.06 227.40 835.00 234.73 830.40 239.40 C 823.41 247.48 808.80 245.87 803.77 236.40 C 797.67 226.64 804.48 211.85 816.31 211.31 Z" />
<path fill="#d13c36" opacity="1.00" d=" M 848.40 211.48 C 857.66 209.40 867.52 216.44 868.34 225.92 C 869.60 234.03 863.73 242.04 855.92 244.01 C 846.69 246.89 835.83 239.63 835.31 229.90 C 833.98 221.53 839.95 212.80 848.40 211.48 Z" />
<path fill="#d13c36" opacity="1.00" d=" M 203.00 216.02 C 209.45 209.49 221.34 209.55 227.36 216.65 C 233.62 223.31 232.82 234.94 225.69 240.67 C 222.02 243.59 216.50 246.04 212.05 243.65 C 212.06 244.54 212.06 245.43 212.06 246.32 C 221.49 242.63 231.90 252.42 231.55 261.98 C 231.93 270.94 223.88 278.84 215.01 278.79 C 205.96 279.31 197.57 271.03 198.20 261.94 C 197.76 254.03 204.12 247.19 211.59 245.50 C 211.35 245.06 210.88 244.18 210.65 243.74 C 204.99 243.19 200.62 238.41 198.83 233.27 C 197.33 227.33 198.40 220.37 203.00 216.02 Z" />
<path fill="#d13c36" opacity="1.00" d=" M 439.44 212.58 C 445.36 209.22 452.83 215.55 451.14 221.94 C 450.24 228.00 441.86 230.56 437.56 226.39 C 433.20 222.75 434.09 214.79 439.44 212.58 Z" />
<path fill="#d13c36" opacity="1.00" d=" M 451.45 216.93 C 453.46 214.12 456.32 211.32 460.09 211.69 C 466.19 211.80 469.85 219.59 466.69 224.59 C 464.06 228.87 457.37 229.86 453.91 226.06 C 451.19 223.81 451.61 220.08 451.45 216.93 Z" />
<path fill="#d13c36" opacity="1.00" d=" M 739.32 212.33 C 744.37 210.08 750.72 214.45 750.40 219.96 C 750.99 226.21 742.82 230.90 737.78 227.16 C 732.38 223.83 733.14 214.38 739.32 212.33 Z" />
<path fill="#d13c36" opacity="1.00" d=" M 440.31 229.27 C 442.54 228.76 445.13 228.38 447.12 229.83 C 452.02 232.36 452.75 240.09 448.56 243.57 C 445.08 246.90 438.69 245.82 436.13 241.84 C 433.17 237.62 435.20 230.68 440.31 229.27 Z" />
<path fill="#d13c36" opacity="1.00" d=" M 451.55 233.84 C 453.50 231.06 456.33 228.44 460.02 228.88 C 466.53 228.83 470.10 237.34 466.45 242.36 C 464.28 245.34 460.15 246.16 456.76 245.10 C 454.42 244.28 453.00 242.12 451.53 240.27 C 451.58 238.13 451.58 235.98 451.55 233.84 Z" />
<path fill="#d13c36" opacity="1.00" d=" M 722.37 229.63 C 727.75 226.78 734.93 231.86 733.81 237.92 C 734.16 244.49 724.87 248.02 720.43 243.55 C 716.09 239.93 717.05 231.82 722.37 229.63 Z" />
<path fill="#d13c36" opacity="1.00" d=" M 737.39 230.33 C 742.02 227.15 750.10 229.79 750.30 235.93 C 751.46 241.99 744.78 247.49 739.08 245.14 C 733.14 243.02 732.30 233.76 737.39 230.33 Z" />
<path fill="#d13c36" opacity="1.00" d=" M 175.33 246.43 C 181.92 244.14 190.06 246.05 194.35 251.72 C 200.20 259.13 198.50 271.37 190.15 276.17 C 182.06 281.52 169.80 277.96 166.01 269.00 C 161.98 260.62 166.48 249.45 175.33 246.43 Z" />
<path fill="#d13c36" opacity="1.00" d=" M 269.03 256.08 C 267.50 250.76 272.66 245.29 278.04 246.17 C 281.63 246.05 283.77 249.22 285.57 251.83 C 285.38 254.73 285.68 258.13 283.19 260.19 C 278.95 264.80 270.04 262.35 269.03 256.08 Z" />
<path fill="#d13c36" opacity="1.00" d=" M 290.33 246.63 C 296.24 243.65 303.62 249.60 301.99 255.97 C 300.95 261.41 294.09 264.40 289.41 261.44 C 283.99 258.44 284.61 248.94 290.33 246.63 Z" />
<path fill="#d13c36" opacity="1.00" d=" M 403.96 260.03 C 399.01 255.73 402.48 246.35 408.97 246.16 C 414.39 245.13 419.21 250.72 418.01 255.95 C 417.80 258.94 415.21 260.75 413.14 262.54 C 409.91 262.56 406.20 262.85 403.96 260.03 Z" />
<path fill="#d13c36" opacity="1.00" d=" M 422.18 247.13 C 427.01 244.29 433.99 247.28 434.90 252.92 C 436.11 257.29 432.72 260.91 429.08 262.67 C 426.60 262.43 423.79 262.92 421.72 261.23 C 417.08 258.06 417.18 249.91 422.18 247.13 Z" />
<path fill="#d13c36" opacity="1.00" d=" M 689.36 246.57 C 694.37 244.15 700.99 248.40 700.72 253.99 C 701.30 258.42 697.34 262.53 692.98 262.52 C 688.42 262.93 683.59 258.74 684.38 253.97 C 684.18 250.75 686.43 247.73 689.36 246.57 Z" />
<path fill="#d13c36" opacity="1.00" d=" M 704.61 261.29 C 699.23 258.09 700.11 248.47 706.11 246.41 C 711.18 244.05 717.65 248.44 717.35 254.03 C 718.04 257.88 714.93 260.60 712.08 262.52 C 709.57 262.39 706.77 262.90 704.61 261.29 Z" />
<path fill="#d13c36" opacity="1.00" d=" M 722.46 246.53 C 727.86 243.94 734.82 249.01 733.83 254.97 C 733.94 261.49 724.88 265.12 720.31 260.68 C 715.82 256.95 716.98 248.72 722.46 246.53 Z" />
<path fill="#d13c36" opacity="1.00" d=" M 740.23 246.13 C 745.15 244.88 750.64 248.78 750.40 254.00 C 750.94 260.04 743.58 264.65 738.35 261.70 C 731.90 258.76 733.07 247.29 740.23 246.13 Z" />
<path fill="#d13c36" opacity="1.00" d=" M 844.51 246.84 C 852.77 242.66 864.25 246.78 867.21 255.75 C 870.68 263.79 866.54 273.98 858.38 277.21 C 850.36 281.05 839.62 276.94 836.36 268.65 C 833.08 260.72 836.52 250.43 844.51 246.84 Z" />
<path fill="#d13c36" opacity="1.00" d=" M 408.25 263.06 C 414.59 261.22 420.34 268.73 417.59 274.55 C 415.50 281.21 404.95 280.84 402.57 274.66 C 400.37 270.18 403.30 263.99 408.25 263.06 Z" />
<path fill="#d13c36" opacity="1.00" d=" M 418.53 271.02 C 417.90 265.71 423.84 261.54 428.74 263.15 C 434.22 264.19 436.48 271.20 433.76 275.72 C 432.74 277.48 430.80 278.37 429.20 279.50 C 427.38 279.45 425.57 279.44 423.77 279.45 C 420.86 277.60 417.82 274.85 418.53 271.02 Z" />
<path fill="#d13c36" opacity="1.00" d=" M 673.24 263.40 C 678.97 261.22 685.63 266.84 683.99 272.84 C 683.30 279.36 674.03 281.74 669.88 276.96 C 665.71 272.94 667.63 264.99 673.24 263.40 Z" />
<path fill="#d13c36" opacity="1.00" d=" M 684.41 272.01 C 683.77 266.95 688.70 261.87 693.87 263.08 C 698.71 263.41 702.95 269.78 699.56 273.93 C 700.52 273.97 701.49 274.02 702.46 274.09 C 698.81 270.18 703.01 263.14 708.06 262.94 C 712.83 261.98 717.68 266.16 717.37 271.03 C 717.72 275.58 713.53 279.80 708.99 279.42 C 705.30 279.67 702.84 276.41 699.99 274.61 C 699.02 276.76 697.11 278.15 695.21 279.42 C 693.41 279.38 691.62 279.37 689.83 279.40 C 687.27 277.69 684.34 275.43 684.41 272.01 Z" />
<path fill="#d13c36" opacity="1.00" d=" M 273.16 263.98 C 276.37 262.47 281.04 262.54 283.42 265.54 C 286.73 269.02 286.07 275.39 282.05 278.06 C 277.97 281.13 271.29 279.32 269.49 274.47 C 267.61 270.63 269.61 266.01 273.16 263.98 Z" />
<path fill="#d13c36" opacity="1.00" d=" M 289.28 264.10 C 292.48 262.58 297.13 262.50 299.60 265.44 C 302.68 268.25 302.86 273.29 300.42 276.56 C 297.49 280.40 290.92 280.76 287.79 276.98 C 284.65 273.31 285.00 266.77 289.28 264.10 Z" />
<path fill="#d13c36" opacity="1.00" d=" M 717.59 269.95 C 717.84 263.16 727.34 260.67 731.59 265.41 C 734.05 267.46 734.14 271.00 733.60 273.91 C 733.06 276.67 730.36 278.03 728.23 279.45 C 726.41 279.39 724.59 279.37 722.78 279.39 C 719.51 277.40 716.69 274.04 717.59 269.95 Z" />
<path fill="#d13c36" opacity="1.00" d=" M 737.41 264.47 C 739.45 262.66 742.46 263.03 744.96 263.39 C 749.49 264.85 751.78 270.72 749.54 274.90 C 747.20 280.08 738.92 281.20 735.63 276.42 C 733.12 272.81 733.58 267.03 737.41 264.47 Z" />
<path fill="#d13c36" opacity="1.00" d=" M 880.61 280.11 C 887.75 278.12 896.25 281.14 899.67 287.92 C 903.82 295.50 901.46 306.53 893.51 310.65 C 885.90 315.33 874.84 312.41 870.64 304.52 C 865.75 295.57 870.28 282.53 880.61 280.11 Z" />
<path fill="#d13c36" opacity="1.00" d=" M 177.14 279.97 C 187.86 276.65 199.36 286.87 197.71 297.90 C 197.17 308.88 184.22 316.23 174.41 311.53 C 166.29 308.41 162.21 298.36 165.42 290.37 C 167.27 285.19 171.87 281.35 177.14 279.97 Z" />
<path fill="#d13c36" opacity="1.00" d=" M 210.22 280.02 C 217.87 277.76 226.72 281.85 229.84 289.24 C 233.62 296.53 230.82 306.56 223.56 310.56 C 219.59 313.04 214.61 313.25 210.14 312.32 C 202.72 310.36 197.42 302.64 198.18 295.01 C 198.18 288.00 203.58 281.81 210.22 280.02 Z" />
<path fill="#d13c36" opacity="1.00" d=" M 340.38 280.47 C 343.26 279.86 346.86 279.65 349.07 281.99 C 353.32 285.41 352.55 293.15 347.57 295.53 C 342.42 298.90 334.82 294.01 335.57 287.96 C 335.34 284.75 337.47 281.70 340.38 280.47 Z" />
<path fill="#d13c36" opacity="1.00" d=" M 354.86 281.78 C 356.96 279.63 360.25 279.97 362.96 280.37 C 365.65 281.06 366.99 283.78 368.57 285.82 C 368.30 288.65 368.40 291.94 366.09 294.01 C 363.40 297.15 358.26 297.51 355.10 294.88 C 351.04 291.87 350.95 284.95 354.86 281.78 Z" />
<path fill="#d13c36" opacity="1.00" d=" M 369.05 286.07 C 369.98 280.79 376.54 278.56 380.94 280.99 C 382.47 282.20 383.68 283.76 385.09 285.11 C 387.30 282.93 389.32 279.63 392.93 280.11 C 397.40 279.45 401.95 283.49 401.56 288.04 C 402.35 293.89 395.27 298.61 390.09 295.99 C 387.65 294.92 386.37 292.48 385.10 290.31 C 383.77 293.29 381.49 296.39 377.95 296.66 C 372.34 297.58 367.12 291.46 369.05 286.07 Z" />
<path fill="#d13c36" opacity="1.00" d=" M 402.01 286.15 C 402.61 282.97 405.50 281.19 407.87 279.38 C 411.77 279.63 416.51 280.91 417.69 285.18 C 419.54 290.01 416.35 296.13 411.04 296.62 C 405.44 297.48 400.52 291.51 402.01 286.15 Z" />
<path fill="#d13c36" opacity="1.00" d=" M 418.52 287.98 C 417.82 281.07 427.41 277.18 432.08 281.96 C 434.85 284.11 434.86 287.87 434.36 291.03 C 433.73 293.70 431.19 295.10 429.17 296.61 C 427.39 296.61 425.62 296.61 423.85 296.63 C 420.95 294.67 417.88 291.88 418.52 287.98 Z" />
<path fill="#d13c36" opacity="1.00" d=" M 439.46 280.62 C 443.54 278.78 449.09 280.39 450.62 284.86 C 453.36 290.45 448.25 297.89 441.94 296.58 C 434.15 295.88 432.07 283.61 439.46 280.62 Z" />
<path fill="#d13c36" opacity="1.00" d=" M 453.03 283.01 C 457.01 277.70 467.44 279.78 467.73 286.90 C 468.58 291.16 465.60 294.61 462.16 296.58 C 460.42 296.52 458.67 296.54 456.96 296.33 C 454.57 295.36 453.11 293.14 451.56 291.22 C 451.79 288.47 450.78 285.16 453.03 283.01 Z" />
<path fill="#d13c36" opacity="1.00" d=" M 656.23 280.40 C 661.27 278.19 667.75 282.47 667.47 287.99 C 667.89 292.95 662.88 297.52 657.97 296.53 C 652.37 295.75 649.51 288.94 652.06 284.10 C 653.08 282.55 654.48 281.14 656.23 280.40 Z" />
<path fill="#d13c36" opacity="1.00" d=" M 673.23 280.30 C 679.23 277.67 686.22 284.46 683.92 290.55 C 682.68 295.48 676.74 298.01 672.26 295.81 C 669.45 294.32 667.79 291.16 667.69 288.05 C 667.61 284.62 670.22 281.63 673.23 280.30 Z" />
<path fill="#d13c36" opacity="1.00" d=" M 688.02 281.08 C 693.04 277.47 701.17 281.71 700.67 287.98 C 701.35 291.90 698.21 294.67 695.24 296.54 C 692.55 296.34 689.34 297.00 687.34 294.72 C 683.14 291.36 683.32 283.91 688.02 281.08 Z" />
<path fill="#d13c36" opacity="1.00" d=" M 704.45 281.35 C 708.82 277.91 716.02 280.55 717.00 286.07 C 718.52 290.40 715.44 294.25 712.06 296.52 C 709.37 296.41 706.30 296.90 704.13 294.95 C 699.82 291.68 699.73 284.30 704.45 281.35 Z" />
<path fill="#d13c36" opacity="1.00" d=" M 722.39 280.45 C 727.50 277.97 734.22 282.30 733.91 288.00 C 734.53 294.27 726.66 299.00 721.44 295.43 C 715.98 292.16 716.25 282.82 722.39 280.45 Z" />
<path fill="#d13c36" opacity="1.00" d=" M 739.34 280.31 C 744.44 278.02 750.63 282.54 750.40 288.01 C 750.74 292.55 746.57 296.88 742.00 296.50 C 737.15 296.75 733.49 291.73 734.12 287.15 C 734.23 284.04 736.57 281.45 739.34 280.31 Z" />
<path fill="#d13c36" opacity="1.00" d=" M 846.28 280.34 C 854.00 277.28 863.56 281.57 866.77 289.15 C 871.89 298.57 864.85 311.78 854.09 312.60 C 844.78 314.39 835.08 306.54 835.17 297.02 C 834.44 289.70 839.25 282.47 846.28 280.34 Z" />
<path fill="#d13c36" opacity="1.00" d=" M 307.39 297.62 C 310.26 297.08 313.72 296.87 315.99 299.08 C 320.69 302.91 319.00 311.65 313.07 313.36 C 307.86 315.23 301.82 310.45 302.42 304.96 C 302.23 301.76 304.40 298.66 307.39 297.62 Z" />
<path fill="#d13c36" opacity="1.00" d=" M 324.33 297.42 C 329.72 295.61 336.07 300.07 335.22 305.93 C 335.14 311.89 327.40 315.89 322.58 312.30 C 316.85 309.06 317.84 299.12 324.33 297.42 Z" />
<path fill="#d13c36" opacity="1.00" d=" M 425.14 297.04 C 430.34 295.78 435.48 300.73 434.61 305.96 C 434.86 309.59 431.81 311.85 429.15 313.63 C 426.67 313.44 423.87 313.89 421.82 312.17 C 416.02 308.51 418.00 297.61 425.14 297.04 Z" />
<path fill="#d13c36" opacity="1.00" d=" M 451.60 305.94 C 450.47 299.73 457.91 294.79 463.33 297.65 C 467.88 299.60 469.00 305.61 466.74 309.68 C 465.59 311.43 463.67 312.43 462.04 313.66 C 457.16 314.40 451.43 311.46 451.60 305.94 Z" />
<path fill="#d13c36" opacity="1.00" d=" M 639.36 297.52 C 644.73 294.80 651.75 300.03 650.81 305.95 C 650.89 312.14 642.68 316.09 637.94 312.03 C 632.61 308.71 633.32 299.64 639.36 297.52 Z" />
<path fill="#d13c36" opacity="1.00" d=" M 651.52 302.03 C 653.02 298.98 656.31 296.58 659.85 297.05 C 664.37 296.86 668.07 301.61 667.49 305.94 C 667.60 309.48 664.53 311.63 662.09 313.60 C 659.57 313.45 656.78 313.89 654.63 312.30 C 651.23 310.20 650.65 305.61 651.52 302.03 Z" />
<path fill="#d13c36" opacity="1.00" d=" M 674.15 297.13 C 679.97 295.29 685.72 301.80 683.77 307.42 C 682.73 313.27 674.71 315.69 670.53 311.53 C 665.61 307.38 667.81 298.39 674.15 297.13 Z" />
<path fill="#d13c36" opacity="1.00" d=" M 689.40 297.40 C 694.88 294.80 701.68 300.07 700.78 305.99 C 700.63 312.03 692.73 315.85 687.97 312.05 C 682.62 308.72 683.48 299.60 689.40 297.40 Z" />
<path fill="#d13c36" opacity="1.00" d=" M 708.10 296.92 C 713.97 295.78 718.95 302.43 716.92 307.85 C 715.69 313.00 708.99 315.38 704.74 312.25 C 698.48 308.62 700.65 297.43 708.10 296.92 Z" />
<path fill="#d13c36" opacity="1.00" d=" M 339.32 298.08 C 344.15 295.28 351.20 298.22 351.72 304.05 C 353.07 310.43 344.99 316.20 339.51 312.51 C 334.15 309.67 334.14 301.11 339.32 298.08 Z" />
<path fill="#d13c36" opacity="1.00" d=" M 353.97 299.94 C 356.93 295.82 363.97 296.10 366.83 300.20 C 368.80 302.34 368.29 305.41 368.50 308.08 C 366.24 311.88 362.27 314.06 357.81 313.63 C 355.69 312.16 353.17 310.70 352.50 307.99 C 351.97 305.28 351.97 302.08 353.97 299.94 Z" />
<path fill="#d13c36" opacity="1.00" d=" M 370.18 300.21 C 373.13 295.78 380.82 295.83 383.59 300.45 C 386.53 304.85 384.50 310.98 379.94 313.42 C 377.48 313.21 374.59 314.17 372.53 312.41 C 368.48 309.97 367.46 303.99 370.18 300.21 Z" />
<path fill="#d13c36" opacity="1.00" d=" M 385.30 305.01 C 384.98 301.64 387.63 299.30 389.86 297.25 C 392.71 297.36 396.12 296.46 398.45 298.63 C 400.97 300.54 402.03 303.86 401.47 306.94 C 401.19 310.01 398.37 311.73 396.22 313.49 C 394.42 313.51 392.62 313.54 390.83 313.59 C 387.91 311.63 384.95 308.88 385.30 305.01 Z" />
<path fill="#d13c36" opacity="1.00" d=" M 404.86 298.81 C 406.95 296.71 410.21 296.94 412.91 297.33 C 417.02 298.65 419.30 303.76 417.87 307.77 C 417.29 310.37 414.94 311.89 413.08 313.53 C 410.58 313.29 407.68 314.14 405.58 312.41 C 401.05 309.55 400.57 302.09 404.86 298.81 Z" />
<path fill="#d13c36" opacity="1.00" d=" M 436.15 309.68 C 432.81 304.63 436.63 296.53 443.01 297.07 C 449.96 296.21 453.71 305.57 449.54 310.49 C 448.47 311.61 447.26 312.58 446.09 313.59 C 442.41 313.85 438.00 313.37 436.15 309.68 Z" />
<path fill="#d13c36" opacity="1.00" d=" M 721.23 298.08 C 725.99 295.32 733.26 298.07 733.73 303.95 C 735.11 310.20 727.93 315.86 722.22 312.95 C 716.33 310.51 715.89 301.35 721.23 298.08 Z" />
<path fill="#d13c36" opacity="1.00" d=" M 140.64 314.98 C 147.72 311.94 156.96 314.32 161.13 320.96 C 165.72 327.67 164.94 338.14 158.32 343.29 C 155.13 345.78 151.09 347.42 147.01 347.42 C 141.42 346.88 135.69 344.12 132.96 338.99 C 128.03 330.73 131.69 318.75 140.64 314.98 Z" />
<path fill="#d13c36" opacity="1.00" d=" M 175.34 314.67 C 182.80 311.48 191.98 315.38 195.65 322.41 C 198.55 327.55 198.23 334.25 195.29 339.30 C 192.55 344.02 187.26 346.73 181.97 347.40 C 174.43 347.68 166.75 342.59 164.99 335.06 C 162.46 326.96 167.26 317.35 175.34 314.67 Z" />
<path fill="#d13c36" opacity="1.00" d=" M 357.37 314.40 C 362.70 311.89 369.21 317.38 368.42 322.98 C 368.32 329.03 360.57 332.80 355.67 329.28 C 350.20 325.89 351.37 316.56 357.37 314.40 Z" />
<path fill="#d13c36" opacity="1.00" d=" M 375.15 314.01 C 381.20 312.30 386.95 319.44 384.53 325.11 C 382.89 331.39 373.35 332.48 370.07 327.05 C 366.83 322.41 369.57 315.15 375.15 314.01 Z" />
<path fill="#d13c36" opacity="1.00" d=" M 385.42 323.88 C 384.25 319.11 388.02 313.94 392.99 313.88 C 396.68 313.29 399.43 316.20 401.53 318.79 C 401.33 321.81 402.10 325.33 399.84 327.78 C 395.87 332.97 386.00 330.65 385.42 323.88 Z" />
<path fill="#d13c36" opacity="1.00" d=" M 403.22 317.32 C 404.98 314.90 408.06 313.62 411.02 313.79 C 415.62 314.43 419.25 319.31 418.02 323.91 C 417.69 326.87 415.32 328.82 413.15 330.54 C 410.58 330.34 407.65 331.03 405.48 329.31 C 401.47 326.91 400.57 321.04 403.22 317.32 Z" />
<path fill="#d13c36" opacity="1.00" d=" M 425.15 314.13 C 430.33 312.69 435.45 317.77 434.66 322.96 C 434.96 329.89 425.11 333.23 420.74 328.23 C 416.25 323.86 418.62 314.82 425.15 314.13 Z" />
<path fill="#d13c36" opacity="1.00" d=" M 441.20 314.13 C 447.48 312.04 453.10 319.08 450.93 324.96 C 449.69 330.54 442.20 332.43 437.98 328.99 C 432.87 325.06 434.51 315.30 441.20 314.13 Z" />
<path fill="#d13c36" opacity="1.00" d=" M 458.16 313.95 C 460.58 313.44 463.26 314.25 465.09 315.91 C 468.43 318.58 468.63 323.93 466.38 327.34 C 463.58 331.69 456.57 331.68 453.40 327.76 C 449.30 323.22 451.80 314.79 458.16 313.95 Z" />
<path fill="#d13c36" opacity="1.00" d=" M 622.41 314.66 C 627.80 311.76 635.12 316.80 633.86 322.93 C 634.28 329.76 625.00 333.00 620.43 328.48 C 615.99 324.87 616.89 316.71 622.41 314.66 Z" />
<path fill="#d13c36" opacity="1.00" d=" M 643.04 314.03 C 646.69 313.49 648.66 316.93 650.96 319.05 C 653.29 316.40 656.04 313.45 659.94 313.84 C 666.13 313.99 669.68 321.86 666.28 326.84 C 663.53 331.97 654.93 331.75 652.26 326.67 C 651.10 324.74 651.38 322.40 651.24 320.26 C 651.11 320.23 650.85 320.17 650.72 320.15 C 651.53 324.93 648.45 330.86 643.01 330.47 C 638.60 331.01 634.65 327.19 634.41 322.89 C 633.71 318.07 638.25 313.59 643.04 314.03 Z" />
<path fill="#d13c36" opacity="1.00" d=" M 691.10 314.07 C 697.50 312.55 702.83 320.13 700.06 325.84 C 697.99 331.30 689.75 332.28 686.19 327.83 C 682.46 323.18 684.81 314.91 691.10 314.07 Z" />
<path fill="#d13c36" opacity="1.00" d=" M 706.42 314.38 C 712.22 312.01 718.63 317.82 717.14 323.84 C 716.60 329.35 709.93 332.12 705.27 329.70 C 699.16 326.85 699.99 316.38 706.42 314.38 Z" />
<path fill="#d13c36" opacity="1.00" d=" M 723.39 314.18 C 728.76 312.51 734.66 317.41 733.81 323.03 C 733.74 329.21 725.66 332.77 720.85 329.14 C 715.31 325.58 716.84 315.64 723.39 314.18 Z" />
<path fill="#d13c36" opacity="1.00" d=" M 789.22 314.36 C 794.72 311.88 801.15 317.32 800.39 323.08 C 800.14 329.13 792.46 332.86 787.54 329.33 C 781.89 325.93 782.94 316.44 789.22 314.36 Z" />
<path fill="#d13c36" opacity="1.00" d=" M 881.16 314.00 C 891.93 310.75 903.12 321.12 901.68 332.03 C 901.70 341.15 892.65 347.80 884.03 347.32 C 879.54 346.57 874.99 344.61 872.13 340.93 C 868.79 336.51 867.49 330.44 869.31 325.14 C 870.97 319.70 875.67 315.40 881.16 314.00 Z" />
<path fill="#d13c36" opacity="1.00" d=" M 306.19 315.03 C 310.97 312.21 318.21 315.15 318.60 321.03 C 319.70 326.52 314.36 331.61 308.93 330.44 C 301.68 329.50 299.82 318.54 306.19 315.03 Z" />
<path fill="#d13c36" opacity="1.00" d=" M 322.43 315.42 C 325.44 313.42 330.19 313.53 332.78 316.25 C 336.20 319.34 336.28 325.42 332.71 328.43 C 328.79 332.43 320.99 330.64 319.35 325.25 C 318.21 321.75 319.26 317.50 322.43 315.42 Z" />
<path fill="#d13c36" opacity="1.00" d=" M 339.28 315.14 C 342.87 313.21 348.01 313.81 350.32 317.45 C 354.59 322.63 349.88 331.77 343.00 330.58 C 335.25 330.54 332.60 318.82 339.28 315.14 Z" />
<path fill="#d13c36" opacity="1.00" d=" M 671.33 315.27 C 674.95 313.05 680.26 313.71 682.62 317.46 C 686.89 322.72 681.98 331.90 675.08 330.56 C 667.56 330.53 665.04 318.91 671.33 315.27 Z" />
<path fill="#d13c36" opacity="1.00" d=" M 291.39 331.47 C 296.78 329.76 302.69 334.27 302.20 339.95 C 302.28 346.63 293.06 350.04 288.44 345.53 C 283.60 341.71 285.51 333.07 291.39 331.47 Z" />
<path fill="#d13c36" opacity="1.00" d=" M 408.25 331.26 C 414.00 329.63 419.50 335.35 418.20 341.01 C 417.33 347.45 408.17 349.84 403.98 345.06 C 399.58 340.76 402.18 332.26 408.25 331.26 Z" />
<path fill="#d13c36" opacity="1.00" d=" M 606.34 331.39 C 611.64 328.97 618.52 334.18 617.40 339.98 C 617.26 345.68 610.33 349.49 605.44 346.53 C 599.18 343.94 599.76 333.20 606.34 331.39 Z" />
<path fill="#d13c36" opacity="1.00" d=" M 768.07 342.99 C 765.49 337.71 769.87 330.31 776.03 331.26 C 781.58 331.16 784.66 337.18 783.75 342.13 C 784.00 342.09 784.50 342.00 784.75 341.95 C 783.80 339.31 783.98 336.05 785.99 333.94 C 789.27 329.52 797.06 330.40 799.47 335.31 C 801.40 339.05 800.32 344.36 796.40 346.36 C 792.81 348.69 786.54 347.65 785.22 343.18 C 784.39 343.10 783.57 343.04 782.76 342.99 C 780.59 349.31 770.48 348.93 768.07 342.99 Z" />
<path fill="#d13c36" opacity="1.00" d=" M 306.26 332.16 C 310.41 329.89 316.39 331.48 318.04 336.18 C 320.64 341.92 315.27 348.91 309.01 347.47 C 301.57 346.65 299.96 335.65 306.26 332.16 Z" />
<path fill="#d13c36" opacity="1.00" d=" M 323.14 332.03 C 328.27 329.26 335.48 332.96 335.38 339.04 C 335.95 345.46 327.95 349.86 322.73 346.28 C 317.23 343.46 317.88 334.76 323.14 332.03 Z" />
<path fill="#d13c36" opacity="1.00" d=" M 339.31 332.20 C 344.69 328.85 352.67 333.26 351.93 339.78 C 352.01 345.81 344.47 349.81 339.51 346.42 C 334.08 343.74 334.34 335.22 339.31 332.20 Z" />
<path fill="#d13c36" opacity="1.00" d=" M 353.95 333.99 C 357.09 329.76 364.45 330.35 367.20 334.77 C 368.92 336.86 368.26 339.72 368.50 342.21 C 366.34 345.28 363.17 348.44 359.03 347.56 C 352.66 347.08 350.00 338.54 353.95 333.99 Z" />
<path fill="#d13c36" opacity="1.00" d=" M 373.19 331.90 C 376.01 330.82 379.79 330.77 382.12 332.99 C 386.32 336.40 385.83 344.28 380.69 346.58 C 376.45 349.21 370.26 346.61 368.98 341.85 C 367.67 338.08 369.73 333.70 373.19 331.90 Z" />
<path fill="#d13c36" opacity="1.00" d=" M 389.29 332.15 C 394.02 329.38 401.28 332.20 401.50 338.09 C 402.45 342.69 398.69 347.49 394.00 347.52 C 389.71 347.98 385.33 344.33 385.36 339.94 C 384.99 336.84 386.72 333.79 389.29 332.15 Z" />
<path fill="#d13c36" opacity="1.00" d=" M 422.26 332.14 C 427.36 329.14 434.94 332.76 434.79 338.98 C 435.83 345.47 427.58 349.88 422.35 346.55 C 417.03 343.85 417.19 335.02 422.26 332.14 Z" />
<path fill="#d13c36" opacity="1.00" d=" M 622.20 331.91 C 626.49 329.94 632.39 331.76 633.71 336.59 C 635.47 341.31 632.27 347.35 626.98 347.49 C 622.18 348.27 617.07 343.99 617.69 339.01 C 617.76 336.01 619.32 333.06 622.20 331.91 Z" />
<path fill="#d13c36" opacity="1.00" d=" M 634.61 341.00 C 633.34 335.94 637.67 330.49 643.01 331.24 C 649.83 330.72 653.21 340.11 648.97 344.88 C 647.64 346.07 646.03 346.87 644.53 347.79 C 647.04 349.25 650.06 350.95 650.68 354.07 C 651.00 356.57 651.07 359.52 649.28 361.53 C 646.02 365.60 638.80 365.51 635.79 361.20 C 634.23 359.12 634.47 356.37 634.69 353.94 C 635.33 351.13 637.95 349.62 639.95 347.85 C 637.94 345.76 634.73 344.31 634.61 341.00 Z" />
<path fill="#d13c36" opacity="1.00" d=" M 654.41 332.67 C 659.33 328.84 667.99 332.38 667.49 339.02 C 668.01 344.95 661.41 349.28 656.06 347.05 C 650.24 345.03 649.55 336.06 654.41 332.67 Z" />
<path fill="#d13c36" opacity="1.00" d=" M 671.37 332.31 C 675.39 329.84 681.59 331.08 683.39 335.76 C 686.20 341.25 681.26 348.72 674.98 347.50 C 667.45 347.25 665.09 336.00 671.37 332.31 Z" />
<path fill="#d13c36" opacity="1.00" d=" M 688.31 332.11 C 693.76 328.77 701.72 333.39 700.78 339.96 C 700.88 345.76 694.18 349.28 689.19 346.89 C 683.09 344.70 682.76 335.14 688.31 332.11 Z" />
<path fill="#d13c36" opacity="1.00" d=" M 704.39 332.59 C 708.39 329.66 714.98 331.30 716.70 336.12 C 719.28 341.61 714.24 348.85 708.05 347.55 C 700.61 347.31 698.58 336.40 704.39 332.59 Z" />
<path fill="#d13c36" opacity="1.00" d=" M 721.35 332.24 C 726.40 329.02 733.85 332.88 733.73 338.99 C 734.61 345.38 726.65 349.83 721.42 346.51 C 716.09 343.75 716.40 335.20 721.35 332.24 Z" />
<path fill="#d13c36" opacity="1.00" d=" M 143.36 348.50 C 149.16 347.10 155.72 348.86 159.62 353.47 C 166.69 360.90 164.67 374.80 155.38 379.47 C 147.57 384.12 136.50 380.71 132.56 372.56 C 127.59 363.48 133.08 350.63 143.36 348.50 Z" />
<path fill="#d13c36" opacity="1.00" d=" M 880.43 348.67 C 889.63 345.69 900.40 352.21 901.55 361.89 C 903.15 370.03 897.90 378.64 889.87 380.79 C 880.19 384.12 868.92 376.17 868.51 366.03 C 867.73 358.37 873.05 350.76 880.43 348.67 Z" />
<path fill="#d13c36" opacity="1.00" d=" M 172.94 350.08 C 180.59 345.81 191.43 348.49 195.59 356.39 C 200.48 364.53 196.86 376.35 187.96 379.96 C 179.99 384.02 169.56 379.99 166.02 371.89 C 162.15 364.24 165.54 354.22 172.94 350.08 Z" />
<path fill="#d13c36" opacity="1.00" d=" M 289.36 349.50 C 291.45 347.66 294.51 348.21 297.05 348.49 C 301.04 350.33 303.53 355.44 301.58 359.60 C 299.60 364.59 292.38 366.20 288.48 362.49 C 284.39 359.24 285.08 352.28 289.36 349.50 Z" />
<path fill="#d13c36" opacity="1.00" d=" M 306.29 349.15 C 308.19 347.83 310.72 348.24 312.90 348.35 C 319.01 349.79 320.90 359.18 315.77 362.89 C 311.09 366.91 302.13 363.47 302.50 356.96 C 302.04 353.83 303.60 350.76 306.29 349.15 Z" />
<path fill="#d13c36" opacity="1.00" d=" M 318.98 357.86 C 318.02 353.85 320.92 350.60 323.87 348.37 C 325.91 348.36 327.97 348.25 330.01 348.49 C 335.21 350.50 337.55 358.33 333.04 362.17 C 328.87 367.06 319.66 364.29 318.98 357.86 Z" />
<path fill="#d13c36" opacity="1.00" d=" M 339.39 349.34 C 344.41 345.97 352.02 349.77 351.84 356.01 C 352.64 362.37 344.52 366.94 339.40 363.39 C 334.25 360.57 334.59 352.35 339.39 349.34 Z" />
<path fill="#d13c36" opacity="1.00" d=" M 352.39 357.96 C 351.39 354.05 353.91 350.64 356.78 348.32 C 359.83 348.44 363.59 347.48 365.82 350.21 C 369.40 353.35 369.60 359.86 365.53 362.69 C 361.27 366.77 352.89 364.01 352.39 357.96 Z" />
<path fill="#d13c36" opacity="1.00" d=" M 370.06 361.20 C 366.99 356.74 369.41 350.82 373.79 348.29 C 376.58 348.51 379.95 347.61 382.10 349.93 C 385.26 352.20 385.26 356.52 384.39 359.94 C 382.07 365.56 373.31 366.38 370.06 361.20 Z" />
<path fill="#d13c36" opacity="1.00" d=" M 389.29 349.20 C 391.59 347.87 394.49 348.19 397.02 348.63 C 402.18 351.12 403.29 359.17 398.80 362.79 C 395.69 365.49 390.49 365.33 387.63 362.32 C 383.76 358.81 384.73 351.71 389.29 349.20 Z" />
<path fill="#d13c36" opacity="1.00" d=" M 405.45 349.44 C 407.54 347.73 410.51 348.25 413.01 348.45 C 418.51 350.50 420.14 358.70 415.52 362.47 C 411.62 366.36 404.20 364.63 402.39 359.45 C 400.79 355.92 402.41 351.64 405.45 349.44 Z" />
<path fill="#d13c36" opacity="1.00" d=" M 422.15 349.15 C 425.32 347.63 430.05 347.51 432.49 350.49 C 435.86 353.69 435.59 360.04 431.82 362.84 C 428.50 365.54 422.91 365.15 420.24 361.71 C 417.22 357.99 418.14 351.81 422.15 349.15 Z" />
<path fill="#d13c36" opacity="1.00" d=" M 605.27 349.19 C 610.23 346.24 617.76 349.89 616.94 356.09 C 618.18 362.40 610.44 366.74 605.26 363.68 C 599.73 361.02 599.69 351.81 605.27 349.19 Z" />
<path fill="#d13c36" opacity="1.00" d=" M 621.42 349.35 C 624.92 347.35 630.26 347.71 632.63 351.36 C 636.42 356.02 633.25 364.45 626.95 364.49 C 622.30 365.23 618.32 361.28 617.37 357.02 C 617.12 353.96 619.24 351.25 621.42 349.35 Z" />
<path fill="#d13c36" opacity="1.00" d=" M 651.31 357.86 C 650.10 352.76 654.62 347.19 659.99 348.23 C 663.73 347.81 665.80 351.30 667.58 353.95 C 667.50 356.84 667.56 360.13 665.17 362.19 C 661.04 366.75 651.57 364.53 651.31 357.86 Z" />
<path fill="#d13c36" opacity="1.00" d=" M 671.41 349.37 C 674.67 347.50 679.64 347.60 682.06 350.85 C 685.83 354.84 684.13 362.23 679.00 364.18 C 676.33 364.77 673.26 364.73 670.98 363.04 C 666.46 359.97 666.88 352.27 671.41 349.37 Z" />
<path fill="#d13c36" opacity="1.00" d=" M 688.28 349.20 C 690.59 347.81 693.54 348.10 696.09 348.58 C 700.83 350.95 702.37 357.81 698.82 361.83 C 695.55 365.82 688.68 365.37 685.76 361.20 C 683.27 357.40 684.23 351.55 688.28 349.20 Z" />
<path fill="#d13c36" opacity="1.00" d=" M 705.23 348.93 C 707.59 347.77 710.46 348.07 712.97 348.62 C 718.49 351.62 718.83 361.24 712.85 363.89 C 709.14 365.48 704.26 364.39 702.09 360.83 C 700.09 356.82 701.00 351.14 705.23 348.93 Z" />
<path fill="#d13c36" opacity="1.00" d=" M 718.39 360.67 C 715.39 355.77 718.95 347.90 725.07 348.22 C 730.76 347.27 735.26 353.71 733.59 358.92 C 733.03 361.98 730.00 363.52 727.52 364.82 C 729.85 366.18 732.51 367.67 733.45 370.39 C 735.83 375.31 731.44 381.73 726.02 381.58 C 720.32 382.22 715.32 375.44 718.09 370.27 C 719.09 367.52 721.76 366.07 724.23 364.84 C 722.11 363.77 719.58 362.90 718.39 360.67 Z" />
<path fill="#d13c36" opacity="1.00" d=" M 768.50 360.80 C 765.06 355.56 769.49 347.20 776.02 348.20 C 779.73 347.70 782.07 351.00 783.59 353.87 C 783.33 355.89 783.34 357.93 783.13 359.95 C 780.74 365.76 771.57 366.23 768.50 360.80 Z" />
<path fill="#d13c36" opacity="1.00" d=" M 784.59 356.68 C 783.27 353.02 786.37 350.35 788.88 348.32 C 791.63 348.49 794.88 347.60 797.10 349.73 C 801.55 352.97 801.52 360.64 796.59 363.43 C 791.73 366.70 785.41 363.45 783.59 358.30 C 783.91 357.75 784.24 357.21 784.59 356.68 Z" />
<path fill="#d13c36" opacity="1.00" d=" M 588.64 365.82 C 593.84 363.49 600.73 367.05 600.66 373.04 C 601.48 379.47 593.62 383.82 588.30 380.69 C 582.44 377.99 582.99 368.45 588.64 365.82 Z" />
<path fill="#d13c36" opacity="1.00" d=" M 756.41 365.52 C 760.88 364.11 766.05 366.76 766.94 371.48 C 768.59 376.50 764.14 381.91 758.98 381.69 C 753.77 381.94 749.27 376.13 751.17 371.18 C 751.83 368.58 753.91 366.43 756.41 365.52 Z" />
<path fill="#d13c36" opacity="1.00" d=" M 791.17 365.17 C 797.25 364.02 802.45 371.34 799.67 376.78 C 797.69 381.89 790.29 383.33 786.46 379.52 C 781.63 375.20 784.41 365.44 791.17 365.17 Z" />
<path fill="#d13c36" opacity="1.00" d=" M 290.17 366.04 C 293.11 364.81 297.23 364.88 299.53 367.42 C 303.16 370.83 302.92 377.87 298.31 380.36 C 294.73 382.94 289.39 381.68 287.05 378.04 C 284.19 374.12 285.93 368.18 290.17 366.04 Z" />
<path fill="#d13c36" opacity="1.00" d=" M 306.31 366.30 C 309.63 364.54 314.56 364.76 316.91 368.04 C 320.75 372.62 318.08 380.69 311.99 381.54 C 307.44 382.57 302.32 378.80 302.42 374.05 C 302.11 370.98 303.56 367.79 306.31 366.30 Z" />
<path fill="#d13c36" opacity="1.00" d=" M 323.21 366.11 C 325.92 364.86 329.83 364.57 332.14 366.84 C 335.98 369.79 336.77 376.57 332.59 379.58 C 328.45 383.69 320.46 381.39 319.18 375.71 C 317.99 371.99 319.91 367.98 323.21 366.11 Z" />
<path fill="#d13c36" opacity="1.00" d=" M 339.41 366.39 C 341.60 364.91 344.52 365.18 346.99 365.64 C 350.98 367.67 353.02 372.79 351.16 376.95 C 349.17 381.45 342.79 383.21 338.86 380.20 C 334.27 377.02 334.59 369.21 339.41 366.39 Z" />
<path fill="#d13c36" opacity="1.00" d=" M 356.32 366.15 C 361.68 362.92 369.32 367.65 368.48 373.94 C 368.67 380.42 359.61 384.24 354.97 379.86 C 350.71 376.38 351.63 368.86 356.32 366.15 Z" />
<path fill="#d13c36" opacity="1.00" d=" M 368.66 373.97 C 368.39 369.48 372.26 364.75 376.97 365.19 C 380.32 364.67 382.85 367.38 384.47 369.96 C 384.91 372.34 384.70 374.77 384.65 377.18 C 382.64 379.38 380.26 381.83 377.01 381.65 C 372.73 382.09 368.66 378.24 368.66 373.97 Z" />
<path fill="#d13c36" opacity="1.00" d=" M 389.29 366.20 C 394.36 363.06 401.91 366.85 401.58 373.06 C 402.47 379.65 394.02 384.20 388.85 380.30 C 383.77 377.29 384.15 368.94 389.29 366.20 Z" />
<path fill="#d13c36" opacity="1.00" d=" M 406.21 366.05 C 411.60 362.96 418.86 367.90 418.26 373.99 C 418.42 380.47 409.59 384.26 404.88 379.97 C 400.35 376.47 401.27 368.73 406.21 366.05 Z" />
<path fill="#d13c36" opacity="1.00" d=" M 422.38 366.29 C 427.34 362.98 434.92 366.91 434.80 372.96 C 435.60 378.74 429.43 383.24 424.07 381.40 C 417.28 379.89 416.72 369.55 422.38 366.29 Z" />
<path fill="#d13c36" opacity="1.00" d=" M 605.28 366.22 C 610.06 363.28 616.70 366.75 617.54 372.15 C 618.47 376.42 615.35 381.16 610.90 381.55 C 606.64 382.37 601.69 379.51 601.32 374.96 C 600.70 371.55 602.09 367.82 605.28 366.22 Z" />
<path fill="#d13c36" opacity="1.00" d=" M 671.44 366.46 C 677.13 362.30 685.74 368.17 683.99 374.98 C 683.25 381.54 673.82 384.03 669.71 379.06 C 666.27 375.42 667.41 369.18 671.44 366.46 Z" />
<path fill="#d13c36" opacity="1.00" d=" M 688.28 366.22 C 693.71 362.71 701.56 367.48 700.71 373.96 C 701.00 380.09 693.30 383.62 688.37 380.60 C 683.00 377.94 683.17 369.05 688.28 366.22 Z" />
<path fill="#d13c36" opacity="1.00" d=" M 704.44 366.61 C 709.20 362.76 717.79 366.53 716.96 373.01 C 718.31 379.37 710.44 383.71 705.23 380.73 C 699.85 378.28 699.72 369.78 704.44 366.61 Z" />
<path fill="#d13c36" opacity="1.00" d=" M 771.41 366.31 C 776.82 362.55 784.39 367.58 783.85 373.94 C 783.88 380.29 775.63 383.78 770.75 380.20 C 765.94 377.09 766.44 369.04 771.41 366.31 Z" />
<path fill="#d13c36" opacity="1.00" d=" M 573.33 382.43 C 578.67 380.63 584.60 385.35 583.81 390.99 C 584.12 397.40 575.59 401.11 570.86 397.08 C 565.45 393.57 567.17 384.03 573.33 382.43 Z" />
<path fill="#d13c36" opacity="1.00" d=" M 734.95 387.09 C 736.08 383.60 739.80 382.37 743.01 381.60 C 746.48 382.76 750.30 384.92 750.51 389.04 C 751.81 394.39 746.25 399.63 741.02 398.59 C 735.88 397.90 732.56 391.76 734.95 387.09 Z" />
<path fill="#d13c36" opacity="1.00" d=" M 140.48 383.71 C 148.34 379.74 158.73 383.57 162.40 391.50 C 165.33 398.00 164.03 406.61 158.46 411.34 C 151.71 417.49 140.09 416.83 134.39 409.57 C 127.54 401.60 130.77 387.79 140.48 383.71 Z" />
<path fill="#d13c36" opacity="1.00" d=" M 175.23 383.25 C 185.56 378.95 198.25 387.82 197.69 399.00 C 198.50 409.27 187.62 417.25 177.96 415.21 C 169.60 413.92 163.56 405.39 164.38 397.12 C 165.02 390.94 169.42 385.39 175.23 383.25 Z" />
<path fill="#d13c36" opacity="1.00" d=" M 289.33 383.39 C 293.60 380.71 299.96 382.37 301.61 387.36 C 304.39 393.24 298.16 400.26 292.00 398.51 C 285.21 397.11 283.33 386.98 289.33 383.39 Z" />
<path fill="#d13c36" opacity="1.00" d=" M 306.21 383.23 C 311.22 380.20 319.07 383.65 318.53 389.98 C 319.51 396.19 311.52 401.12 306.36 397.59 C 301.05 394.95 301.00 385.98 306.21 383.23 Z" />
<path fill="#d13c36" opacity="1.00" d=" M 322.41 383.57 C 327.12 380.02 334.58 383.16 335.28 389.04 C 336.86 395.72 328.00 401.45 322.59 397.26 C 317.66 394.50 317.65 386.50 322.41 383.57 Z" />
<path fill="#d13c36" opacity="1.00" d=" M 339.38 383.29 C 343.99 380.40 350.73 382.98 351.73 388.48 C 353.53 394.85 346.06 401.01 340.17 397.88 C 334.41 395.44 334.12 386.38 339.38 383.29 Z" />
<path fill="#d13c36" opacity="1.00" d=" M 355.43 383.59 C 358.80 381.07 364.37 381.63 366.72 385.32 C 371.13 390.54 366.04 399.97 359.09 398.52 C 351.91 398.04 349.68 387.46 355.43 383.59 Z" />
<path fill="#d13c36" opacity="1.00" d=" M 371.74 383.82 C 375.94 380.20 383.49 382.54 384.59 388.08 C 384.99 390.94 384.93 394.42 382.46 396.39 C 380.24 398.54 376.94 399.13 374.02 398.25 C 371.22 397.12 369.70 394.40 368.22 391.97 C 368.89 389.10 369.21 385.75 371.74 383.82 Z" />
<path fill="#d13c36" opacity="1.00" d=" M 389.29 383.25 C 394.26 380.10 402.15 383.77 401.55 390.05 C 402.54 396.35 394.62 400.95 389.41 397.69 C 383.90 395.02 383.95 386.05 389.29 383.25 Z" />
<path fill="#d13c36" opacity="1.00" d=" M 405.46 383.47 C 410.12 380.06 417.69 383.16 418.16 389.06 C 419.30 394.71 413.55 399.97 408.02 398.49 C 401.12 397.33 399.66 387.00 405.46 383.47 Z" />
<path fill="#d13c36" opacity="1.00" d=" M 422.36 383.17 C 427.45 379.99 434.83 383.92 434.78 389.98 C 435.52 396.29 427.67 401.01 422.41 397.56 C 417.01 394.82 417.16 386.02 422.36 383.17 Z" />
<path fill="#d13c36" opacity="1.00" d=" M 588.34 383.27 C 592.99 380.36 599.98 383.32 600.72 388.86 C 601.83 394.33 596.66 399.76 591.09 398.58 C 583.50 398.15 581.81 386.52 588.34 383.27 Z" />
<path fill="#d13c36" opacity="1.00" d=" M 688.39 383.25 C 693.39 379.85 700.82 383.91 700.74 389.94 C 701.48 396.26 693.64 400.92 688.37 397.56 C 682.91 394.86 683.15 386.06 688.39 383.25 Z" />
<path fill="#d13c36" opacity="1.00" d=" M 705.15 383.09 C 710.24 379.97 717.48 383.98 717.47 389.96 C 718.20 396.11 710.59 400.97 705.35 397.65 C 699.65 394.98 699.75 386.05 705.15 383.09 Z" />
<path fill="#d13c36" opacity="1.00" d=" M 721.39 383.40 C 726.39 379.81 734.29 383.89 733.90 390.14 C 734.84 396.80 725.85 401.44 720.86 397.09 C 716.19 393.99 716.84 386.28 721.39 383.40 Z" />
<path fill="#d13c36" opacity="1.00" d=" M 754.00 396.97 C 748.18 393.10 751.00 382.32 758.11 382.14 C 762.82 381.24 766.83 385.31 767.35 389.77 C 767.78 385.52 771.48 381.62 775.96 382.18 C 783.16 381.87 786.57 392.60 780.82 396.75 C 776.09 401.07 767.44 397.69 767.31 391.13 C 766.84 397.29 758.81 401.20 754.00 396.97 Z" />
<path fill="#d13c36" opacity="1.00" d=" M 878.40 383.67 C 885.37 380.15 894.37 382.93 898.78 389.19 C 902.94 395.03 902.86 403.67 898.32 409.28 C 893.37 415.36 884.02 417.41 877.12 413.50 C 872.00 410.65 868.41 404.99 868.53 399.07 C 868.12 392.49 872.55 386.35 878.40 383.67 Z" />
<path fill="#d13c36" opacity="1.00" d=" M 622.49 390.76 C 626.47 389.13 631.86 390.48 633.47 394.79 C 635.80 399.56 632.43 406.14 627.03 406.51 C 622.92 407.05 618.89 404.03 617.87 400.09 C 617.02 396.43 619.08 392.32 622.49 390.76 Z" />
<path fill="#d13c36" opacity="1.00" d=" M 638.60 390.89 C 643.73 388.34 651.23 391.66 650.82 397.95 C 651.66 404.24 643.78 408.83 638.58 405.43 C 633.02 402.60 633.17 393.77 638.60 390.89 Z" />
<path fill="#d13c36" opacity="1.00" d=" M 257.47 399.69 C 260.08 398.94 263.16 398.96 265.49 400.53 C 269.86 403.39 270.11 410.78 265.86 413.86 C 262.56 416.73 256.99 416.09 254.31 412.67 C 250.72 408.80 252.34 401.39 257.47 399.69 Z" />
<path fill="#d13c36" opacity="1.00" d=" M 269.14 407.97 C 268.57 403.11 273.12 398.46 278.03 399.24 C 283.74 399.09 287.21 405.95 284.90 410.80 C 283.65 412.93 281.60 414.40 279.76 415.99 C 281.77 417.35 284.28 418.55 285.08 421.05 C 285.57 423.06 285.38 425.17 285.50 427.23 C 283.56 430.09 280.86 433.22 276.98 432.55 C 273.12 432.77 270.48 429.59 269.05 426.41 C 267.59 429.57 264.91 432.89 261.03 432.60 C 255.71 433.09 251.31 427.46 252.65 422.39 C 253.54 416.96 260.37 414.66 264.91 417.04 C 267.08 418.17 267.97 420.59 269.00 422.65 C 270.05 419.44 272.58 417.27 275.53 415.86 C 272.53 414.17 268.84 411.95 269.14 407.97 Z" />
<path fill="#d13c36" opacity="1.00" d=" M 439.51 399.83 C 441.73 399.09 444.24 398.97 446.48 399.74 C 451.53 402.03 452.85 409.95 448.56 413.59 C 444.33 417.93 435.63 414.97 434.95 408.93 C 434.18 405.31 436.31 401.51 439.51 399.83 Z" />
<path fill="#d13c36" opacity="1.00" d=" M 457.36 399.48 C 460.13 398.92 463.52 399.10 465.50 401.40 C 469.22 404.98 468.43 412.33 463.70 414.67 C 459.87 416.67 454.63 415.40 452.34 411.67 C 449.94 407.18 452.22 400.74 457.36 399.48 Z" />
<path fill="#d13c36" opacity="1.00" d=" M 556.42 399.55 C 562.14 397.43 568.60 402.87 567.07 408.89 C 566.47 415.14 557.81 417.75 553.52 413.48 C 548.96 409.66 550.51 401.02 556.42 399.55 Z" />
<path fill="#d13c36" opacity="1.00" d=" M 590.35 399.24 C 595.99 397.59 602.18 403.14 600.62 408.96 C 599.70 414.66 592.44 417.59 587.76 414.31 C 581.90 410.95 583.59 400.45 590.35 399.24 Z" />
<path fill="#d13c36" opacity="1.00" d=" M 290.19 400.00 C 292.32 399.02 294.82 399.34 297.09 399.57 C 300.82 401.18 303.07 405.62 301.83 409.57 C 300.61 414.94 293.30 417.46 289.04 413.94 C 284.25 410.72 284.99 402.47 290.19 400.00 Z" />
<path fill="#d13c36" opacity="1.00" d=" M 304.05 402.06 C 306.34 398.97 310.59 399.03 314.01 399.66 C 318.13 401.49 318.85 406.20 318.61 410.22 C 316.72 413.16 313.90 416.30 309.99 415.56 C 303.47 415.53 299.95 406.94 304.05 402.06 Z" />
<path fill="#d13c36" opacity="1.00" d=" M 322.41 400.53 C 327.39 397.13 335.33 400.68 335.44 406.95 C 335.87 413.34 327.85 418.13 322.57 414.33 C 317.64 411.46 317.58 403.54 322.41 400.53 Z" />
<path fill="#d13c36" opacity="1.00" d=" M 372.34 400.38 C 376.45 398.04 382.62 399.27 384.45 403.98 C 384.98 406.95 385.28 410.61 382.95 412.94 C 379.83 416.61 373.42 416.34 370.48 412.58 C 367.33 409.02 368.42 402.89 372.34 400.38 Z" />
<path fill="#d13c36" opacity="1.00" d=" M 388.00 401.06 C 390.32 398.66 394.04 399.21 397.02 399.65 C 401.07 401.59 402.84 406.90 400.94 410.95 C 400.03 413.55 397.32 414.68 395.11 415.93 C 398.38 417.37 401.83 420.01 401.64 423.99 C 402.09 428.40 398.55 432.80 393.98 432.65 C 388.10 433.20 383.60 426.29 386.02 421.03 C 386.84 418.28 389.64 417.10 391.98 415.93 C 390.16 414.88 388.00 414.14 386.72 412.37 C 384.31 408.97 384.89 403.83 388.00 401.06 Z" />
<path fill="#d13c36" opacity="1.00" d=" M 405.42 400.54 C 408.88 398.48 414.26 398.85 416.64 402.47 C 420.42 407.14 417.12 415.37 410.98 415.57 C 406.95 416.13 402.25 413.17 402.15 408.87 C 401.75 405.74 402.56 402.26 405.42 400.54 Z" />
<path fill="#d13c36" opacity="1.00" d=" M 422.34 400.31 C 426.12 398.39 431.80 399.08 433.70 403.37 C 437.05 409.12 431.66 417.24 424.94 415.52 C 417.64 414.68 416.07 403.68 422.34 400.31 Z" />
<path fill="#d13c36" opacity="1.00" d=" M 571.38 400.33 C 576.73 396.65 584.87 401.31 583.84 407.91 C 584.27 414.34 575.71 418.01 570.97 414.02 C 566.06 411.03 566.48 403.10 571.38 400.33 Z" />
<path fill="#d13c36" opacity="1.00" d=" M 705.22 400.14 C 710.03 397.84 716.83 400.28 717.42 406.04 C 718.66 412.44 711.03 417.92 705.39 414.63 C 699.61 412.10 699.79 402.95 705.22 400.14 Z" />
<path fill="#d13c36" opacity="1.00" d=" M 721.34 400.22 C 724.75 398.81 729.64 398.62 732.12 401.89 C 735.50 405.20 734.68 411.19 730.94 413.88 C 727.09 417.15 720.45 415.74 718.42 411.09 C 716.93 407.42 717.79 402.39 721.34 400.22 Z" />
<path fill="#d13c36" opacity="1.00" d=" M 738.27 400.20 C 743.04 397.89 750.06 400.16 750.58 406.03 C 751.87 412.21 744.77 417.51 739.13 415.03 C 733.18 412.85 732.52 402.95 738.27 400.20 Z" />
<path fill="#d13c36" opacity="1.00" d=" M 753.86 400.89 C 756.05 398.67 759.42 399.60 762.20 399.34 C 764.88 401.43 767.82 404.20 767.23 407.97 C 766.96 413.90 759.49 417.73 754.59 414.28 C 749.79 411.67 749.76 404.17 753.86 400.89 Z" />
<path fill="#d13c36" opacity="1.00" d=" M 771.27 400.27 C 775.99 397.66 783.07 400.12 783.65 405.92 C 785.19 412.48 777.00 418.23 771.39 414.54 C 766.18 411.72 766.15 403.18 771.27 400.27 Z" />
<path fill="#d13c36" opacity="1.00" d=" M 623.40 407.45 C 627.14 405.95 632.33 407.79 633.56 411.85 C 635.35 415.95 633.41 421.50 629.07 423.06 C 625.29 424.31 620.61 422.90 618.71 419.27 C 616.02 414.99 618.75 408.95 623.40 407.45 Z" />
<path fill="#d13c36" opacity="1.00" d=" M 639.45 407.66 C 644.85 404.95 651.98 409.95 650.82 416.03 C 651.02 422.64 642.02 425.89 637.44 421.63 C 632.90 417.99 633.67 409.61 639.45 407.66 Z" />
<path fill="#d13c36" opacity="1.00" d=" M 689.46 416.73 C 692.91 415.89 697.48 416.05 699.34 419.63 C 703.02 424.57 699.26 432.79 692.95 432.58 C 688.28 433.05 684.04 428.57 684.41 423.98 C 684.42 420.82 686.46 417.79 689.46 416.73 Z" />
<path fill="#d13c36" opacity="1.00" d=" M 138.55 418.62 C 145.22 414.33 154.94 415.86 160.00 421.98 C 162.58 424.76 163.47 428.55 164.25 432.16 C 165.03 426.79 167.66 421.43 172.48 418.63 C 179.61 414.03 190.09 416.21 194.77 423.31 C 199.23 429.29 198.68 438.24 193.80 443.81 C 189.87 448.11 183.81 450.33 178.04 449.35 C 170.59 448.01 164.97 441.27 164.23 433.83 C 163.46 439.24 160.79 444.58 155.75 447.16 C 147.55 452.63 135.11 448.20 131.96 438.94 C 128.82 431.73 131.79 422.62 138.55 418.62 Z" />
<path fill="#d13c36" opacity="1.00" d=" M 288.83 417.94 C 292.87 414.58 300.23 416.19 301.74 421.51 C 303.87 426.86 298.94 433.62 293.10 432.56 C 285.98 432.38 283.10 421.98 288.83 417.94 Z" />
<path fill="#d13c36" opacity="1.00" d=" M 306.34 417.26 C 309.44 415.61 314.08 415.63 316.48 418.51 C 319.42 421.64 319.46 427.34 316.19 430.26 C 313.46 433.31 308.28 433.33 305.26 430.72 C 300.99 427.50 301.30 419.61 306.34 417.26 Z" />
<path fill="#d13c36" opacity="1.00" d=" M 323.19 417.14 C 328.67 413.95 335.99 418.78 335.36 425.04 C 334.99 431.04 327.51 434.89 322.55 431.32 C 317.40 428.20 317.73 419.75 323.19 417.14 Z" />
<path fill="#d13c36" opacity="1.00" d=" M 405.47 417.54 C 409.28 414.93 415.46 416.13 417.37 420.58 C 420.33 426.04 415.45 433.80 409.06 432.59 C 401.72 432.38 399.34 421.16 405.47 417.54 Z" />
<path fill="#d13c36" opacity="1.00" d=" M 422.28 417.19 C 424.62 415.94 427.47 416.07 429.99 416.62 C 435.20 419.05 436.29 427.18 431.66 430.71 C 427.62 434.68 420.38 432.08 418.59 427.04 C 418.03 423.43 418.65 418.98 422.28 417.19 Z" />
<path fill="#d13c36" opacity="1.00" d=" M 439.23 417.11 C 443.68 414.78 449.79 417.08 450.87 422.19 C 452.88 427.94 446.93 434.38 441.00 432.44 C 433.88 431.05 432.75 420.11 439.23 417.11 Z" />
<path fill="#d13c36" opacity="1.00" d=" M 456.22 416.90 C 459.23 415.76 463.20 415.94 465.50 418.48 C 468.37 420.97 468.45 425.53 466.73 428.70 C 464.27 433.25 457.24 433.98 453.69 430.35 C 449.75 426.58 451.18 419.01 456.22 416.90 Z" />
<path fill="#d13c36" opacity="1.00" d=" M 570.15 418.21 C 572.55 416.03 576.13 415.88 579.15 416.63 C 581.72 417.74 582.91 420.40 584.03 422.77 C 585.03 420.96 585.71 418.80 587.45 417.53 C 591.55 414.74 598.16 416.12 600.11 420.91 C 602.60 425.91 598.69 432.63 593.02 432.62 C 588.71 433.18 585.64 429.48 584.06 425.96 C 582.77 428.89 580.74 432.45 577.11 432.58 C 573.98 433.09 570.65 431.77 569.00 429.02 C 566.73 425.75 567.42 421.00 570.15 418.21 Z" />
<path fill="#d13c36" opacity="1.00" d=" M 701.24 425.89 C 699.95 420.69 704.72 415.45 710.01 416.24 C 713.59 416.09 715.83 419.19 717.58 421.85 C 717.39 424.92 717.45 428.57 714.70 430.60 C 710.43 434.86 701.72 432.14 701.24 425.89 Z" />
<path fill="#d13c36" opacity="1.00" d=" M 721.39 417.38 C 725.35 414.82 731.34 416.25 733.32 420.68 C 736.64 426.44 730.43 434.29 724.03 432.41 C 717.01 431.38 715.33 420.75 721.39 417.38 Z" />
<path fill="#d13c36" opacity="1.00" d=" M 738.27 417.21 C 741.43 415.57 746.00 415.78 748.47 418.60 C 751.49 421.71 751.35 427.26 748.22 430.25 C 744.59 434.23 736.90 433.05 734.96 427.89 C 733.53 424.17 734.45 419.14 738.27 417.21 Z" />
<path fill="#d13c36" opacity="1.00" d=" M 755.20 417.02 C 760.34 414.36 767.32 417.99 767.32 423.99 C 767.87 430.41 759.83 435.19 754.55 431.37 C 749.29 428.31 749.82 419.68 755.20 417.02 Z" />
<path fill="#d13c36" opacity="1.00" d=" M 771.31 417.23 C 776.39 414.11 783.80 417.86 783.75 423.96 C 784.32 430.20 776.71 434.97 771.40 431.57 C 766.02 428.83 766.19 420.13 771.31 417.23 Z" />
<path fill="#d13c36" opacity="1.00" d=" M 878.37 417.45 C 886.14 414.04 896.11 417.34 899.96 424.99 C 903.82 432.12 901.69 442.28 894.56 446.54 C 889.03 450.46 881.03 450.54 875.58 446.41 C 870.74 442.93 867.90 436.87 868.61 430.90 C 868.96 425.02 873.11 419.85 878.37 417.45 Z" />
<path fill="#d13c36" opacity="1.00" d=" M 292.34 433.18 C 295.78 432.32 299.47 434.13 301.18 437.17 C 303.14 441.71 301.41 448.37 295.98 449.37 C 291.60 450.38 286.36 447.66 285.91 442.90 C 284.94 438.55 287.93 433.92 292.34 433.18 Z" />
<path fill="#d13c36" opacity="1.00" d=" M 408.21 433.16 C 413.82 431.68 419.46 437.28 418.00 442.93 C 417.31 448.99 409.27 451.70 404.80 447.79 C 399.56 443.83 401.55 434.26 408.21 433.16 Z" />
<path fill="#d13c36" opacity="1.00" d=" M 458.23 433.06 C 463.32 431.97 468.39 436.78 467.57 441.94 C 467.76 448.48 458.98 451.97 454.33 447.69 C 451.27 445.48 451.07 441.42 451.76 438.03 C 452.93 435.43 455.50 433.68 458.23 433.06 Z" />
<path fill="#d13c36" opacity="1.00" d=" M 473.38 433.54 C 479.64 430.95 486.39 437.82 483.88 444.01 C 482.25 450.55 472.31 451.52 469.22 445.70 C 466.32 441.44 468.61 435.22 473.38 433.54 Z" />
<path fill="#d13c36" opacity="1.00" d=" M 606.42 433.63 C 611.33 431.71 617.83 435.40 617.59 440.95 C 618.13 446.97 610.64 451.94 605.42 448.59 C 599.38 445.74 599.93 435.61 606.42 433.63 Z" />
<path fill="#d13c36" opacity="1.00" d=" M 672.52 433.75 C 675.73 432.57 679.84 433.07 682.11 435.84 C 686.08 440.34 683.41 449.14 676.99 449.47 C 672.46 450.25 668.04 446.51 667.77 442.01 C 667.37 438.61 669.31 435.02 672.52 433.75 Z" />
<path fill="#d13c36" opacity="1.00" d=" M 691.17 433.15 C 696.24 431.94 701.72 436.72 700.77 441.97 C 700.83 448.58 692.03 452.00 687.33 447.65 C 682.04 443.62 684.39 433.92 691.17 433.15 Z" />
<path fill="#d13c36" opacity="1.00" d=" M 706.44 433.47 C 709.47 432.15 713.18 433.26 715.39 435.62 C 719.88 440.01 716.61 449.64 710.01 449.50 C 706.95 449.80 703.75 448.43 702.12 445.79 C 699.85 441.36 701.33 435.07 706.44 433.47 Z" />
<path fill="#d13c36" opacity="1.00" d=" M 757.28 433.18 C 763.14 431.57 769.21 438.08 766.86 443.81 C 765.38 449.56 757.30 451.51 753.20 447.35 C 748.51 443.18 751.11 434.26 757.28 433.18 Z" />
<path fill="#d13c36" opacity="1.00" d=" M 774.13 433.01 C 778.84 432.13 783.83 436.18 783.78 441.03 C 784.10 446.07 778.93 450.48 774.01 449.46 C 770.30 448.59 766.92 445.08 767.52 441.06 C 767.14 437.08 770.50 433.88 774.13 433.01 Z" />
<path fill="#d13c36" opacity="1.00" d=" M 789.44 433.68 C 794.78 431.53 800.93 436.37 800.36 442.01 C 800.11 448.02 792.48 451.83 787.56 448.38 C 782.06 445.11 783.23 435.48 789.44 433.68 Z" />
<path fill="#d13c36" opacity="1.00" d=" M 256.34 434.32 C 261.02 431.19 268.55 434.17 268.76 440.09 C 269.85 445.57 264.44 450.88 258.96 449.36 C 251.88 448.42 250.20 437.67 256.34 434.32 Z" />
<path fill="#d13c36" opacity="1.00" d=" M 271.48 435.50 C 274.93 431.91 281.59 432.40 284.34 436.60 C 285.87 438.81 285.22 441.65 285.48 444.18 C 283.62 447.13 280.87 450.28 276.95 449.46 C 269.99 449.84 266.58 439.95 271.48 435.50 Z" />
<path fill="#d13c36" opacity="1.00" d=" M 302.85 438.11 C 304.68 433.32 311.35 431.56 315.38 434.66 C 317.59 436.10 318.37 438.72 319.33 441.03 C 318.18 444.90 315.84 449.78 311.07 449.55 C 305.14 450.44 300.38 443.41 302.85 438.11 Z" />
<path fill="#d13c36" opacity="1.00" d=" M 389.29 434.24 C 394.19 431.02 402.31 434.71 401.49 441.01 C 402.71 447.69 393.94 452.21 388.90 448.16 C 384.12 445.09 384.21 436.95 389.29 434.24 Z" />
<path fill="#d13c36" opacity="1.00" d=" M 421.22 435.11 C 424.51 432.16 430.24 432.45 432.94 436.06 C 434.95 438.27 434.33 441.45 434.61 444.19 C 432.89 446.86 430.57 449.97 426.96 449.56 C 423.32 449.98 419.84 447.40 418.68 444.03 C 418.19 440.91 418.40 437.10 421.22 435.11 Z" />
<path fill="#d13c36" opacity="1.00" d=" M 437.02 447.03 C 432.37 442.48 435.62 433.68 442.07 433.15 C 446.74 432.22 451.38 436.23 451.18 440.98 C 451.63 444.71 448.75 447.37 446.14 449.51 C 442.95 449.48 439.19 449.90 437.02 447.03 Z" />
<path fill="#d13c36" opacity="1.00" d=" M 587.48 434.63 C 592.11 430.94 599.97 434.10 600.65 440.02 C 601.70 445.43 596.38 450.87 590.90 449.49 C 583.86 448.88 581.61 438.30 587.48 434.63 Z" />
<path fill="#d13c36" opacity="1.00" d=" M 721.31 434.34 C 726.27 430.89 734.35 434.76 733.91 441.03 C 734.32 447.02 727.40 451.63 722.06 448.73 C 716.42 446.33 716.14 437.34 721.31 434.34 Z" />
<path fill="#d13c36" opacity="1.00" d=" M 636.10 453.14 C 639.20 449.21 645.73 449.21 649.01 452.92 C 653.17 457.68 649.79 466.98 643.01 466.61 C 639.06 467.21 636.30 464.17 634.44 461.16 C 634.58 458.44 634.12 455.33 636.10 453.14 Z" />
<path fill="#d13c36" opacity="1.00" d=" M 775.30 450.20 C 780.39 449.75 784.96 454.87 783.65 459.91 C 782.84 466.25 773.93 469.16 769.73 464.23 C 764.82 459.64 768.09 449.66 775.30 450.20 Z" />
<path fill="#d13c36" opacity="1.00" d=" M 140.51 451.68 C 150.46 446.63 164.07 454.68 163.84 465.98 C 164.65 474.90 156.99 483.40 148.03 483.45 C 139.99 484.29 132.18 478.04 131.02 470.09 C 129.32 462.70 133.28 454.38 140.51 451.68 Z" />
<path fill="#d13c36" opacity="1.00" d=" M 175.20 451.17 C 182.69 448.26 192.26 451.79 195.82 459.07 C 200.02 466.62 197.15 477.31 189.39 481.34 C 180.92 486.41 168.55 482.14 165.49 472.64 C 162.05 464.44 166.83 454.04 175.20 451.17 Z" />
<path fill="#d13c36" opacity="1.00" d=" M 256.37 451.27 C 261.38 448.15 269.18 451.82 268.80 458.05 C 269.58 464.22 262.42 468.61 257.08 465.92 C 251.29 463.55 250.89 454.20 256.37 451.27 Z" />
<path fill="#d13c36" opacity="1.00" d=" M 269.28 457.98 C 268.67 450.85 278.98 447.57 283.43 452.56 C 285.89 454.73 285.26 458.21 285.45 461.13 C 283.74 463.78 281.52 466.77 277.96 466.59 C 273.16 467.35 268.69 462.75 269.28 457.98 Z" />
<path fill="#d13c36" opacity="1.00" d=" M 289.35 451.36 C 292.94 449.22 298.14 449.90 300.56 453.49 C 304.48 458.04 300.77 465.94 294.97 466.45 C 291.19 467.20 287.01 464.64 286.17 460.86 C 285.30 457.47 285.89 453.06 289.35 451.36 Z" />
<path fill="#d13c36" opacity="1.00" d=" M 405.44 451.34 C 409.54 448.81 416.15 450.31 417.66 455.22 C 419.63 459.95 416.39 466.49 410.97 466.59 C 407.29 467.05 403.40 464.86 402.34 461.21 C 401.04 457.75 402.27 453.34 405.44 451.34 Z" />
<path fill="#d13c36" opacity="1.00" d=" M 419.63 453.62 C 422.47 449.20 429.74 448.86 433.03 452.93 C 435.12 455.15 434.32 458.44 434.62 461.20 C 432.81 464.25 429.84 467.23 425.96 466.63 C 422.44 466.75 420.06 463.90 418.43 461.16 C 418.70 458.65 418.07 455.80 419.63 453.62 Z" />
<path fill="#d13c36" opacity="1.00" d=" M 438.43 451.39 C 442.72 448.50 450.01 450.54 450.90 456.03 C 452.72 461.40 447.77 467.76 442.04 466.52 C 434.67 466.29 432.23 455.03 438.43 451.39 Z" />
<path fill="#d13c36" opacity="1.00" d=" M 455.29 451.22 C 460.00 448.34 467.15 451.28 467.63 457.02 C 468.81 462.45 463.45 467.96 457.96 466.52 C 450.89 465.54 448.95 454.49 455.29 451.22 Z" />
<path fill="#d13c36" opacity="1.00" d=" M 472.16 451.06 C 477.59 447.78 485.11 452.77 484.37 459.00 C 484.16 464.76 477.27 468.57 472.25 465.76 C 466.65 463.10 466.70 453.86 472.16 451.06 Z" />
<path fill="#d13c36" opacity="1.00" d=" M 605.18 451.12 C 609.96 448.48 616.77 451.46 617.57 456.99 C 618.69 463.10 611.92 468.78 606.14 466.06 C 599.92 463.94 599.43 454.08 605.18 451.12 Z" />
<path fill="#d13c36" opacity="1.00" d=" M 622.22 450.95 C 625.47 449.39 629.93 449.98 632.23 452.91 C 634.93 456.18 634.82 461.63 631.60 464.53 C 627.81 468.23 620.56 466.93 618.44 461.97 C 617.43 457.98 617.96 452.81 622.22 450.95 Z" />
<path fill="#d13c36" opacity="1.00" d=" M 651.41 456.02 C 652.68 449.96 661.43 448.08 665.41 452.65 C 667.71 454.89 667.36 458.25 667.50 461.18 C 665.65 464.11 662.92 467.28 659.04 466.56 C 653.61 466.85 650.01 460.92 651.41 456.02 Z" />
<path fill="#d13c36" opacity="1.00" d=" M 671.42 451.35 C 675.91 448.55 682.81 450.85 683.85 456.30 C 685.75 462.03 679.94 468.29 674.08 466.44 C 667.16 465.31 665.44 454.83 671.42 451.35 Z" />
<path fill="#d13c36" opacity="1.00" d=" M 688.23 451.17 C 692.13 449.11 697.68 450.03 699.87 454.13 C 701.26 457.16 701.14 461.22 698.91 463.87 C 695.35 468.34 687.03 467.24 684.94 461.86 C 683.82 458.08 684.26 453.09 688.23 451.17 Z" />
<path fill="#d13c36" opacity="1.00" d=" M 705.20 451.07 C 708.87 449.33 714.19 449.90 716.30 453.78 C 718.42 457.76 717.28 463.92 712.82 465.82 C 708.85 467.83 703.49 466.07 701.70 461.95 C 700.81 458.05 700.96 452.92 705.20 451.07 Z" />
<path fill="#d13c36" opacity="1.00" d=" M 719.58 452.61 C 723.41 448.73 730.88 449.61 733.24 454.69 C 736.21 460.05 731.07 467.43 724.98 466.67 C 721.55 466.65 719.32 463.79 717.56 461.24 C 717.87 458.33 717.02 454.74 719.58 452.61 Z" />
<path fill="#d13c36" opacity="1.00" d=" M 787.37 451.46 C 792.33 447.90 800.58 451.64 800.38 458.01 C 800.74 463.75 794.41 468.33 789.07 466.15 C 782.96 464.24 782.24 454.80 787.37 451.46 Z" />
<path fill="#d13c36" opacity="1.00" d=" M 878.37 451.56 C 885.18 448.44 893.92 450.66 898.42 456.65 C 903.65 463.18 902.78 473.91 896.33 479.31 C 889.72 485.07 878.77 484.72 872.89 478.10 C 865.14 470.40 868.10 455.51 878.37 451.56 Z" />
<path fill="#d13c36" opacity="1.00" d=" M 308.39 467.47 C 311.64 466.68 315.36 467.70 317.33 470.51 C 319.57 474.15 319.10 479.79 315.29 482.23 C 311.28 484.94 304.92 483.47 303.02 478.86 C 300.86 474.42 303.43 468.46 308.39 467.47 Z" />
<path fill="#d13c36" opacity="1.00" d=" M 324.47 467.61 C 328.55 466.26 333.67 468.34 334.89 472.63 C 336.66 477.37 332.95 483.05 327.97 483.54 C 323.90 484.05 319.36 481.12 318.97 476.87 C 318.20 472.96 320.60 468.72 324.47 467.61 Z" />
<path fill="#d13c36" opacity="1.00" d=" M 474.23 467.19 C 480.19 465.59 486.01 472.21 483.91 477.94 C 482.44 483.50 474.62 485.42 470.55 481.46 C 465.81 477.28 467.75 468.28 474.23 467.19 Z" />
<path fill="#d13c36" opacity="1.00" d=" M 691.25 467.16 C 696.34 466.15 701.69 470.63 700.78 475.96 C 700.97 482.33 692.78 485.73 687.93 482.13 C 684.25 480.25 684.06 475.58 684.78 472.02 C 685.75 469.29 688.49 467.60 691.25 467.16 Z" />
<path fill="#d13c36" opacity="1.00" d=" M 708.19 467.16 C 711.03 466.88 714.14 467.85 715.93 470.18 C 717.96 472.80 717.57 476.52 716.55 479.47 C 713.77 485.16 703.99 484.92 701.67 478.96 C 701.12 476.68 701.13 474.27 701.59 471.98 C 702.46 469.18 705.38 467.43 708.19 467.16 Z" />
<path fill="#d13c36" opacity="1.00" d=" M 723.53 467.27 C 728.75 465.76 733.69 469.87 734.43 474.99 C 733.49 477.34 733.12 480.30 730.81 481.78 C 728.00 483.90 723.73 484.23 720.87 482.06 C 715.38 478.63 716.84 468.38 723.53 467.27 Z" />
<path fill="#d13c36" opacity="1.00" d=" M 256.31 468.24 C 261.23 464.96 269.36 468.75 268.82 475.00 C 269.89 481.29 262.32 485.54 257.04 482.89 C 251.26 480.49 251.08 471.29 256.31 468.24 Z" />
<path fill="#d13c36" opacity="1.00" d=" M 272.36 468.50 C 276.56 465.60 283.25 467.14 285.23 472.01 C 285.65 474.91 286.01 478.34 283.89 480.72 C 280.82 484.12 274.89 484.66 271.48 481.46 C 268.17 477.96 268.10 471.28 272.36 468.50 Z" />
<path fill="#d13c36" opacity="1.00" d=" M 289.30 468.32 C 294.59 464.83 303.22 469.17 301.84 475.92 C 302.45 481.87 294.99 485.24 290.20 482.78 C 284.67 480.47 284.15 471.23 289.30 468.32 Z" />
<path fill="#d13c36" opacity="1.00" d=" M 438.37 468.36 C 443.05 465.19 450.85 467.90 451.15 473.98 C 452.60 480.01 445.85 485.67 440.19 483.03 C 434.13 481.07 433.30 471.80 438.37 468.36 Z" />
<path fill="#d13c36" opacity="1.00" d=" M 455.20 468.17 C 460.19 464.87 468.10 468.71 467.61 474.97 C 468.42 481.01 461.38 485.61 456.11 482.80 C 450.26 480.58 449.74 471.12 455.20 468.17 Z" />
<path fill="#d13c36" opacity="1.00" d=" M 605.25 468.25 C 609.55 465.60 616.15 467.88 617.32 472.93 C 617.57 475.39 617.73 478.13 616.17 480.22 C 613.06 484.90 604.98 484.72 602.21 479.77 C 600.19 475.96 601.25 470.35 605.25 468.25 Z" />
<path fill="#d13c36" opacity="1.00" d=" M 621.38 468.40 C 625.08 466.08 630.69 467.03 633.10 470.82 C 634.76 473.84 634.61 477.78 632.53 480.57 C 629.52 484.65 622.45 484.71 619.48 480.56 C 616.79 476.91 617.32 470.85 621.38 468.40 Z" />
<path fill="#d13c36" opacity="1.00" d=" M 638.28 468.23 C 643.26 465.20 651.33 468.65 650.74 475.02 C 651.82 481.29 644.27 485.52 639.05 482.73 C 633.40 480.33 632.83 471.18 638.28 468.23 Z" />
<path fill="#d13c36" opacity="1.00" d=" M 655.19 468.22 C 660.09 465.11 668.10 468.81 667.43 475.00 C 668.36 481.33 660.63 485.68 655.35 482.70 C 649.75 479.95 649.50 471.06 655.19 468.22 Z" />
<path fill="#d13c36" opacity="1.00" d=" M 671.37 468.31 C 675.12 466.06 680.86 466.84 683.15 470.81 C 685.00 474.58 684.35 480.09 680.46 482.34 C 676.19 485.14 669.33 483.01 668.07 477.86 C 667.18 474.47 668.01 470.06 671.37 468.31 Z" />
<path fill="#d13c36" opacity="1.00" d=" M 771.29 468.23 C 775.70 465.36 782.35 467.89 783.52 473.05 C 783.78 475.47 783.79 478.15 782.28 480.21 C 779.69 484.41 773.05 484.78 769.68 481.36 C 766.08 477.77 766.69 470.71 771.29 468.23 Z" />
<path fill="#d13c36" opacity="1.00" d=" M 787.37 468.47 C 792.33 464.88 800.41 468.72 800.32 474.99 C 800.85 480.90 793.68 485.63 788.48 482.73 C 782.85 480.47 782.31 471.61 787.37 468.47 Z" />
<path fill="#d13c36" opacity="1.00" d=" M 210.54 484.71 C 217.20 483.08 224.89 485.49 228.69 491.37 C 233.64 498.34 232.01 509.02 224.99 514.00 C 217.34 519.96 204.63 517.73 200.12 508.94 C 195.10 499.92 200.21 486.95 210.54 484.71 Z" />
<path fill="#d13c36" opacity="1.00" d=" M 259.18 484.13 C 265.25 482.56 270.75 489.15 268.62 494.91 C 267.12 500.80 258.73 502.49 254.72 498.21 C 250.33 493.87 252.83 484.93 259.18 484.13 Z" />
<path fill="#d13c36" opacity="1.00" d=" M 276.15 484.01 C 279.78 483.52 283.92 485.39 285.10 489.05 C 286.17 492.76 285.53 497.67 281.65 499.49 C 276.70 502.77 269.09 499.08 269.25 492.95 C 268.43 488.52 271.79 484.48 276.15 484.01 Z" />
<path fill="#d13c36" opacity="1.00" d=" M 443.06 484.03 C 448.58 483.56 452.73 489.65 450.89 494.72 C 449.46 501.00 440.13 502.69 436.58 497.27 C 432.39 492.36 436.45 483.56 443.06 484.03 Z" />
<path fill="#d13c36" opacity="1.00" d=" M 457.37 484.20 C 461.24 482.94 465.69 485.27 467.30 488.94 C 468.02 492.75 467.61 497.87 463.46 499.55 C 458.37 502.98 450.86 497.96 451.54 492.02 C 451.12 488.37 453.92 485.05 457.37 484.20 Z" />
<path fill="#d13c36" opacity="1.00" d=" M 473.39 484.45 C 479.88 481.87 486.58 489.46 483.88 495.69 C 481.60 502.06 471.37 502.34 468.74 496.12 C 466.20 491.84 468.65 485.83 473.39 484.45 Z" />
<path fill="#d13c36" opacity="1.00" d=" M 656.41 484.45 C 661.43 482.48 668.03 486.33 667.49 492.04 C 668.24 498.25 660.56 502.78 655.35 499.54 C 649.22 496.66 649.74 486.37 656.41 484.45 Z" />
<path fill="#d13c36" opacity="1.00" d=" M 706.38 484.40 C 710.40 482.90 715.70 484.78 716.94 489.14 C 717.86 492.71 717.17 497.46 713.58 499.34 C 709.84 501.84 704.39 500.53 701.99 496.82 C 700.12 492.40 700.94 485.70 706.38 484.40 Z" />
<path fill="#d13c36" opacity="1.00" d=" M 791.15 484.10 C 797.45 482.94 802.54 490.37 799.57 495.93 C 797.11 502.31 786.75 502.12 784.53 495.68 C 782.12 490.83 785.60 484.26 791.15 484.10 Z" />
<path fill="#d13c36" opacity="1.00" d=" M 846.43 484.86 C 852.65 483.21 859.97 484.61 864.15 489.80 C 870.92 497.38 868.72 510.97 859.38 515.40 C 851.34 520.00 839.95 516.17 836.40 507.62 C 832.58 498.97 837.14 487.54 846.43 484.86 Z" />
<path fill="#d13c36" opacity="1.00" d=" M 880.46 484.75 C 887.83 482.62 896.52 485.99 899.91 493.00 C 903.32 500.19 901.47 510.17 894.47 514.54 C 887.11 519.48 875.95 517.57 871.22 509.89 C 865.01 501.18 869.98 487.29 880.46 484.75 Z" />
<path fill="#d13c36" opacity="1.00" d=" M 174.42 485.59 C 182.09 482.02 192.40 485.42 195.92 493.26 C 199.76 500.57 197.28 510.72 189.96 514.86 C 182.01 519.96 169.74 516.96 165.96 508.04 C 162.03 499.92 165.88 488.91 174.42 485.59 Z" />
<path fill="#d13c36" opacity="1.00" d=" M 289.31 485.32 C 293.37 482.83 300.07 484.08 301.54 489.05 C 302.08 492.21 302.40 496.31 299.52 498.49 C 296.10 501.56 290.21 501.34 287.39 497.57 C 284.92 493.88 285.15 487.72 289.31 485.32 Z" />
<path fill="#d13c36" opacity="1.00" d=" M 306.23 485.15 C 311.27 482.11 319.37 485.58 318.55 492.02 C 319.64 498.47 311.59 502.88 306.35 499.64 C 301.03 496.82 300.96 488.05 306.23 485.15 Z" />
<path fill="#d13c36" opacity="1.00" d=" M 323.21 484.99 C 327.80 482.69 334.39 485.13 335.19 490.52 C 336.88 496.98 329.11 503.16 323.24 499.80 C 317.30 497.25 317.34 487.63 323.21 484.99 Z" />
<path fill="#d13c36" opacity="1.00" d=" M 638.22 485.25 C 642.35 482.85 648.66 484.22 650.44 488.95 C 651.22 492.41 651.01 496.79 647.82 499.01 C 644.39 501.39 638.86 501.24 636.25 497.68 C 633.19 494.06 634.13 487.70 638.22 485.25 Z" />
<path fill="#d13c36" opacity="1.00" d=" M 671.31 485.36 C 675.50 482.75 682.25 484.13 683.70 489.28 C 685.94 494.80 681.16 501.63 675.06 500.55 C 667.65 500.17 665.08 489.10 671.31 485.36 Z" />
<path fill="#d13c36" opacity="1.00" d=" M 688.25 485.14 C 693.33 482.16 701.42 485.47 700.77 492.01 C 701.61 498.13 694.35 502.61 689.08 499.84 C 683.20 497.62 682.73 488.01 688.25 485.14 Z" />
<path fill="#d13c36" opacity="1.00" d=" M 721.19 485.18 C 726.26 482.04 734.31 485.58 733.82 492.00 C 734.66 498.06 727.41 502.54 722.18 499.87 C 716.53 497.47 715.77 488.18 721.19 485.18 Z" />
<path fill="#d13c36" opacity="1.00" d=" M 335.56 509.96 C 334.98 505.22 339.21 500.75 344.00 501.37 C 347.72 501.16 350.32 504.24 351.94 507.19 C 353.31 504.44 355.52 501.53 358.88 501.40 C 364.21 500.08 369.85 505.61 368.11 510.96 C 367.87 514.01 365.28 515.81 363.05 517.47 C 360.55 517.36 357.76 517.94 355.57 516.40 C 353.73 515.26 352.93 513.11 351.90 511.33 C 350.84 514.18 348.76 516.37 345.97 517.56 C 348.02 519.07 350.31 520.50 351.44 522.90 C 351.59 524.82 351.07 526.75 351.34 528.68 C 351.77 528.74 352.64 528.87 353.07 528.94 C 352.96 526.70 351.70 524.24 352.92 522.13 C 355.40 517.35 362.93 516.31 366.32 520.66 C 370.59 524.92 367.99 533.59 361.96 534.59 C 358.54 535.26 354.08 533.82 353.18 530.10 C 352.38 530.08 351.58 530.08 350.78 530.09 C 348.94 535.31 341.31 536.07 337.68 532.34 C 335.14 530.03 335.21 526.21 335.99 523.15 C 336.56 520.54 339.11 519.38 341.01 517.88 C 338.55 515.83 335.14 513.67 335.56 509.96 Z" />
<path fill="#d13c36" opacity="1.00" d=" M 370.22 504.34 C 372.43 501.26 376.83 500.63 380.21 501.88 C 382.53 502.81 383.67 505.18 384.99 507.13 C 386.62 504.51 388.67 501.49 392.12 501.39 C 397.14 500.38 402.26 504.82 401.73 509.96 C 401.85 513.71 398.44 516.02 395.69 517.88 C 397.86 519.18 400.28 520.54 401.27 523.04 C 401.57 525.06 401.53 527.11 401.60 529.16 C 399.72 532.12 396.86 535.22 392.98 534.67 C 387.72 534.80 383.69 529.03 385.48 524.11 C 385.87 521.00 388.55 519.19 391.13 517.95 C 388.46 516.44 386.22 514.29 385.01 511.44 C 383.57 514.62 380.83 517.79 377.00 517.59 C 373.11 518.09 370.44 514.91 368.38 512.13 C 368.63 509.48 368.33 506.48 370.22 504.34 Z" />
<path fill="#d13c36" opacity="1.00" d=" M 407.41 501.58 C 409.55 501.16 411.92 501.09 413.94 502.06 C 419.02 504.52 419.62 512.75 414.99 515.95 C 412.41 518.14 408.39 518.16 405.57 516.45 C 399.96 513.25 400.98 503.18 407.41 501.58 Z" />
<path fill="#d13c36" opacity="1.00" d=" M 422.65 501.94 C 424.92 501.06 427.50 501.10 429.83 501.71 C 435.82 503.91 436.53 513.80 430.63 516.54 C 425.77 519.63 418.32 515.85 418.38 509.97 C 417.91 506.69 419.67 503.36 422.65 501.94 Z" />
<path fill="#d13c36" opacity="1.00" d=" M 458.33 501.22 C 463.47 500.20 468.61 504.74 467.88 510.01 C 468.04 516.37 459.61 519.96 454.79 516.21 C 449.03 512.48 451.02 501.56 458.33 501.22 Z" />
<path fill="#d13c36" opacity="1.00" d=" M 709.09 501.18 C 716.36 500.23 720.19 510.48 715.11 515.13 C 711.36 519.10 704.02 518.05 701.67 513.09 C 701.12 509.99 700.58 506.28 702.79 503.68 C 704.30 501.85 706.80 501.23 709.09 501.18 Z" />
<path fill="#d13c36" opacity="1.00" d=" M 735.54 504.49 C 738.13 500.78 743.76 500.24 747.37 502.69 C 751.90 505.85 751.39 513.83 746.48 516.37 C 742.80 518.80 736.52 517.64 735.17 513.08 C 734.38 513.08 733.60 513.10 732.83 513.14 C 730.82 518.99 721.14 519.14 718.56 513.65 C 717.41 510.21 716.91 505.68 719.97 503.06 C 723.58 500.26 730.00 500.34 732.64 504.47 C 734.30 506.56 733.88 509.49 733.20 511.88 C 733.47 511.99 734.00 512.21 734.26 512.32 C 734.35 509.70 733.70 506.67 735.54 504.49 Z" />
<path fill="#d13c36" opacity="1.00" d=" M 273.18 502.14 C 278.23 499.27 286.17 502.62 285.49 509.03 C 286.59 515.26 278.68 519.54 273.58 516.66 C 267.86 514.24 267.70 504.91 273.18 502.14 Z" />
<path fill="#d13c36" opacity="1.00" d=" M 289.30 502.25 C 293.46 499.99 300.03 501.14 301.64 506.07 C 302.13 509.23 302.61 513.42 299.62 515.53 C 295.90 518.75 288.91 518.21 286.64 513.50 C 285.07 509.80 285.43 504.36 289.30 502.25 Z" />
<path fill="#d13c36" opacity="1.00" d=" M 304.95 502.99 C 307.06 500.94 310.27 500.99 312.99 501.36 C 315.53 501.68 316.96 504.08 318.59 505.77 C 318.48 508.12 318.82 510.57 318.12 512.86 C 316.03 517.61 309.09 519.08 305.11 515.82 C 301.33 512.76 301.15 506.11 304.95 502.99 Z" />
<path fill="#d13c36" opacity="1.00" d=" M 322.29 502.40 C 327.40 499.05 335.54 502.49 335.32 508.98 C 335.79 515.01 328.60 519.68 323.32 516.68 C 317.82 514.31 317.26 505.52 322.29 502.40 Z" />
<path fill="#d13c36" opacity="1.00" d=" M 439.18 501.91 C 444.33 499.38 451.59 502.86 451.30 509.01 C 452.09 515.33 444.49 519.52 439.21 516.74 C 433.48 514.11 433.49 504.57 439.18 501.91 Z" />
<path fill="#d13c36" opacity="1.00" d=" M 655.23 502.11 C 659.41 499.97 665.42 501.50 667.14 506.15 C 667.64 508.84 667.86 511.98 666.19 514.33 C 663.15 518.65 655.75 518.55 652.76 514.21 C 649.87 510.50 651.17 504.42 655.23 502.11 Z" />
<path fill="#d13c36" opacity="1.00" d=" M 671.36 502.33 C 675.51 500.01 682.44 501.01 683.76 506.25 C 685.93 511.83 681.20 518.67 675.02 517.54 C 667.54 517.27 665.07 505.95 671.36 502.33 Z" />
<path fill="#d13c36" opacity="1.00" d=" M 684.49 505.83 C 686.99 501.28 693.27 499.75 697.61 502.45 C 702.16 505.74 701.92 514.08 696.62 516.50 C 693.09 518.62 688.18 517.49 685.74 514.25 C 683.97 511.81 684.76 508.62 684.49 505.83 Z" />
<path fill="#d13c36" opacity="1.00" d=" M 176.48 518.80 C 183.13 516.66 190.98 519.39 194.82 525.23 C 200.44 533.14 197.56 545.57 188.69 549.75 C 180.49 554.24 169.10 550.31 165.69 541.54 C 161.80 532.64 167.15 521.43 176.48 518.80 Z" />
<path fill="#d13c36" opacity="1.00" d=" M 275.54 518.33 C 279.59 517.26 283.34 519.46 285.42 522.88 C 285.28 525.70 286.17 528.91 284.34 531.37 C 281.70 535.20 275.69 535.52 272.07 532.96 C 267.01 529.00 268.91 519.36 275.54 518.33 Z" />
<path fill="#d13c36" opacity="1.00" d=" M 292.14 518.06 C 298.12 516.23 303.94 522.74 301.89 528.50 C 300.77 534.44 292.55 536.51 288.35 532.51 C 283.68 528.34 285.52 518.98 292.14 518.06 Z" />
<path fill="#d13c36" opacity="1.00" d=" M 408.27 518.17 C 414.45 516.47 419.85 523.08 417.89 528.91 C 416.63 534.44 409.13 536.62 404.91 532.99 C 399.54 529.15 401.31 518.88 408.27 518.17 Z" />
<path fill="#d13c36" opacity="1.00" d=" M 425.24 518.17 C 430.50 516.89 435.29 521.87 434.74 527.04 C 434.82 533.01 427.33 536.75 422.42 533.68 C 416.01 530.37 417.63 518.64 425.24 518.17 Z" />
<path fill="#d13c36" opacity="1.00" d=" M 441.28 518.12 C 446.62 516.46 452.14 521.63 451.20 527.07 C 451.30 532.89 444.13 536.53 439.25 533.80 C 432.78 530.79 433.90 519.17 441.28 518.12 Z" />
<path fill="#d13c36" opacity="1.00" d=" M 846.57 518.84 C 855.82 515.53 866.54 522.37 868.00 531.95 C 869.70 540.24 864.07 548.86 855.91 550.91 C 846.77 553.84 835.86 546.78 835.30 537.07 C 834.07 529.25 839.03 521.23 846.57 518.84 Z" />
<path fill="#d13c36" opacity="1.00" d=" M 208.34 519.44 C 215.81 516.02 225.49 519.33 229.29 526.61 C 233.44 533.48 231.74 543.38 225.16 548.11 C 217.93 553.69 206.54 552.15 201.27 544.63 C 195.03 536.47 198.67 523.11 208.34 519.44 Z" />
<path fill="#d13c36" opacity="1.00" d=" M 306.19 519.11 C 311.30 516.03 319.28 519.62 318.62 526.09 C 319.55 531.54 313.87 535.64 308.84 534.43 C 301.67 533.60 299.96 522.41 306.19 519.11 Z" />
<path fill="#d13c36" opacity="1.00" d=" M 322.44 533.40 C 317.08 530.12 317.89 520.51 324.01 518.53 C 327.91 517.26 332.82 518.39 334.62 522.37 C 336.58 526.34 335.07 531.90 330.81 533.66 C 330.86 534.51 330.93 535.36 331.01 536.23 C 335.29 537.41 336.18 543.03 334.68 546.66 C 332.66 551.98 324.66 553.33 321.01 548.99 C 319.40 547.40 319.24 545.02 318.58 542.99 C 319.43 540.61 320.14 537.88 322.40 536.42 C 324.46 534.66 327.28 535.44 329.72 535.51 C 327.51 534.09 324.53 535.07 322.44 533.40 Z" />
<path fill="#d13c36" opacity="1.00" d=" M 371.66 519.69 C 376.51 515.75 385.46 519.28 384.75 525.99 C 385.50 530.20 382.21 533.36 378.66 534.87 C 381.99 536.23 385.24 539.02 384.83 543.00 C 385.37 546.66 382.90 549.58 380.10 551.52 C 377.32 551.35 374.13 552.16 371.83 550.17 C 366.03 546.38 368.19 536.05 375.15 534.96 C 372.20 533.97 369.94 531.85 368.45 529.17 C 368.84 525.88 368.54 521.78 371.66 519.69 Z" />
<path fill="#d13c36" opacity="1.00" d=" M 451.53 522.93 C 453.55 519.73 456.93 517.30 460.90 518.11 C 468.20 518.50 470.47 529.64 464.39 533.24 C 462.28 534.41 458.87 535.87 457.04 533.53 C 457.04 534.51 457.02 535.50 456.98 536.49 C 458.13 534.11 461.06 535.38 462.98 535.66 C 467.08 537.37 469.33 542.50 467.43 546.60 C 465.67 552.07 457.56 553.32 453.83 549.24 C 450.20 545.77 450.64 538.50 455.50 536.34 C 455.80 535.87 456.38 534.92 456.67 534.45 C 454.68 532.97 452.37 531.53 451.65 528.99 C 451.44 526.97 451.53 524.94 451.53 522.93 Z" />
<path fill="#d13c36" opacity="1.00" d=" M 671.37 519.38 C 675.43 516.67 682.14 518.01 683.69 523.02 C 684.10 526.06 684.47 529.79 682.05 532.14 C 678.67 535.96 671.76 535.21 669.06 530.96 C 666.43 527.30 667.77 521.87 671.37 519.38 Z" />
<path fill="#d13c36" opacity="1.00" d=" M 687.40 519.64 C 692.36 515.76 701.28 519.19 700.72 525.99 C 701.76 532.44 693.62 536.89 688.44 533.44 C 683.43 530.80 682.92 523.01 687.40 519.64 Z" />
<path fill="#d13c36" opacity="1.00" d=" M 704.34 519.41 C 706.86 517.76 710.16 517.82 712.95 518.70 C 718.36 521.14 719.16 529.85 714.14 533.08 C 710.26 536.11 703.69 534.68 701.69 530.08 C 700.73 526.43 700.78 521.65 704.34 519.41 Z" />
<path fill="#d13c36" opacity="1.00" d=" M 718.19 529.90 C 717.12 526.25 717.36 521.30 721.03 519.20 C 724.48 517.43 729.65 517.42 732.14 520.84 C 734.39 523.07 733.61 526.45 733.52 529.29 C 733.95 529.25 734.80 529.18 735.23 529.14 C 731.86 524.57 736.48 517.41 742.06 518.13 C 748.80 517.19 752.97 525.97 748.99 531.03 C 746.00 535.89 737.08 535.87 735.24 530.09 C 734.41 530.07 733.59 530.08 732.78 530.09 C 730.67 536.27 720.19 536.10 718.19 529.90 Z" />
<path fill="#d13c36" opacity="1.00" d=" M 335.54 543.05 C 334.99 536.37 343.56 533.04 348.55 536.45 C 353.07 539.56 352.92 547.33 348.29 550.28 C 346.16 552.00 343.29 551.42 340.77 551.60 C 338.01 549.56 334.87 546.91 335.54 543.05 Z" />
<path fill="#d13c36" opacity="1.00" d=" M 359.25 535.19 C 362.10 534.84 365.21 535.66 366.88 538.16 C 370.94 543.24 366.87 552.56 359.97 551.62 C 352.98 552.31 349.74 542.70 353.89 537.88 C 355.16 536.20 357.16 535.25 359.25 535.19 Z" />
<path fill="#d13c36" opacity="1.00" d=" M 388.36 536.57 C 392.14 534.18 398.40 534.66 400.55 539.10 C 403.15 543.52 400.92 549.80 396.00 551.42 C 393.56 551.60 390.67 552.07 388.64 550.38 C 384.20 547.31 383.91 539.74 388.36 536.57 Z" />
<path fill="#d13c36" opacity="1.00" d=" M 405.31 536.29 C 407.91 534.87 411.18 534.91 413.95 535.79 C 418.67 538.16 419.79 545.37 416.09 549.12 C 413.04 552.50 406.96 552.49 403.96 549.04 C 400.69 545.49 401.21 539.00 405.31 536.29 Z" />
<path fill="#d13c36" opacity="1.00" d=" M 422.18 536.02 C 424.59 534.83 427.53 534.99 430.10 535.61 C 435.93 538.15 436.39 547.83 430.71 550.78 C 426.69 552.66 420.94 551.40 419.06 547.09 C 417.77 543.25 418.34 538.21 422.18 536.02 Z" />
<path fill="#d13c36" opacity="1.00" d=" M 438.36 536.43 C 440.53 534.81 443.50 535.09 446.03 535.52 C 451.21 537.27 452.90 544.43 449.68 548.65 C 446.14 553.50 437.28 552.30 435.36 546.51 C 434.04 542.95 435.04 538.53 438.36 536.43 Z" />
<path fill="#d13c36" opacity="1.00" d=" M 688.29 536.23 C 691.25 534.76 695.56 534.48 698.11 536.91 C 702.36 540.33 701.69 548.28 696.68 550.71 C 693.31 552.39 688.66 551.75 686.27 548.70 C 683.13 545.08 683.98 538.56 688.29 536.23 Z" />
<path fill="#d13c36" opacity="1.00" d=" M 703.92 536.82 C 706.40 534.43 710.10 535.36 713.20 535.35 C 717.19 538.12 718.91 543.93 716.07 548.09 C 713.25 552.62 705.70 552.85 702.69 548.44 C 700.29 544.99 700.50 539.55 703.92 536.82 Z" />
<path fill="#d13c36" opacity="1.00" d=" M 722.99 551.35 C 716.49 549.21 715.62 538.47 722.03 535.69 C 725.69 534.68 730.33 534.85 732.58 538.41 C 734.86 540.39 731.77 544.31 734.00 545.98 C 736.08 544.51 733.37 540.97 735.16 539.04 C 737.94 533.99 746.27 533.78 749.29 538.70 C 751.83 542.75 750.42 548.85 745.97 550.94 C 742.22 552.48 736.38 551.71 735.21 547.14 C 734.40 547.10 733.60 547.08 732.80 547.08 C 731.69 551.24 726.64 552.12 722.99 551.35 Z" />
<path fill="#d13c36" opacity="1.00" d=" M 212.38 552.41 C 220.07 551.02 228.09 555.93 230.50 563.34 C 233.85 571.23 229.37 581.25 221.49 584.40 C 214.47 587.32 205.54 585.11 201.23 578.70 C 197.10 572.88 197.17 564.25 201.65 558.63 C 204.18 555.19 208.24 553.16 212.38 552.41 Z" />
<path fill="#d13c36" opacity="1.00" d=" M 244.43 552.72 C 250.39 551.43 257.14 553.10 261.08 557.95 C 267.17 564.71 266.49 576.53 258.99 581.99 C 251.96 587.84 240.36 586.36 235.12 578.83 C 228.25 569.98 233.18 554.95 244.43 552.72 Z" />
<path fill="#d13c36" opacity="1.00" d=" M 342.24 552.24 C 345.99 551.48 350.00 553.47 351.46 557.03 C 352.07 560.01 352.34 563.69 349.98 566.04 C 346.71 569.99 339.41 569.63 336.73 565.16 C 333.70 560.48 336.25 552.77 342.24 552.24 Z" />
<path fill="#d13c36" opacity="1.00" d=" M 804.42 559.46 C 809.13 551.78 820.55 550.04 827.69 555.25 C 834.03 559.73 836.67 569.00 833.02 575.99 C 829.98 582.63 822.39 586.51 815.23 585.52 C 815.24 585.74 815.26 586.17 815.27 586.38 C 824.35 584.74 833.60 591.92 834.54 601.03 C 836.07 611.15 826.23 621.04 816.08 619.46 C 808.30 618.61 801.45 611.91 801.27 603.95 C 800.83 598.48 803.41 593.01 807.68 589.65 C 809.50 588.18 811.98 587.73 813.54 585.91 C 812.97 584.27 810.90 584.22 809.66 583.31 C 801.41 578.87 799.10 566.98 804.42 559.46 Z" />
<path fill="#d13c36" opacity="1.00" d=" M 354.89 567.01 C 349.91 563.17 351.79 553.74 358.01 552.38 C 360.70 551.90 363.77 552.10 365.76 554.22 C 368.46 556.34 368.09 560.11 368.61 563.15 C 367.00 565.13 365.49 567.39 363.06 568.42 C 360.31 568.86 357.07 569.07 354.89 567.01 Z" />
<path fill="#d13c36" opacity="1.00" d=" M 368.37 557.87 C 370.29 555.32 372.40 552.07 376.05 552.24 C 381.43 551.32 385.96 556.76 384.81 561.93 C 384.45 568.29 375.61 570.97 371.28 566.71 C 368.67 564.58 368.73 560.91 368.37 557.87 Z" />
<path fill="#d13c36" opacity="1.00" d=" M 389.21 553.08 C 392.64 551.41 397.53 551.88 399.90 555.16 C 401.91 557.60 402.13 561.16 401.11 564.07 C 398.84 569.70 390.00 570.41 386.62 565.52 C 383.86 561.61 384.95 555.46 389.21 553.08 Z" />
<path fill="#d13c36" opacity="1.00" d=" M 719.27 555.38 C 722.15 551.35 728.94 551.03 732.11 554.86 C 733.42 556.15 733.67 558.05 734.18 559.74 C 733.96 552.92 743.21 549.65 747.84 554.19 C 753.07 558.48 750.14 568.75 743.01 568.59 C 738.53 569.41 734.24 565.79 734.21 561.27 C 733.70 565.76 729.53 569.56 724.88 568.64 C 718.53 568.72 715.53 559.97 719.27 555.38 Z" />
<path fill="#d13c36" opacity="1.00" d=" M 844.40 553.72 C 852.97 549.44 864.38 554.24 867.26 563.38 C 870.08 570.59 867.01 579.39 860.23 583.16 C 853.00 587.79 842.48 585.51 837.82 578.32 C 832.22 570.31 835.28 557.68 844.40 553.72 Z" />
<path fill="#d13c36" opacity="1.00" d=" M 356.28 570.17 C 359.46 568.57 363.88 569.00 366.33 571.78 C 368.86 574.34 368.85 578.44 367.55 581.60 C 365.07 587.08 355.90 587.42 353.11 582.04 C 350.63 578.09 352.15 572.35 356.28 570.17 Z" />
<path fill="#d13c36" opacity="1.00" d=" M 372.41 570.43 C 375.64 568.41 380.52 568.87 382.96 571.97 C 386.83 575.95 385.24 583.56 379.97 585.45 C 377.01 586.02 373.39 586.19 371.07 583.92 C 367.08 580.41 367.88 573.14 372.41 570.43 Z" />
<path fill="#d13c36" opacity="1.00" d=" M 738.30 570.23 C 743.17 567.25 750.82 570.97 750.46 576.97 C 751.15 582.16 746.16 586.98 740.95 585.70 C 733.45 585.27 731.84 573.39 738.30 570.23 Z" />
<path fill="#d13c36" opacity="1.00" d=" M 278.43 586.70 C 288.39 584.15 299.24 592.63 298.66 602.99 C 299.13 611.63 291.52 619.38 282.96 619.53 C 275.19 620.25 267.72 614.52 266.00 606.99 C 263.50 598.32 269.51 588.33 278.43 586.70 Z" />
<path fill="#d13c36" opacity="1.00" d=" M 780.50 586.79 C 786.14 585.49 792.65 586.88 796.50 591.43 C 802.22 597.37 802.48 607.79 796.90 613.91 C 793.46 617.78 788.16 619.98 782.99 619.52 C 774.70 619.10 767.54 611.33 768.12 602.98 C 767.75 595.53 773.30 588.49 780.50 586.79 Z" />
<path fill="#d13c36" opacity="1.00" d=" M 868.58 603.93 C 867.85 594.55 876.40 585.25 886.01 586.29 C 895.41 586.18 902.73 595.61 901.79 604.67 C 901.91 604.70 902.14 604.76 902.26 604.79 C 902.12 600.95 902.60 596.95 904.95 593.78 C 909.60 586.27 920.67 584.01 927.95 588.98 C 935.53 593.61 937.95 604.64 932.99 612.00 C 928.29 619.46 917.41 621.86 910.02 617.04 C 905.57 614.60 903.51 609.72 902.00 605.15 C 900.57 613.20 893.31 619.90 884.96 619.61 C 876.46 619.72 868.79 612.44 868.58 603.93 Z" />
<path fill="#d13c36" opacity="1.00" d=" M 242.33 587.39 C 248.91 584.79 257.21 586.64 261.48 592.45 C 267.63 599.83 265.66 612.28 257.41 617.28 C 250.52 621.46 240.42 620.15 235.59 613.42 C 228.81 605.24 232.14 591.06 242.33 587.39 Z" />
<path fill="#d13c36" opacity="1.00" d=" M 844.49 587.71 C 853.61 583.16 865.56 589.10 867.65 599.00 C 870.05 606.80 865.46 615.54 857.92 618.39 C 850.88 621.29 842.02 618.73 837.79 612.35 C 832.22 604.29 835.22 591.59 844.49 587.71 Z" />
<path fill="#d13c36" opacity="1.00" d=" M 311.50 620.94 C 321.42 618.05 332.36 626.68 331.82 636.97 C 332.63 646.48 323.30 654.78 313.99 653.65 C 303.58 653.42 296.50 641.62 299.76 632.07 C 301.40 626.65 306.06 622.38 311.50 620.94 Z" />
<path fill="#d13c36" opacity="1.00" d=" M 747.47 620.84 C 757.01 618.39 767.18 626.32 767.53 636.04 C 768.43 645.57 759.56 654.65 749.96 653.63 C 741.73 653.59 734.69 646.15 734.63 638.02 C 734.05 630.21 739.84 622.52 747.47 620.84 Z" />
<path fill="#d13c36" opacity="1.00" d=" M 941.05 625.02 C 947.31 618.85 958.61 619.03 964.46 625.71 C 970.28 631.59 970.63 641.84 965.11 648.04 C 962.51 651.50 958.20 652.77 954.28 654.05 C 957.68 655.29 961.33 656.44 964.00 659.03 C 969.75 664.32 970.39 673.84 966.46 680.35 C 961.85 687.81 951.10 689.68 943.78 685.25 C 934.75 680.17 933.30 665.90 940.96 659.01 C 943.61 656.41 947.30 655.43 950.65 654.07 C 946.74 652.82 942.56 651.44 939.94 648.07 C 934.44 641.64 934.68 630.79 941.05 625.02 Z" />
<path fill="#d13c36" opacity="1.00" d=" M 276.34 621.48 C 283.12 618.84 291.44 621.40 295.53 627.42 C 299.71 633.20 299.76 641.66 295.33 647.31 C 289.22 656.13 274.20 655.65 268.57 646.52 C 262.24 638.21 266.34 624.68 276.34 621.48 Z" />
<path fill="#d13c36" opacity="1.00" d=" M 780.14 620.88 C 790.15 617.92 801.05 626.69 800.86 636.99 C 801.45 646.47 792.30 654.97 782.88 653.65 C 772.92 653.17 765.59 642.31 768.34 632.84 C 769.66 627.05 774.51 622.47 780.14 620.88 Z" />
<path fill="#d13c36" opacity="1.00" d=" M 812.37 621.46 C 820.91 617.85 831.13 623.54 833.78 632.13 C 837.70 642.19 828.70 654.29 817.97 653.68 C 809.08 654.03 800.89 646.01 801.27 637.08 C 801.24 630.22 805.95 623.76 812.37 621.46 Z" />
<path fill="#d13c36" opacity="1.00" d=" M 845.44 621.60 C 855.62 616.92 868.56 625.74 867.99 636.90 C 868.88 645.82 860.76 653.94 851.96 653.74 C 842.94 654.32 834.45 646.14 835.10 637.03 C 834.68 630.30 839.27 623.99 845.44 621.60 Z" />
<path fill="#d13c36" opacity="1.00" d=" M 879.31 621.47 C 888.95 617.29 900.85 624.73 901.71 635.10 C 903.25 644.45 895.29 653.55 885.92 653.72 C 876.29 654.65 867.76 645.51 868.46 636.06 C 868.91 629.65 873.26 623.69 879.31 621.47 Z" />
<path fill="#d13c36" opacity="1.00" d=" M 913.31 621.40 C 920.62 618.45 929.31 622.06 933.18 628.74 C 938.14 636.53 934.78 648.13 926.45 652.09 C 918.35 656.27 907.07 652.64 903.67 643.99 C 899.62 635.51 904.20 624.17 913.31 621.40 Z" />
<path fill="#d13c36" opacity="1.00" d=" M 345.43 654.78 C 354.56 652.63 364.46 659.65 365.38 668.96 C 366.41 678.25 358.67 687.96 349.03 687.64 C 340.65 688.14 332.93 681.15 332.28 672.84 C 331.17 664.56 337.41 656.49 345.43 654.78 Z" />
<path fill="#d13c36" opacity="1.00" d=" M 647.41 654.76 C 654.47 653.36 662.17 656.94 665.39 663.43 C 668.89 670.42 666.87 679.83 660.52 684.51 C 653.29 689.96 641.66 688.03 636.77 680.35 C 633.89 676.12 633.67 670.62 634.94 665.81 C 636.63 660.14 641.74 656.02 647.41 654.76 Z" />
<path fill="#d13c36" opacity="1.00" d=" M 680.58 654.86 C 688.20 652.99 696.40 657.52 699.45 664.60 C 703.36 673.62 697.48 685.64 687.59 687.34 C 679.65 689.23 670.96 684.42 668.55 676.60 C 664.79 667.59 671.21 656.72 680.58 654.86 Z" />
<path fill="#d13c36" opacity="1.00" d=" M 714.52 654.76 C 724.18 652.72 734.66 660.89 733.92 671.00 C 734.61 680.15 726.05 688.27 717.01 687.60 C 708.63 687.70 701.30 680.28 701.16 671.97 C 700.30 663.89 706.46 655.88 714.52 654.76 Z" />
<path fill="#d13c36" opacity="1.00" d=" M 982.49 654.87 C 991.99 652.38 1002.54 659.99 1002.59 669.93 C 1003.73 678.91 996.07 687.71 986.99 687.62 C 979.20 688.27 971.63 682.63 969.93 675.02 C 967.49 666.34 973.79 656.73 982.49 654.87 Z" />
<path fill="#d13c36" opacity="1.00" d=" M 309.36 655.57 C 319.12 651.26 331.84 659.15 331.83 669.95 C 332.81 679.33 324.44 688.15 315.03 687.64 C 305.10 687.95 296.91 677.50 299.15 667.95 C 300.03 662.35 304.18 657.66 309.36 655.57 Z" />
<path fill="#d13c36" opacity="1.00" d=" M 376.43 655.60 C 382.77 653.11 390.45 655.00 394.91 660.13 C 400.65 666.82 399.88 678.19 393.02 683.84 C 387.04 688.92 377.20 688.96 371.40 683.56 C 365.40 678.23 363.92 668.20 368.72 661.63 C 370.62 658.92 373.27 656.67 376.43 655.60 Z" />
<path fill="#d13c36" opacity="1.00" d=" M 845.53 655.69 C 853.64 651.89 863.99 656.74 867.01 664.98 C 869.04 670.86 868.04 678.01 863.58 682.55 C 857.79 688.94 846.72 689.40 840.46 683.47 C 833.95 677.71 833.24 666.52 839.13 660.10 C 840.86 658.13 843.14 656.71 845.53 655.69 Z" />
<path fill="#d13c36" opacity="1.00" d=" M 881.13 654.89 C 891.45 651.89 902.75 661.17 901.75 671.90 C 901.81 681.06 893.01 688.52 884.03 687.53 C 874.32 687.44 866.80 677.28 868.74 667.96 C 869.95 661.71 874.99 656.48 881.13 654.89 Z" />
<path fill="#d13c36" opacity="1.00" d=" M 913.41 655.39 C 921.19 652.21 930.78 656.56 934.09 664.16 C 937.85 672.02 934.03 682.66 925.98 686.13 C 917.64 690.22 905.98 686.07 903.21 676.91 C 899.95 668.52 904.71 658.05 913.41 655.39 Z" />
<path fill="#d13c36" opacity="1.00" d=" M 412.45 688.76 C 420.51 686.99 429.38 692.04 431.58 700.07 C 435.11 710.08 426.67 721.83 416.02 721.51 C 405.95 722.17 397.46 711.80 399.54 702.06 C 400.47 695.43 405.85 689.89 412.45 688.76 Z" />
<path fill="#d13c36" opacity="1.00" d=" M 446.49 688.69 C 455.77 686.93 465.56 694.52 465.62 704.09 C 466.49 713.26 458.31 722.18 449.00 721.56 C 439.51 721.96 431.09 712.41 432.84 703.05 C 433.52 695.91 439.38 689.71 446.49 688.69 Z" />
<path fill="#d13c36" opacity="1.00" d=" M 479.44 688.69 C 488.76 686.73 499.10 694.19 498.97 703.97 C 500.15 713.07 491.98 721.62 482.98 721.51 C 476.92 721.78 470.90 718.29 468.05 712.95 C 465.86 709.01 465.79 704.24 466.77 699.94 C 468.49 694.20 473.60 689.81 479.44 688.69 Z" />
<path fill="#d13c36" opacity="1.00" d=" M 546.49 688.79 C 553.79 687.27 561.88 691.13 564.87 698.05 C 568.93 705.68 565.25 715.98 557.54 719.69 C 548.90 724.62 536.69 719.56 534.02 709.98 C 530.77 700.91 537.00 690.33 546.49 688.79 Z" />
<path fill="#d13c36" opacity="1.00" d=" M 580.54 688.76 C 586.34 687.70 592.73 689.92 596.39 694.60 C 602.41 701.91 600.55 714.52 592.13 719.23 C 585.08 723.65 574.89 721.68 570.10 714.85 C 565.26 708.27 566.11 697.92 572.43 692.57 C 574.69 690.54 577.56 689.29 580.54 688.76 Z" />
<path fill="#d13c36" opacity="1.00" d=" M 614.48 688.66 C 624.17 686.75 634.02 695.16 633.56 705.05 C 634.00 715.76 622.21 724.37 612.13 720.78 C 603.10 718.48 597.90 707.60 601.43 699.07 C 603.30 693.39 608.70 689.54 614.48 688.66 Z" />
<path fill="#d13c36" opacity="1.00" d=" M 1005.60 696.39 C 1010.48 688.25 1022.68 685.75 1030.05 691.98 C 1037.81 697.82 1038.51 710.65 1031.15 717.10 C 1023.53 724.91 1008.51 721.90 1004.80 711.56 C 1005.04 709.40 1001.00 709.47 1001.26 711.59 C 998.28 719.95 987.57 723.88 979.64 720.29 C 971.97 717.28 967.52 707.90 970.26 700.09 C 972.30 692.99 979.63 687.92 986.98 688.46 C 994.74 688.72 1002.18 695.10 1002.61 703.02 C 1002.87 704.88 1001.88 707.02 1003.05 708.68 C 1003.47 704.52 1003.02 699.98 1005.60 696.39 Z" />
<path fill="#d13c36" opacity="1.00" d=" M 376.40 689.64 C 383.57 686.52 392.56 689.82 396.47 696.47 C 401.03 703.81 398.59 714.72 391.04 719.09 C 384.92 723.06 376.10 722.20 370.90 717.07 C 366.83 713.28 365.08 707.35 365.98 701.92 C 366.89 696.32 371.20 691.66 376.40 689.64 Z" />
<path fill="#d13c36" opacity="1.00" d=" M 510.39 689.50 C 519.92 685.71 532.06 692.50 532.62 703.03 C 534.11 712.58 525.72 722.20 516.01 721.56 C 505.81 721.85 497.11 710.79 500.12 700.98 C 501.35 695.74 505.34 691.31 510.39 689.50 Z" />
<path fill="#d13c36" opacity="1.00" d=" M 644.40 689.68 C 652.26 686.23 662.46 690.28 665.63 698.31 C 667.91 704.32 667.14 711.86 662.46 716.56 C 657.08 722.29 647.45 723.23 641.06 718.66 C 634.21 714.09 631.95 704.11 635.96 696.97 C 637.74 693.58 640.90 691.11 644.40 689.68 Z" />
<path fill="#d13c36" opacity="1.00" d=" M 869.50 699.59 C 871.75 692.80 878.82 688.09 885.94 688.52 C 894.82 688.79 902.58 697.18 901.68 706.13 L 900.74 707.94 C 901.57 707.92 902.41 707.92 903.27 707.94 C 901.13 705.14 902.61 701.37 903.60 698.40 C 907.03 689.73 918.42 685.77 926.55 690.26 C 933.56 693.64 937.24 702.54 934.67 709.88 C 932.66 716.98 925.40 722.20 918.00 721.57 C 911.44 721.26 904.28 716.69 903.28 709.82 C 902.41 709.84 901.54 709.88 900.69 709.93 C 898.68 720.64 883.70 725.17 875.52 718.42 C 869.81 714.24 867.11 706.31 869.50 699.59 Z" />
<path fill="#d13c36" opacity="1.00" d=" M 946.42 689.64 C 954.57 686.07 965.04 690.60 967.97 699.00 C 969.76 704.87 969.14 712.04 964.55 716.52 C 959.25 722.40 949.67 723.18 943.24 718.71 C 935.10 713.63 933.59 700.97 939.98 693.94 C 941.70 691.97 944.01 690.60 946.42 689.64 Z" />
<path fill="#d13c36" opacity="1.00" d=" M 1049.51 722.74 C 1054.04 721.89 1058.97 722.57 1062.79 725.27 C 1069.34 729.77 1071.49 739.23 1068.14 746.32 C 1064.79 753.57 1055.53 757.42 1048.05 754.61 C 1040.51 752.23 1035.47 743.86 1036.97 736.09 C 1037.86 729.61 1043.12 724.06 1049.51 722.74 Z" />
<path fill="#d13c36" opacity="1.00" d=" M 913.25 723.28 C 921.34 720.11 931.09 724.68 934.19 732.72 C 939.05 742.80 930.11 755.74 919.10 755.48 C 910.50 756.12 902.42 748.65 902.30 740.06 C 901.68 732.83 906.22 725.45 913.25 723.28 Z" />
<path fill="#d13c36" opacity="1.00" d=" M 946.38 723.51 C 955.62 719.40 967.50 726.00 968.68 736.07 C 969.97 743.33 966.14 751.27 959.27 754.20 C 952.39 757.36 943.51 755.06 939.07 748.92 C 932.78 740.70 936.24 726.84 946.38 723.51 Z" />
<path fill="#d13c36" opacity="1.00" d=" M 981.98 722.78 C 992.33 719.88 1004.03 729.01 1002.78 739.94 C 1002.79 750.19 991.54 757.83 981.95 754.97 C 973.38 753.00 967.65 743.31 970.01 734.86 C 971.39 729.02 976.23 724.35 981.98 722.78 Z" />
<path fill="#d13c36" opacity="1.00" d=" M 1013.44 723.61 C 1023.49 718.85 1036.13 727.19 1036.44 738.08 C 1037.19 747.85 1027.82 756.81 1018.08 755.50 C 1010.16 754.80 1003.57 747.86 1003.23 739.93 C 1002.62 733.03 1007.07 726.16 1013.44 723.61 Z" />
<path fill="#d13c36" opacity="1.00" d=" M 1083.47 756.67 C 1091.87 754.82 1100.93 760.52 1102.75 768.94 C 1105.08 777.03 1100.02 786.29 1091.94 788.66 C 1083.98 791.61 1074.15 787.06 1071.39 779.00 C 1067.68 769.95 1073.58 758.18 1083.47 756.67 Z" />
<path fill="#d13c36" opacity="1.00" d=" M 948.15 756.87 C 956.76 754.28 966.71 760.06 968.55 768.89 C 970.69 776.90 965.92 786.28 957.85 788.68 C 950.01 791.42 940.39 787.54 937.30 779.66 C 932.85 770.78 938.66 759.22 948.15 756.87 Z" />
<path fill="#d13c36" opacity="1.00" d=" M 980.33 757.32 C 990.66 753.10 1003.13 761.88 1002.71 773.00 C 1003.38 782.78 993.57 790.98 984.08 789.44 C 975.72 788.48 968.83 780.58 969.48 772.11 C 969.64 765.54 974.20 759.54 980.33 757.32 Z" />
<path fill="#d13c36" opacity="1.00" d=" M 1013.42 757.59 C 1023.09 753.01 1035.37 760.59 1036.33 771.05 C 1037.53 779.73 1030.68 788.55 1021.92 789.40 C 1013.10 790.92 1004.01 783.87 1003.36 774.94 C 1002.37 767.73 1006.73 760.35 1013.42 757.59 Z" />
<path fill="#d13c36" opacity="1.00" d=" M 1046.46 757.75 C 1053.66 754.49 1062.92 757.15 1067.20 763.80 C 1072.01 771.02 1070.26 782.02 1062.72 786.68 C 1054.91 792.26 1042.78 789.30 1038.68 780.57 C 1034.16 772.52 1038.02 761.38 1046.46 757.75 Z" />
<path fill="#d13c36" opacity="1.00" d=" M 980.28 791.44 C 988.30 788.18 998.35 792.49 1001.33 800.67 C 1004.99 808.46 1001.05 818.57 993.30 822.13 C 989.96 823.84 986.06 823.82 982.44 823.34 C 974.89 821.98 969.21 814.61 969.53 807.01 C 969.31 800.21 973.95 793.77 980.28 791.44 Z" />
<path fill="#d13c36" opacity="1.00" d=" M 1013.34 791.54 C 1021.02 788.28 1030.67 792.03 1034.36 799.46 C 1038.95 807.18 1035.21 818.31 1027.05 821.97 C 1019.16 826.01 1008.30 822.51 1004.67 814.33 C 1000.64 806.04 1004.65 794.92 1013.34 791.54 Z" />
<path fill="#d13c36" opacity="1.00" d=" M 1047.37 791.51 C 1056.92 787.41 1068.97 794.70 1069.75 805.07 C 1071.23 814.37 1063.30 823.54 1053.94 823.64 C 1044.17 824.53 1034.92 814.87 1036.88 805.11 C 1037.55 799.09 1041.73 793.70 1047.37 791.51 Z" />
<path fill="#d13c36" opacity="1.00" d=" M 1080.42 791.70 C 1088.48 787.98 1098.91 792.62 1101.93 800.88 C 1105.26 808.29 1102.04 817.98 1094.74 821.66 C 1087.46 825.72 1077.19 823.49 1072.87 816.18 C 1067.42 807.89 1071.01 795.26 1080.42 791.70 Z" />
<path fill="#d13c36" opacity="1.00" d=" M 1014.36 825.33 C 1020.71 823.10 1028.26 825.27 1032.39 830.62 C 1037.87 837.22 1037.39 848.19 1030.61 853.73 C 1023.35 860.64 1010.02 858.65 1005.33 849.71 C 1000.16 841.00 1004.39 828.25 1014.36 825.33 Z" />
<path fill="#d13c36" opacity="1.00" d=" M 1049.11 824.96 C 1059.44 822.01 1070.73 831.42 1069.65 842.10 C 1069.52 851.09 1060.92 858.84 1051.94 857.79 C 1043.35 857.46 1036.29 849.50 1036.50 841.01 C 1036.59 833.69 1041.98 826.73 1049.11 824.96 Z" />
</g>
</svg>
